  0
SECTION
  2
HEADER
  9
$ACADVER
  1
AC1015
  9
$ACADMAINTVER
 70
     6
  9
$DWGCODEPAGE
  3
ANSI_1252
  9
$INSBASE
 10
0.0
 20
0.0
 30
0.0
  9
$EXTMIN
 10
-26.9780196228
 20
-45.2915557839
 30
0.0
  9
$EXTMAX
 10
29.2407026813
 20
48.5887701194
 30
0.0
  9
$LIMMIN
 10
0.0
 20
0.0
  9
$LIMMAX
 10
420.0
 20
297.0
  9
$ORTHOMODE
 70
     0
  9
$REGENMODE
 70
     1
  9
$FILLMODE
 70
     1
  9
$QTEXTMODE
 70
     0
  9
$MIRRTEXT
 70
     1
  9
$LTSCALE
 40
1.0
  9
$ATTMODE
 70
     1
  9
$TEXTSIZE
 40
3.5
  9
$TRACEWID
 40
1.0
  9
$TEXTSTYLE
  7
Standard
  9
$CLAYER
  8
0
  9
$CELTYPE
  6
ByLayer
  9
$CECOLOR
 62
   256
  9
$CELTSCALE
 40
1.0
  9
$DISPSILH
 70
     0
  9
$DIMSCALE
 40
1.0
  9
$DIMASZ
 40
3.302
  9
$DIMEXO
 40
0.0
  9
$DIMDLI
 40
3.75
  9
$DIMRND
 40
0.0
  9
$DIMDLE
 40
0.0
  9
$DIMEXE
 40
1.0
  9
$DIMTP
 40
0.0
  9
$DIMTM
 40
0.0
  9
$DIMTXT
 40
3.5
  9
$DIMCEN
 40
2.5
  9
$DIMTSZ
 40
0.0
  9
$DIMTOL
 70
     0
  9
$DIMLIM
 70
     0
  9
$DIMTIH
 70
     1
  9
$DIMTOH
 70
     1
  9
$DIMSE1
 70
     0
  9
$DIMSE2
 70
     0
  9
$DIMTAD
 70
     1
  9
$DIMZIN
 70
     1
  9
$DIMBLK
  1

  9
$DIMASO
 70
     1
  9
$DIMSHO
 70
     1
  9
$DIMPOST
  1

  9
$DIMAPOST
  1

  9
$DIMALT
 70
     0
  9
$DIMALTD
 70
     3
  9
$DIMALTF
 40
0.0393700787
  9
$DIMLFAC
 40
1.0
  9
$DIMTOFL
 70
     1
  9
$DIMTVP
 40
0.0
  9
$DIMTIX
 70
     0
  9
$DIMSOXD
 70
     0
  9
$DIMSAH
 70
     0
  9
$DIMBLK1
  1

  9
$DIMBLK2
  1

  9
$DIMSTYLE
  2
ISO-25
  9
$DIMCLRD
 70
     0
  9
$DIMCLRE
 70
     0
  9
$DIMCLRT
 70
     0
  9
$DIMTFAC
 40
1.0
  9
$DIMGAP
 40
1.524
  9
$DIMJUST
 70
     0
  9
$DIMSD1
 70
     0
  9
$DIMSD2
 70
     0
  9
$DIMTOLJ
 70
     0
  9
$DIMTZIN
 70
     1
  9
$DIMALTZ
 70
     0
  9
$DIMALTTZ
 70
     0
  9
$DIMUPT
 70
     0
  9
$DIMDEC
 70
     2
  9
$DIMTDEC
 70
     2
  9
$DIMALTU
 70
     2
  9
$DIMALTTD
 70
     3
  9
$DIMTXSTY
  7
Standard
  9
$DIMAUNIT
 70
     0
  9
$DIMADEC
 70
     2
  9
$DIMALTRND
 40
0.0
  9
$DIMAZIN
 70
     0
  9
$DIMDSEP
 70
    44
  9
$DIMATFIT
 70
     3
  9
$DIMFRAC
 70
     0
  9
$DIMLDRBLK
  1

  9
$DIMLUNIT
 70
     2
  9
$DIMLWD
 70
    -2
  9
$DIMLWE
 70
    -2
  9
$DIMTMOVE
 70
     0
  9
$LUNITS
 70
     2
  9
$LUPREC
 70
     2
  9
$SKETCHINC
 40
1.0
  9
$FILLETRAD
 40
10.0
  9
$AUNITS
 70
     0
  9
$AUPREC
 70
     2
  9
$MENU
  1
.
  9
$ELEVATION
 40
0.0
  9
$PELEVATION
 40
0.0
  9
$THICKNESS
 40
0.0
  9
$LIMCHECK
 70
     0
  9
$CHAMFERA
 40
0.0
  9
$CHAMFERB
 40
0.0
  9
$CHAMFERC
 40
0.0
  9
$CHAMFERD
 40
0.0
  9
$SKPOLY
 70
     0
  9
$TDCREATE
 40
2459718.015943692
  9
$TDUCREATE
 40
2459717.932610359
  9
$TDUPDATE
 40
2459718.016015683
  9
$TDUUPDATE
 40
2459717.932682349
  9
$TDINDWG
 40
0.0000000116
  9
$TDUSRTIMER
 40
0.0000000116
  9
$USRTIMER
 70
     1
  9
$ANGBASE
 50
0.0
  9
$ANGDIR
 70
     0
  9
$PDMODE
 70
     0
  9
$PDSIZE
 40
-1.0
  9
$PLINEWID
 40
0.0
  9
$SPLFRAME
 70
     0
  9
$SPLINETYPE
 70
     6
  9
$SPLINESEGS
 70
     8
  9
$HANDSEED
  5
642
  9
$SURFTAB1
 70
     6
  9
$SURFTAB2
 70
     6
  9
$SURFTYPE
 70
     6
  9
$SURFU
 70
     6
  9
$SURFV
 70
     6
  9
$UCSBASE
  2

  9
$UCSNAME
  2

  9
$UCSORG
 10
0.0
 20
0.0
 30
0.0
  9
$UCSXDIR
 10
1.0
 20
0.0
 30
0.0
  9
$UCSYDIR
 10
0.0
 20
1.0
 30
0.0
  9
$UCSORTHOREF
  2

  9
$UCSORTHOVIEW
 70
     0
  9
$UCSORGTOP
 10
0.0
 20
0.0
 30
0.0
  9
$UCSORGBOTTOM
 10
0.0
 20
0.0
 30
0.0
  9
$UCSORGLEFT
 10
0.0
 20
0.0
 30
0.0
  9
$UCSORGRIGHT
 10
0.0
 20
0.0
 30
0.0
  9
$UCSORGFRONT
 10
0.0
 20
0.0
 30
0.0
  9
$UCSORGBACK
 10
0.0
 20
0.0
 30
0.0
  9
$PUCSBASE
  2

  9
$PUCSNAME
  2

  9
$PUCSORG
 10
0.0
 20
0.0
 30
0.0
  9
$PUCSXDIR
 10
1.0
 20
0.0
 30
0.0
  9
$PUCSYDIR
 10
0.0
 20
1.0
 30
0.0
  9
$PUCSORTHOREF
  2

  9
$PUCSORTHOVIEW
 70
     0
  9
$PUCSORGTOP
 10
0.0
 20
0.0
 30
0.0
  9
$PUCSORGBOTTOM
 10
0.0
 20
0.0
 30
0.0
  9
$PUCSORGLEFT
 10
0.0
 20
0.0
 30
0.0
  9
$PUCSORGRIGHT
 10
0.0
 20
0.0
 30
0.0
  9
$PUCSORGFRONT
 10
0.0
 20
0.0
 30
0.0
  9
$PUCSORGBACK
 10
0.0
 20
0.0
 30
0.0
  9
$USERI1
 70
     0
  9
$USERI2
 70
     0
  9
$USERI3
 70
     0
  9
$USERI4
 70
     0
  9
$USERI5
 70
     0
  9
$USERR1
 40
0.0
  9
$USERR2
 40
0.0
  9
$USERR3
 40
0.0
  9
$USERR4
 40
0.0
  9
$USERR5
 40
0.0
  9
$WORLDVIEW
 70
     1
  9
$SHADEDGE
 70
     3
  9
$SHADEDIF
 70
    70
  9
$TILEMODE
 70
     1
  9
$MAXACTVP
 70
    64
  9
$PINSBASE
 10
0.0
 20
0.0
 30
0.0
  9
$PLIMCHECK
 70
     0
  9
$PEXTMIN
 10
1.0000000000E+20
 20
1.0000000000E+20
 30
1.0000000000E+20
  9
$PEXTMAX
 10
-1.0000000000E+20
 20
-1.0000000000E+20
 30
-1.0000000000E+20
  9
$PLIMMIN
 10
0.0
 20
0.0
  9
$PLIMMAX
 10
420.0
 20
297.0
  9
$UNITMODE
 70
     0
  9
$VISRETAIN
 70
     1
  9
$PLINEGEN
 70
     0
  9
$PSLTSCALE
 70
     1
  9
$TREEDEPTH
 70
  3020
  9
$CMLSTYLE
  2
Standard
  9
$CMLJUST
 70
     0
  9
$CMLSCALE
 40
20.0
  9
$PROXYGRAPHICS
 70
     1
  9
$MEASUREMENT
 70
     1
  9
$CELWEIGHT
370
    -1
  9
$ENDCAPS
280
     0
  9
$JOINSTYLE
280
     0
  9
$LWDISPLAY
290
     1
  9
$INSUNITS
 70
     4
  9
$HYPERLINKBASE
  1

  9
$STYLESHEET
  1

  9
$XEDIT
290
     1
  9
$CEPSNTYPE
380
     0
  9
$PSTYLEMODE
290
     1
  9
$FINGERPRINTGUID
  2
{c273dcf7-ae9e-4fe8-a99c-32a455b8d98d}
  9
$VERSIONGUID
  2
{FAEB1C32-E019-11D5-929B-00C0DF256EC4}
  9
$EXTNAMES
290
     1
  9
$PSVPSCALE
 40
0.0
  9
$OLESTARTUP
290
     0
  0
ENDSEC
  0
SECTION
  2
CLASSES
  0
CLASS
  1
ACDBDICTIONARYWDFLT
  2
AcDbDictionaryWithDefault
  3
ObjectDBX Classes
 90
        0
280
     0
281
     0
  0
CLASS
  1
VISUALSTYLE
  2
AcDbVisualStyle
  3
ObjectDBX Classes
 90
     4095
280
     0
281
     0
  0
CLASS
  1
MATERIAL
  2
AcDbMaterial
  3
ObjectDBX Classes
 90
     1153
280
     0
281
     0
  0
CLASS
  1
SCALE
  2
AcDbScale
  3
ObjectDBX Classes
 90
     1153
280
     0
281
     0
  0
CLASS
  1
TABLESTYLE
  2
AcDbTableStyle
  3
ObjectDBX Classes
 90
     4095
280
     0
281
     0
  0
CLASS
  1
MLEADERSTYLE
  2
AcDbMLeaderStyle
  3
ACDB_MLEADERSTYLE_CLASS
 90
     4095
280
     0
281
     0
  0
CLASS
  1
SUN
  2
AcDbSun
  3
SCENEOE
 90
     1153
280
     0
281
     0
  0
CLASS
  1
ACDBPLACEHOLDER
  2
AcDbPlaceHolder
  3
ObjectDBX Classes
 90
        0
280
     0
281
     0
  0
CLASS
  1
LAYOUT
  2
AcDbLayout
  3
ObjectDBX Classes
 90
        0
280
     0
281
     0
  0
ENDSEC
  0
SECTION
  2
TABLES
  0
TABLE
  2
VPORT
  5
8
330
0
100
AcDbSymbolTable
 70
     1
  0
VPORT
  5
29
330
8
100
AcDbSymbolTableRecord
100
AcDbViewportTableRecord
  2
*Active
 70
     0
 10
0.0
 20
0.0
 11
1.0
 21
1.0
 12
1.1313415292
 22
1.6486071678
 13
0.0
 23
0.0
 14
10.0
 24
10.0
 15
10.0
 25
10.0
 16
0.0
 26
0.0
 36
1.0
 17
0.0
 27
0.0
 37
0.0
 40
95.7579324214
 41
0.5988339065
 42
50.0
 43
0.0
 44
0.0
 50
0.0
 51
0.0
 71
     0
 72
   100
 73
     1
 74
     3
 75
     0
 76
     0
 77
     0
 78
     0
281
     0
 65
     1
110
0.0
120
0.0
130
0.0
111
1.0
121
0.0
131
0.0
112
0.0
122
1.0
132
0.0
 79
     0
146
0.0
  0
ENDTAB
  0
TABLE
  2
LTYPE
  5
5
330
0
100
AcDbSymbolTable
 70
     6
  0
LTYPE
  5
14
330
5
100
AcDbSymbolTableRecord
100
AcDbLinetypeTableRecord
  2
ByBlock
 70
     0
  3

 72
    65
 73
     0
 40
0.0
  0
LTYPE
  5
15
330
5
100
AcDbSymbolTableRecord
100
AcDbLinetypeTableRecord
  2
ByLayer
 70
     0
  3

 72
    65
 73
     0
 40
0.0
  0
LTYPE
  5
16
330
5
100
AcDbSymbolTableRecord
100
AcDbLinetypeTableRecord
  2
Continuous
 70
     0
  3
Solid line
 72
    65
 73
     0
 40
0.0
  0
LTYPE
  5
6E
330
5
100
AcDbSymbolTableRecord
100
AcDbLinetypeTableRecord
  2
HIDDEN
 70
     0
  3
Hidden __ __ __ __ __ __ __ __ __ __ __ __ __ __
 72
    65
 73
     2
 40
1.905
 49
1.27
 74
     0
 49
-0.635
 74
     0
  0
LTYPE
  5
6F
330
5
100
AcDbSymbolTableRecord
100
AcDbLinetypeTableRecord
  2
PHANTOM
 70
     0
  3
Phantom ______  __  __  ______  __  __  ______
 72
    65
 73
     6
 40
12.7
 49
6.35
 74
     0
 49
-1.27
 74
     0
 49
1.27
 74
     0
 49
-1.27
 74
     0
 49
1.27
 74
     0
 49
-1.27
 74
     0
  0
LTYPE
  5
70
330
5
100
AcDbSymbolTableRecord
100
AcDbLinetypeTableRecord
  2
CENTER
 70
     0
  3
Center ____ _ ____ _ ____ _ ____ _ ____ _ ____
 72
    65
 73
     4
 40
10.16
 49
6.35
 74
     0
 49
-1.27
 74
     0
 49
1.27
 74
     0
 49
-1.27
 74
     0
  0
LTYPE
  5
71
330
5
100
AcDbSymbolTableRecord
100
AcDbLinetypeTableRecord
  2
CENTERX2
 70
     0
  3
Center (2x) ________  __  ________  __  _____
 72
    65
 73
     4
 40
20.32
 49
12.7
 74
     0
 49
-2.54
 74
     0
 49
2.54
 74
     0
 49
-2.54
 74
     0
  0
LTYPE
  5
72
330
5
100
AcDbSymbolTableRecord
100
AcDbLinetypeTableRecord
  2
DOT2
 70
     0
  3
Dot (.5x) ........................................
 72
    65
 73
     2
 40
0.635
 49
0.0
 74
     0
 49
-0.635
 74
     0
  0
ENDTAB
  0
TABLE
  2
LAYER
  5
2
330
0
100
AcDbSymbolTable
 70
     1
  0
LAYER
  5
10
330
2
100
AcDbSymbolTableRecord
100
AcDbLayerTableRecord
  2
0
 70
     0
 62
     7
  6
Continuous
370
    -3
390
F
  0
ENDTAB
  0
TABLE
  2
STYLE
  5
3
330
0
100
AcDbSymbolTable
 70
     1
  0
STYLE
  5
11
330
3
100
AcDbSymbolTableRecord
100
AcDbTextStyleTableRecord
  2
Standard
 70
     0
 40
0.0
 41
1.0
 50
0.0
 71
     0
 42
3.5
  3
txt
  4

  0
ENDTAB
  0
TABLE
  2
VIEW
  5
6
330
0
100
AcDbSymbolTable
 70
     0
  0
ENDTAB
  0
TABLE
  2
UCS
  5
7
330
0
100
AcDbSymbolTable
 70
     0
  0
ENDTAB
  0
TABLE
  2
APPID
  5
9
330
0
100
AcDbSymbolTable
 70
     1
  0
APPID
  5
12
330
9
100
AcDbSymbolTableRecord
100
AcDbRegAppTableRecord
  2
ACAD
 70
     0
  0
ENDTAB
  0
TABLE
  2
DIMSTYLE
  5
A
330
0
100
AcDbSymbolTable
 70
     1
100
AcDbDimStyleTable
  0
DIMSTYLE
105
27
330
A
100
AcDbSymbolTableRecord
100
AcDbDimStyleTableRecord
  2
ISO-25
 70
     0
 41
2.5
 42
0.625
 43
3.75
 44
1.25
 73
     0
 74
     0
 77
     1
 78
     8
140
2.5
141
2.5
143
0.0393700787
147
0.625
171
     3
172
     1
178
     0
271
     2
272
     2
274
     3
278
    44
283
     0
284
     8
340
11
  0
ENDTAB
  0
TABLE
  2
BLOCK_RECORD
  5
1
330
0
100
AcDbSymbolTable
 70
     1
  0
BLOCK_RECORD
  5
1F
330
1
100
AcDbSymbolTableRecord
100
AcDbBlockTableRecord
  2
*Model_Space
340
22
  0
BLOCK_RECORD
  5
1B
330
1
100
AcDbSymbolTableRecord
100
AcDbBlockTableRecord
  2
*Paper_Space
340
1E
  0
BLOCK_RECORD
  5
23
330
1
100
AcDbSymbolTableRecord
100
AcDbBlockTableRecord
  2
*Paper_Space0
340
26
  0
ENDTAB
  0
ENDSEC
  0
SECTION
  2
BLOCKS
  0
BLOCK
  5
20
330
1F
100
AcDbEntity
  8
0
100
AcDbBlockBegin
  2
*Model_Space
 70
     0
 10
0.0
 20
0.0
 30
0.0
  3
*Model_Space
  1

  0
ENDBLK
  5
21
330
1F
100
AcDbEntity
  8
0
100
AcDbBlockEnd
  0
BLOCK
  5
1C
330
1B
100
AcDbEntity
 67
     1
  8
0
100
AcDbBlockBegin
  2
*Paper_Space
 70
     0
 10
0.0
 20
0.0
 30
0.0
  3
*Paper_Space
  1

  0
ENDBLK
  5
1D
330
1B
100
AcDbEntity
 67
     1
  8
0
100
AcDbBlockEnd
  0
BLOCK
  5
24
330
23
100
AcDbEntity
  8
0
100
AcDbBlockBegin
  2
*Paper_Space0
 70
     0
 10
0.0
 20
0.0
 30
0.0
  3
*Paper_Space0
  1

  0
ENDBLK
  5
25
330
23
100
AcDbEntity
  8
0
100
AcDbBlockEnd
  0
ENDSEC
  0
SECTION
  2
ENTITIES
  0
CIRCLE
  5
E9
330
1F
100
AcDbEntity
  8
0
  6
Continuous
 62
     7
370
    25
100
AcDbCircle
 10
19.1657734005
 20
-39.1887687241
 30
0.0
 40
0.8611985610089157
  0
CIRCLE
  5
EB
330
1F
100
AcDbEntity
  8
0
  6
Continuous
 62
     7
370
    25
100
AcDbCircle
 10
2.107657374
 20
11.8146836635
 30
0.0
 40
0.8611985610089268
  0
CIRCLE
  5
ED
330
1F
100
AcDbEntity
  8
0
  6
Continuous
 62
     7
370
    25
100
AcDbCircle
 10
2.107657374
 20
-7.1752989386
 30
0.0
 40
0.8611985610089228
  0
CIRCLE
  5
F0
330
1F
100
AcDbEntity
  8
0
  6
Continuous
 62
     7
370
    25
100
AcDbCircle
 10
20.0779225945
 20
-6.3735969288
 30
0.0
 40
1.665436059866252
  0
CIRCLE
  5
F2
330
1F
100
AcDbEntity
  8
0
  6
Continuous
 62
     7
370
    25
100
AcDbCircle
 10
20.0779225945
 20
-6.3735969288
 30
0.0
 40
2.183398300108362
  0
CIRCLE
  5
F3
330
1F
100
AcDbEntity
  8
0
  6
Continuous
 62
     7
370
    25
100
AcDbCircle
 10
20.0779225945
 20
-6.3735969288
 30
0.0
 40
0.8611985610089192
  0
CIRCLE
  5
F6
330
1F
100
AcDbEntity
  8
0
  6
Continuous
 62
     7
370
    25
100
AcDbCircle
 10
-20.6223879181
 20
-0.3292836156
 30
0.0
 40
1.665436059866256
  0
CIRCLE
  5
F8
330
1F
100
AcDbEntity
  8
0
  6
Continuous
 62
     7
370
    25
100
AcDbCircle
 10
-15.5564126404
 20
-14.4786826921
 30
0.0
 40
1.66543605986625
  0
CIRCLE
  5
FB
330
1F
100
AcDbEntity
  8
0
  6
Continuous
 62
     7
370
    25
100
AcDbCircle
 10
-15.5564126404
 20
-14.4786826921
 30
0.0
 40
2.183398300108367
  0
CIRCLE
  5
FC
330
1F
100
AcDbEntity
  8
0
  6
Continuous
 62
     7
370
    25
100
AcDbCircle
 10
-15.5564126404
 20
-14.4786826921
 30
0.0
 40
0.8611985610089192
  0
CIRCLE
  5
100
330
1F
100
AcDbEntity
  8
0
  6
Continuous
 62
     7
370
    25
100
AcDbCircle
 10
-7.4706069957
 20
5.7742667642
 30
0.0
 40
1.66543605986626
  0
CIRCLE
  5
102
330
1F
100
AcDbEntity
  8
0
  6
Continuous
 62
     7
370
    25
100
AcDbCircle
 10
-7.1254254815
 20
-19.0009307976
 30
0.0
 40
1.665436059866256
  0
LWPOLYLINE
  5
104
330
1F
100
AcDbEntity
  8
0
  6
Continuous
 62
     7
370
    25
100
AcDbPolyline
 90
        3
 70
   128
 43
0.0
 10
-5.0248389528
 20
-19.5966812527
 10
-4.9780538625
 20
-19.4023224244
 10
-4.9386191518
 20
-18.9893434496
  0
CIRCLE
  5
105
330
1F
100
AcDbEntity
  8
0
  6
Continuous
 62
     7
370
    25
100
AcDbCircle
 10
-7.1254254815
 20
-19.0009307976
 30
0.0
 40
2.183398300108362
  0
CIRCLE
  5
108
330
1F
100
AcDbEntity
  8
0
  6
Continuous
 62
     7
370
    25
100
AcDbCircle
 10
-7.4706069957
 20
5.8292673124
 30
0.0
 40
0.8611985610089219
  0
LWPOLYLINE
  5
10A
330
1F
100
AcDbEntity
  8
0
  6
Continuous
 62
     7
370
    25
100
AcDbPolyline
 90
        3
 70
   128
 43
0.0
 10
-6.3098221312
 20
-19.277715256
 10
-6.2983161135
 20
-19.2430437395
 10
-6.2600769475
 20
-18.9893434496
  0
CIRCLE
  5
10B
330
1F
100
AcDbEntity
  8
0
  6
Continuous
 62
     7
370
    25
100
AcDbCircle
 10
-7.1254254815
 20
-19.0009307976
 30
0.0
 40
0.8611985610089246
  0
CIRCLE
  5
10D
330
1F
100
AcDbEntity
  8
0
  6
Continuous
 62
     7
370
    25
100
AcDbCircle
 10
-15.3750634824
 20
-22.5497385382
 30
0.0
 40
1.665436059866259
  0
CIRCLE
  5
110
330
1F
100
AcDbEntity
  8
0
  6
Continuous
 62
     7
370
    25
100
AcDbCircle
 10
-15.3750634824
 20
-22.5497385382
 30
0.0
 40
2.183398300108365
  0
CIRCLE
  5
111
330
1F
100
AcDbEntity
  8
0
  6
Continuous
 62
     7
370
    25
100
AcDbCircle
 10
-15.3750634824
 20
-22.5497385382
 30
0.0
 40
0.861198561008921
  0
LWPOLYLINE
  5
113
330
1F
100
AcDbEntity
  8
0
  6
Continuous
 62
     7
370
    25
100
AcDbPolyline
 90
        3
 70
   128
 43
0.0
 10
-14.6408049972
 20
-23.0000688393
 10
-14.543324886
 20
-22.7898600907
 10
-14.50508572
 20
-22.5361598008
  0
CIRCLE
  5
116
330
1F
100
AcDbEntity
  8
0
  6
Continuous
 62
     7
370
    25
100
AcDbCircle
 10
2.107657374
 20
-0.1068658622
 30
0.0
 40
1.665436059866256
  0
CIRCLE
  5
118
330
1F
100
AcDbEntity
  8
0
  6
Continuous
 62
     7
370
    25
100
AcDbCircle
 10
2.1909620299
 20
-15.2512569788
 30
0.0
 40
1.665436059866256
  0
CIRCLE
  5
11A
330
1F
100
AcDbEntity
  8
0
  6
Continuous
 62
     7
370
    25
100
AcDbCircle
 10
2.1909620299
 20
-15.2512569788
 30
0.0
 40
2.183398300108362
  0
CIRCLE
  5
11B
330
1F
100
AcDbEntity
  8
0
  6
Continuous
 62
     7
370
    25
100
AcDbCircle
 10
2.1909620299
 20
-15.2512569788
 30
0.0
 40
0.8611985610089206
  0
CIRCLE
  5
11E
330
1F
100
AcDbEntity
  8
0
  6
Continuous
 62
     7
370
    25
100
AcDbCircle
 10
-15.8010319107
 20
-6.3735969288
 30
0.0
 40
1.665436059866254
  0
CIRCLE
  5
121
330
1F
100
AcDbEntity
  8
0
  6
Continuous
 62
     7
370
    25
100
AcDbCircle
 10
20.0779225945
 20
-14.4786826921
 30
0.0
 40
1.665436059866256
  0
CIRCLE
  5
123
330
1F
100
AcDbEntity
  8
0
  6
Continuous
 62
     7
370
    25
100
AcDbCircle
 10
20.0779225945
 20
-14.4786826921
 30
0.0
 40
2.183398300108369
  0
CIRCLE
  5
126
330
1F
100
AcDbEntity
  8
0
  6
Continuous
 62
     7
370
    25
100
AcDbCircle
 10
-15.8010319107
 20
-6.3735969288
 30
0.0
 40
0.861198561008921
  0
CIRCLE
  5
128
330
1F
100
AcDbEntity
  8
0
  6
Continuous
 62
     7
370
    25
100
AcDbCircle
 10
20.0779225945
 20
-14.4786826921
 30
0.0
 40
0.8611985610089192
  0
CIRCLE
  5
12B
330
1F
100
AcDbEntity
  8
0
  6
Continuous
 62
     7
370
    25
100
AcDbCircle
 10
11.6670212292
 20
-19.0009307976
 30
0.0
 40
1.665436059866261
  0
CIRCLE
  5
12D
330
1F
100
AcDbEntity
  8
0
  6
Continuous
 62
     7
370
    25
100
AcDbCircle
 10
11.6670212292
 20
-19.0009307976
 30
0.0
 40
2.183398300108365
  0
CIRCLE
  5
12E
330
1F
100
AcDbEntity
  8
0
  6
Continuous
 62
     7
370
    25
100
AcDbCircle
 10
11.6670212292
 20
-19.0009307976
 30
0.0
 40
0.8611985610089103
  0
CIRCLE
  5
132
330
1F
100
AcDbEntity
  8
0
  6
Continuous
 62
     7
370
    25
100
AcDbCircle
 10
21.81574976
 20
6.2078598123
 30
0.0
 40
1.665436059866256
  0
CIRCLE
  5
135
330
1F
100
AcDbEntity
  8
0
  6
Continuous
 62
     7
370
    25
100
AcDbCircle
 10
19.7349197138
 20
-22.5497385382
 30
0.0
 40
1.665436059866252
  0
CIRCLE
  5
137
330
1F
100
AcDbEntity
  8
0
  6
Continuous
 62
     7
370
    25
100
AcDbCircle
 10
19.7349197138
 20
-22.5497385382
 30
0.0
 40
2.183398300108369
  0
CIRCLE
  5
139
330
1F
100
AcDbEntity
  8
0
  6
Continuous
 62
     7
370
    25
100
AcDbCircle
 10
21.81574976
 20
6.2078598123
 30
0.0
 40
0.8611985610089192
  0
CIRCLE
  5
13B
330
1F
100
AcDbEntity
  8
0
  6
Continuous
 62
     7
370
    25
100
AcDbCircle
 10
19.7349197138
 20
-22.5497385382
 30
0.0
 40
0.8611985610089263
  0
CIRCLE
  5
13D
330
1F
100
AcDbEntity
  8
0
  6
Continuous
 62
     7
370
    25
100
AcDbCircle
 10
2.1909620299
 20
-23.2262025341
 30
0.0
 40
1.665436059866257
  0
CIRCLE
  5
13F
330
1F
100
AcDbEntity
  8
0
  6
Continuous
 62
     7
370
    25
100
AcDbCircle
 10
2.1909620299
 20
-23.2262025341
 30
0.0
 40
2.183398300108365
  0
LWPOLYLINE
  5
140
330
1F
100
AcDbEntity
  8
0
  6
Continuous
 62
     7
370
    25
100
AcDbPolyline
 90
        3
 70
   128
 43
0.0
 10
3.7716110327
 20
11.8089790387
 10
3.7326959123
 20
11.451160416
 10
3.7158607082
 20
11.3817965248
  0
CIRCLE
  5
142
330
1F
100
AcDbEntity
  8
0
  6
Continuous
 62
     7
370
    25
100
AcDbCircle
 10
2.107657374
 20
11.8146836635
 30
0.0
 40
1.665436059866255
  0
CIRCLE
  5
144
330
1F
100
AcDbEntity
  8
0
  6
Continuous
 62
     7
370
    25
100
AcDbCircle
 10
2.107657374
 20
11.8146836635
 30
0.0
 40
2.183398300108359
  0
LWPOLYLINE
  5
146
330
1F
100
AcDbEntity
  8
0
  6
Continuous
 62
     7
370
    25
100
AcDbPolyline
 90
        3
 70
   128
 43
0.0
 10
12.9827631381
 20
-26.3643785308
 10
13.0753937062
 20
-26.6551057634
 10
13.1143088265
 20
-27.0129243861
  0
CIRCLE
  5
147
330
1F
100
AcDbEntity
  8
0
  6
Continuous
 62
     7
370
    25
100
AcDbCircle
 10
11.4556007027
 20
-27.02901664
 30
0.0
 40
1.665436059866259
  0
CIRCLE
  5
148
330
1F
100
AcDbEntity
  8
0
  6
Continuous
 62
     7
370
    25
100
AcDbCircle
 10
2.107657374
 20
-7.1752989386
 30
0.0
 40
2.18339830010836
  0
CIRCLE
  5
149
330
1F
100
AcDbEntity
  8
0
  6
Continuous
 62
     7
370
    25
100
AcDbCircle
 10
2.107657374
 20
-7.1752989386
 30
0.0
 40
1.665436059866256
  0
CIRCLE
  5
14B
330
1F
100
AcDbEntity
  8
0
  6
Continuous
 62
     7
370
    25
100
AcDbCircle
 10
-17.6642695346
 20
6.2078598123
 30
0.0
 40
1.665436059866256
  0
CIRCLE
  5
14E
330
1F
100
AcDbEntity
  8
0
  6
Continuous
 62
     7
370
    25
100
AcDbCircle
 10
-17.6642695346
 20
6.2078598123
 30
0.0
 40
2.18339830010836
  0
CIRCLE
  5
14F
330
1F
100
AcDbEntity
  8
0
  6
Continuous
 62
     7
370
    25
100
AcDbCircle
 10
-17.6642695346
 20
6.2078598123
 30
0.0
 40
0.8611985610089263
  0
CIRCLE
  5
152
330
1F
100
AcDbEntity
  8
0
  6
Continuous
 62
     7
370
    25
100
AcDbCircle
 10
-6.9836391968
 20
-27.02901664
 30
0.0
 40
2.183398300108363
  0
CIRCLE
  5
153
330
1F
100
AcDbEntity
  8
0
  6
Continuous
 62
     7
370
    25
100
AcDbCircle
 10
-6.9836391968
 20
-27.02901664
 30
0.0
 40
1.665436059866257
  0
CIRCLE
  5
156
330
1F
100
AcDbEntity
  8
0
  6
Continuous
 62
     7
370
    25
100
AcDbCircle
 10
-20.6223879181
 20
-0.3292836156
 30
0.0
 40
2.183398300108365
  0
CIRCLE
  5
158
330
1F
100
AcDbEntity
  8
0
  6
Continuous
 62
     7
370
    25
100
AcDbCircle
 10
-15.1121979986
 20
-30.646806392
 30
0.0
 40
1.665436059866254
  0
CIRCLE
  5
15B
330
1F
100
AcDbEntity
  8
0
  6
Continuous
 62
     7
370
    25
100
AcDbCircle
 10
-20.6223879181
 20
-0.3292836156
 30
0.0
 40
0.8611985610089157
  0
CIRCLE
  5
15C
330
1F
100
AcDbEntity
  8
0
  6
Continuous
 62
     7
370
    25
100
AcDbCircle
 10
-15.1121979986
 20
-30.646806392
 30
0.0
 40
2.183398300108362
  0
CIRCLE
  5
15F
330
1F
100
AcDbEntity
  8
0
  6
Continuous
 62
     7
370
    25
100
AcDbCircle
 10
-7.4706069957
 20
5.7742667642
 30
0.0
 40
2.183398300108361
  0
CIRCLE
  5
161
330
1F
100
AcDbEntity
  8
0
  6
Continuous
 62
     7
370
    25
100
AcDbCircle
 10
-6.8321204708
 20
-35.1011257951
 30
0.0
 40
1.665436059866255
  0
CIRCLE
  5
162
330
1F
100
AcDbEntity
  8
0
  6
Continuous
 62
     7
370
    25
100
AcDbCircle
 10
-6.8321204708
 20
-35.1011257951
 30
0.0
 40
2.183398300108362
  0
CIRCLE
  5
165
330
1F
100
AcDbEntity
  8
0
  6
Continuous
 62
     7
370
    25
100
AcDbCircle
 10
2.107657374
 20
5.8292673124
 30
0.0
 40
1.665436059866253
  0
CIRCLE
  5
167
330
1F
100
AcDbEntity
  8
0
  6
Continuous
 62
     7
370
    25
100
AcDbCircle
 10
2.107657374
 20
5.8292673124
 30
0.0
 40
2.183398300108366
  0
CIRCLE
  5
169
330
1F
100
AcDbEntity
  8
0
  6
Continuous
 62
     7
370
    25
100
AcDbCircle
 10
-14.7955064117
 20
-39.1887687241
 30
0.0
 40
1.665436059866263
  0
CIRCLE
  5
16B
330
1F
100
AcDbEntity
  8
0
  6
Continuous
 62
     7
370
    25
100
AcDbCircle
 10
2.107657374
 20
5.8292673124
 30
0.0
 40
0.861198561008921
  0
CIRCLE
  5
16C
330
1F
100
AcDbEntity
  8
0
  6
Continuous
 62
     7
370
    25
100
AcDbCircle
 10
-14.7955064117
 20
-39.1887687241
 30
0.0
 40
2.183398300108365
  0
CIRCLE
  5
16D
330
1F
100
AcDbEntity
  8
0
  6
Continuous
 62
     7
370
    25
100
AcDbCircle
 10
2.107657374
 20
-0.1068658622
 30
0.0
 40
2.183398300108364
  0
CIRCLE
  5
16F
330
1F
100
AcDbEntity
  8
0
  6
Continuous
 62
     7
370
    25
100
AcDbCircle
 10
2.1909620299
 20
-31.3137223697
 30
0.0
 40
1.665436059866257
  0
CIRCLE
  5
171
330
1F
100
AcDbEntity
  8
0
  6
Continuous
 62
     7
370
    25
100
AcDbCircle
 10
2.107657374
 20
-0.1068658622
 30
0.0
 40
0.8611985610089214
  0
CIRCLE
  5
172
330
1F
100
AcDbEntity
  8
0
  6
Continuous
 62
     7
370
    25
100
AcDbCircle
 10
2.1909620299
 20
-31.3137223697
 30
0.0
 40
2.183398300108363
  0
CIRCLE
  5
175
330
1F
100
AcDbEntity
  8
0
  6
Continuous
 62
     7
370
    25
100
AcDbCircle
 10
-15.8010319107
 20
-6.3735969288
 30
0.0
 40
2.183398300108363
  0
CIRCLE
  5
178
330
1F
100
AcDbEntity
  8
0
  6
Continuous
 62
     7
370
    25
100
AcDbCircle
 10
19.4651517751
 20
-30.646806392
 30
0.0
 40
1.665436059866263
  0
LWPOLYLINE
  5
17A
330
1F
100
AcDbEntity
  8
0
  6
Continuous
 62
     7
370
    25
100
AcDbPolyline
 90
        3
 70
   128
 43
0.0
 10
-4.8414738987
 20
-27.4516679946
 10
-4.8363471403
 20
-27.4259033609
 10
-4.7969124295
 20
-27.0129243861
  0
CIRCLE
  5
17C
330
1F
100
AcDbEntity
  8
0
  6
Continuous
 62
     7
370
    25
100
AcDbCircle
 10
19.4651517751
 20
-30.646806392
 30
0.0
 40
2.183398300108369
  0
CIRCLE
  5
17F
330
1F
100
AcDbEntity
  8
0
  6
Continuous
 62
     7
370
    25
100
AcDbCircle
 10
11.6670212292
 20
5.8292673124
 30
0.0
 40
1.665436059866259
  0
CIRCLE
  5
181
330
1F
100
AcDbEntity
  8
0
  6
Continuous
 62
     7
370
    25
100
AcDbCircle
 10
11.6670212292
 20
5.8292673124
 30
0.0
 40
2.183398300108362
  0
LWPOLYLINE
  5
183
330
1F
100
AcDbEntity
  8
0
  6
Continuous
 62
     7
370
    25
100
AcDbPolyline
 90
        3
 70
   128
 43
0.0
 10
12.8705595555
 20
-34.5672532132
 10
12.9127511818
 20
-34.7226853092
 10
12.9516663021
 20
-35.0805039319
  0
CIRCLE
  5
184
330
1F
100
AcDbEntity
  8
0
  6
Continuous
 62
     7
370
    25
100
AcDbCircle
 10
11.2928668613
 20
-35.1011257951
 30
0.0
 40
1.665436059866266
  0
CIRCLE
  5
186
330
1F
100
AcDbEntity
  8
0
  6
Continuous
 62
     7
370
    25
100
AcDbCircle
 10
11.6670212292
 20
5.8292673124
 30
0.0
 40
0.8611985610089228
  0
CIRCLE
  5
187
330
1F
100
AcDbEntity
  8
0
  6
Continuous
 62
     7
370
    25
100
AcDbCircle
 10
11.2928668613
 20
-35.1011257951
 30
0.0
 40
2.183398300108362
  0
CIRCLE
  5
189
330
1F
100
AcDbEntity
  8
0
  6
Continuous
 62
     7
370
    25
100
AcDbCircle
 10
21.81574976
 20
6.2078598123
 30
0.0
 40
2.183398300108362
  0
CIRCLE
  5
18B
330
1F
100
AcDbEntity
  8
0
  6
Continuous
 62
     7
370
    25
100
AcDbCircle
 10
2.1909620299
 20
-39.7780329869
 30
0.0
 40
1.665436059866257
  0
CIRCLE
  5
18C
330
1F
100
AcDbEntity
  8
0
  6
Continuous
 62
     7
370
    25
100
AcDbCircle
 10
2.1909620299
 20
-39.7780329869
 30
0.0
 40
2.183398300108367
  0
CIRCLE
  5
18F
330
1F
100
AcDbEntity
  8
0
  6
Continuous
 62
     7
370
    25
100
AcDbCircle
 10
22.6336255943
 20
-0.4377383615
 30
0.0
 40
1.665436059866259
  0
CIRCLE
  5
191
330
1F
100
AcDbEntity
  8
0
  6
Continuous
 62
     7
370
    25
100
AcDbCircle
 10
22.6336255943
 20
-0.4377383615
 30
0.0
 40
2.183398300108358
  0
CIRCLE
  5
192
330
1F
100
AcDbEntity
  8
0
  6
Continuous
 62
     7
370
    25
100
AcDbCircle
 10
22.6336255943
 20
-0.4377383615
 30
0.0
 40
0.8611985610089299
  0
CIRCLE
  5
194
330
1F
100
AcDbEntity
  8
0
  6
Continuous
 62
     7
370
    25
100
AcDbCircle
 10
19.1657734005
 20
-39.1887687241
 30
0.0
 40
2.183398300108351
  0
CIRCLE
  5
195
330
1F
100
AcDbEntity
  8
0
  6
Continuous
 62
     7
370
    25
100
AcDbCircle
 10
19.1657734005
 20
-39.1887687241
 30
0.0
 40
1.665436059866256
  0
LWPOLYLINE
  5
197
330
1F
100
AcDbEntity
  8
0
  6
Continuous
 62
     7
370
    25
100
AcDbPolyline
 90
        3
 70
   128
 43
0.0
 10
3.6978033427
 20
-6.6801858085
 10
3.7326959123
 20
-6.8125288409
 10
3.7716110327
 20
-7.1703474636
  0
CIRCLE
  5
19B
330
1F
100
AcDbEntity
  8
0
  6
Continuous
 62
     7
370
    25
100
AcDbCircle
 10
11.4556007027
 20
-27.02901664
 30
0.0
 40
2.183398300108356
  0
CIRCLE
  5
19C
330
1F
100
AcDbEntity
  8
0
  6
Continuous
 62
     7
370
    25
100
AcDbCircle
 10
11.4556007027
 20
-27.02901664
 30
0.0
 40
0.8611985610089281
  0
CIRCLE
  5
19F
330
1F
100
AcDbEntity
  8
0
  6
Continuous
 62
     7
370
    25
100
AcDbCircle
 10
2.1909620299
 20
-31.3137223697
 30
0.0
 40
0.8611985610089223
  0
CIRCLE
  5
1A1
330
1F
100
AcDbEntity
  8
0
  6
Continuous
 62
     7
370
    25
100
AcDbCircle
 10
-6.8321204708
 20
-35.1011257951
 30
0.0
 40
0.861198561008921
  0
CIRCLE
  5
1A4
330
1F
100
AcDbEntity
  8
0
  6
Continuous
 62
     7
370
    25
100
AcDbCircle
 10
-6.9836391968
 20
-27.02901664
 30
0.0
 40
0.8611985610089254
  0
CIRCLE
  5
1A5
330
1F
100
AcDbEntity
  8
0
  6
Continuous
 62
     7
370
    25
100
AcDbCircle
 10
19.4651517751
 20
-30.646806392
 30
0.0
 40
0.8611985610089228
  0
CIRCLE
  5
1A9
330
1F
100
AcDbEntity
  8
0
  6
Continuous
 62
     7
370
    25
100
AcDbCircle
 10
-14.7955064117
 20
-39.1887687241
 30
0.0
 40
0.8611985610089228
  0
LWPOLYLINE
  5
1AB
330
1F
100
AcDbEntity
  8
0
  6
Continuous
 62
     7
370
    25
100
AcDbPolyline
 90
        3
 70
   128
 43
0.0
 10
-14.3251555674
 20
-30.9970041097
 10
-14.2806069074
 20
-30.8823843299
 10
-14.2423677414
 20
-30.62868404
  0
CIRCLE
  5
1AC
330
1F
100
AcDbEntity
  8
0
  6
Continuous
 62
     7
370
    25
100
AcDbCircle
 10
-15.1121979986
 20
-30.646806392
 30
0.0
 40
0.861198561008921
  0
CIRCLE
  5
1AD
330
1F
100
AcDbEntity
  8
0
  6
Continuous
 62
     7
370
    25
100
AcDbCircle
 10
11.2928668613
 20
-35.1011257951
 30
0.0
 40
0.8611985610089175
  0
LWPOLYLINE
  5
1B1
330
1F
100
AcDbEntity
  8
0
  6
Continuous
 62
     7
370
    25
100
AcDbPolyline
 90
        3
 70
   128
 43
0.0
 10
-12.7165707604
 20
-39.8564948604
 10
-12.6438307789
 20
-39.5788320826
 10
-12.6043960682
 20
-39.1658531079
  0
CIRCLE
  5
1B3
330
1F
100
AcDbEntity
  8
0
  6
Continuous
 62
     7
370
    25
100
AcDbCircle
 10
2.1909620299
 20
-39.7780329869
 30
0.0
 40
0.8611985610089192
  0
LWPOLYLINE
  5
1B6
330
1F
100
AcDbEntity
  8
0
  6
Continuous
 62
     7
370
    25
100
AcDbPolyline
 90
        3
 70
   128
 43
0.0
 10
-13.9786919451
 20
-39.4627794078
 10
-13.9640930299
 20
-39.4195533978
 10
-13.9258538639
 20
-39.1658531079
  0
CIRCLE
  5
1B7
330
1F
100
AcDbEntity
  8
0
  6
Continuous
 62
     7
370
    25
100
AcDbCircle
 10
2.1909620299
 20
-23.2262025341
 30
0.0
 40
0.8611985610089254
  0
LWPOLYLINE
  5
1E9
330
1F
100
AcDbEntity
  8
0
  6
Continuous
 62
     7
370
    25
100
AcDbPolyline
 90
        3
 70
   128
 43
0.0
 10
27.018875193
 20
-2.2691038709
 10
26.8774789898
 20
-2.341782649
 10
26.7652470264
 20
-2.3559069705
  0
LWPOLYLINE
  5
1F3
330
1F
100
AcDbEntity
  8
0
  6
Continuous
 62
     7
370
    25
100
AcDbPolyline
 90
        3
 70
   128
 43
0.0
 10
27.018875193
 20
-4.4191783652
 10
26.8750536304
 20
-4.4899890923
 10
26.7444339049
 20
-4.5016626783
  0
LWPOLYLINE
  5
217
330
1F
100
AcDbEntity
  8
0
  6
Continuous
 62
     7
370
    25
100
AcDbPolyline
 90
        3
 70
   128
 43
0.0
 10
-25.1025806255
 20
24.8384425783
 10
-24.836911194
 20
24.7199568176
 10
-24.781868768
 20
24.6826045266
  0
LWPOLYLINE
  5
21D
330
1F
100
AcDbEntity
  8
0
  6
Continuous
 62
     7
370
    25
100
AcDbPolyline
 90
        3
 70
   128
 43
0.0
 10
-25.247859584
 20
26.8266533108
 10
-25.1107229497
 20
26.7914401029
 10
-25.0577743053
 20
26.7610740949
  0
LWPOLYLINE
  5
220
330
1F
100
AcDbEntity
  8
0
  6
Continuous
 62
     7
370
    25
100
AcDbPolyline
 90
        3
 70
   128
 43
0.0
 10
-25.247859584
 20
27.8990258527
 10
-25.1128168608
 20
27.8721641849
 10
-25.0505854029
 20
27.8387336703
  0
LWPOLYLINE
  5
223
330
1F
100
AcDbEntity
  8
0
  6
Continuous
 62
     7
370
    25
100
AcDbPolyline
 90
        3
 70
   128
 43
0.0
 10
-25.247859584
 20
28.9724683077
 10
-25.1111995826
 20
28.9452849433
 10
-25.043037337
 20
28.907890994
  0
LWPOLYLINE
  5
226
330
1F
100
AcDbEntity
  8
0
  6
Continuous
 62
     7
370
    25
100
AcDbPolyline
 90
        3
 70
   128
 43
0.0
 10
-25.247859584
 20
30.05133266
 10
-25.1076511996
 20
30.0122524643
 10
-25.0424013585
 20
29.9718097395
  0
LWPOLYLINE
  5
229
330
1F
100
AcDbEntity
  8
0
  6
Continuous
 62
     7
370
    25
100
AcDbPolyline
 90
        3
 70
   128
 43
0.0
 10
-25.247859584
 20
31.2058994401
 10
-25.1066686134
 20
31.1622012876
 10
-25.0397072137
 20
31.118370792
  0
LWPOLYLINE
  5
235
330
1F
100
AcDbEntity
  8
0
  6
Continuous
 62
     7
370
    25
100
AcDbPolyline
 90
        3
 70
   128
 43
0.0
 10
-25.6263091288
 20
35.4132306124
 10
-25.3869398916
 20
35.3435000099
 10
-25.224216172
 20
35.239470089
  0
CIRCLE
  5
2D3
330
1F
100
AcDbEntity
  8
0
  6
Continuous
 62
     7
370
    25
100
AcDbCircle
 10
-13.8515673679
 20
46.8724791636
 30
0.0
 40
0.6525951737576321
  0
CIRCLE
  5
2D4
330
1F
100
AcDbEntity
  8
0
  6
Continuous
 62
     7
370
    25
100
AcDbCircle
 10
9.3007327322
 20
46.9173178883
 30
0.0
 40
0.651668324489938
  0
CIRCLE
  5
2D5
330
1F
100
AcDbEntity
  8
0
  6
Continuous
 62
     7
370
    25
100
AcDbCircle
 10
23.0581096798
 20
37.1492929043
 30
0.0
 40
0.8555253489685306
  0
CIRCLE
  5
2D6
330
1F
100
AcDbEntity
  8
0
  6
Continuous
 62
     7
370
    25
100
AcDbCircle
 10
25.2609652373
 20
29.5716305197
 30
0.0
 40
0.8694492544076482
  0
CIRCLE
  5
2D7
330
1F
100
AcDbEntity
  8
0
  6
Continuous
 62
     7
370
    25
100
AcDbCircle
 10
-0.37037428
 20
42.0193947367
 30
0.0
 40
0.4731671746937713
  0
CIRCLE
  5
2D8
330
1F
100
AcDbEntity
  8
0
  6
Continuous
 62
     7
370
    25
100
AcDbCircle
 10
-6.9873361318
 20
-10.5676924968
 30
0.0
 40
0.8802318010930215
  0
CIRCLE
  5
2D9
330
1F
100
AcDbEntity
  8
0
  6
Continuous
 62
     7
370
    25
100
AcDbCircle
 10
27.1298283675
 20
-26.1395611051
 30
0.0
 40
0.8861411586066588
  0
CIRCLE
  5
2DA
330
1F
100
AcDbEntity
  8
0
  6
Continuous
 62
     7
370
    25
100
AcDbCircle
 10
24.2497589287
 20
-35.5588630797
 30
0.0
 40
0.8942903097083423
  0
CIRCLE
  5
2DB
330
1F
100
AcDbEntity
  8
0
  6
Continuous
 62
     7
370
    25
100
AcDbCircle
 10
-19.9501575041
 20
-35.5736447682
 30
0.0
 40
1.079046982624313
  0
CIRCLE
  5
2DC
330
1F
100
AcDbEntity
  8
0
  6
Continuous
 62
     7
370
    25
100
AcDbCircle
 10
-19.8757890171
 20
-15.2078636413
 30
0.0
 40
1.089825006977581
  0
CIRCLE
  5
2DD
330
1F
100
AcDbEntity
  8
0
  6
Continuous
 62
     7
370
    25
100
AcDbCircle
 10
24.2286085951
 20
-15.1991518379
 30
0.0
 40
1.115769014581982
  0
LWPOLYLINE
  5
33E
330
1F
100
AcDbEntity
  8
0
  6
Continuous
 62
     7
370
    25
100
AcDbPolyline
 90
        3
 70
   128
 43
0.0
 10
23.776653866
 20
36.7198109922
 10
23.7942368072
 20
36.7709867978
 10
23.8321093856
 20
37.0222549378
  0
LWPOLYLINE
  5
345
330
1F
100
AcDbEntity
  8
0
  6
Continuous
 62
     7
370
    25
100
AcDbPolyline
 90
        3
 70
   128
 43
0.0
 10
25.0581206009
 20
-35.4257174444
 10
25.018531967
 20
-35.1630640197
 10
24.9875462632
 20
-35.0781610411
  0
LWPOLYLINE
  5
352
330
1F
100
AcDbEntity
  8
0
  6
Continuous
 62
     7
370
    25
100
AcDbPolyline
 90
        3
 70
   128
 43
0.0
 10
27.018875193
 20
-3.2654502861
 10
26.8795839617
 20
-3.3463241934
 10
26.7513683332
 20
-3.3654444514
  0
LWPOLYLINE
  5
353
330
1F
100
AcDbEntity
  8
0
  6
Continuous
 62
     7
370
    25
100
AcDbPolyline
 90
        3
 70
   128
 43
0.0
 10
26.8641490136
 20
-2.606223717
 10
26.8795839617
 20
-2.6109223822
 10
27.018875193
 20
-2.6917962895
  0
LWPOLYLINE
  5
38F
330
1F
100
AcDbEntity
  8
0
  6
Continuous
 62
     7
370
    25
100
AcDbPolyline
 90
        3
 70
   128
 43
0.0
 10
-23.5230859215
 20
-28.3470021981
 10
-23.5336140692
 20
-28.3562869331
 10
-23.663364244
 20
-28.4364021127
  0
LWPOLYLINE
  5
390
330
1F
100
AcDbEntity
  8
0
  6
Continuous
 62
     7
370
    25
100
AcDbPolyline
 90
        3
 70
   128
 43
0.0
 10
-23.5665207925
 20
-27.1951958864
 10
-23.6089639799
 20
-27.2243614538
 10
-23.7444185472
 20
-27.2742385725
  0
LWPOLYLINE
  5
392
330
1F
100
AcDbEntity
  8
0
  6
Continuous
 62
     7
370
    25
100
AcDbPolyline
 90
        3
 70
   128
 43
0.0
 10
-23.5957194919
 20
-26.0976212731
 10
-23.6742848554
 20
-26.1442900562
 10
-23.821075663
 20
-26.1751222816
  0
LWPOLYLINE
  5
394
330
1F
100
AcDbEntity
  8
0
  6
Continuous
 62
     7
370
    25
100
AcDbPolyline
 90
        3
 70
   128
 43
0.0
 10
-23.6560503325
 20
-25.0344520184
 10
-23.7398861595
 20
-25.0838451381
 10
-23.8949831426
 20
-25.115430511
  0
LWPOLYLINE
  5
396
330
1F
100
AcDbEntity
  8
0
  6
Continuous
 62
     7
370
    25
100
AcDbPolyline
 90
        3
 70
   128
 43
0.0
 10
-23.7066039845
 20
-23.9554494264
 10
-23.8035683463
 20
-24.0115605005
 10
-23.9698890599
 20
-24.0414230544
  0
LINE
  5
3A8
330
1F
100
AcDbEntity
  8
0
  6
Continuous
 62
     7
370
    25
100
AcDbLine
 10
2.9538929041
 20
11.6547430542
 30
0.0
 11
2.9549161906
 21
11.6603610819
 31
0.0
  0
LINE
  5
3A9
330
1F
100
AcDbEntity
  8
0
  6
Continuous
 62
     7
370
    25
100
AcDbLine
 10
1.2465139686
 20
11.8244302938
 30
0.0
 11
1.2464493403
 21
11.8187201998
 31
0.0
  0
LINE
  5
3AA
330
1F
100
AcDbEntity
  8
0
  6
Continuous
 62
     7
370
    25
100
AcDbLine
 10
1.2464673601
 20
-7.1815683214
 30
0.0
 11
1.2465319984
 21
-7.1865260965
 31
0.0
  0
LINE
  5
3AB
330
1F
100
AcDbEntity
  8
0
  6
Continuous
 62
     7
370
    25
100
AcDbLine
 10
2.9504080293
 20
-6.9980017461
 30
0.0
 11
2.9493872725
 21
-6.9931497602
 31
0.0
  0
LINE
  5
3AC
330
1F
100
AcDbEntity
  8
0
  6
Continuous
 62
     7
370
    25
100
AcDbLine
 10
19.008019426
 20
-8.2769274687
 30
0.0
 11
19.0180564346
 21
-8.2825002422
 31
0.0
  0
LINE
  5
3AD
330
1F
100
AcDbEntity
  8
0
  6
Continuous
 62
     7
370
    25
100
AcDbLine
 10
20.7110627804
 20
-4.2840128453
 30
0.0
 11
20.7000757528
 21
-4.2806837959
 31
0.0
  0
LINE
  5
3AE
330
1F
100
AcDbEntity
  8
0
  6
Continuous
 62
     7
370
    25
100
AcDbLine
 10
19.6988154217
 20
-7.1469492275
 30
0.0
 11
19.7092402834
 21
-7.1518875654
 31
0.0
  0
LINE
  5
3AF
330
1F
100
AcDbEntity
  8
0
  6
Continuous
 62
     7
370
    25
100
AcDbLine
 10
20.380216883
 20
-5.5671968267
 30
0.0
 11
20.3694155072
 21
-5.5631477273
 31
0.0
  0
LINE
  5
3B0
330
1F
100
AcDbEntity
  8
0
  6
Continuous
 62
     7
370
    25
100
AcDbLine
 10
-16.9091450828
 20
-12.764765786
 30
0.0
 11
-16.9192740632
 21
-12.7728582934
 31
0.0
  0
LINE
  5
3B1
330
1F
100
AcDbEntity
  8
0
  6
Continuous
 62
     7
370
    25
100
AcDbLine
 10
-13.898123548
 20
-15.8990014672
 30
0.0
 11
-13.8896898657
 21
-15.8891547458
 31
0.0
  0
LINE
  5
3B2
330
1F
100
AcDbEntity
  8
0
  6
Continuous
 62
     7
370
    25
100
AcDbLine
 10
-16.1218042188
 20
-13.8289406841
 30
0.0
 11
-16.1314911402
 21
-13.8376306813
 31
0.0
  0
LINE
  5
3B3
330
1F
100
AcDbEntity
  8
0
  6
Continuous
 62
     7
370
    25
100
AcDbLine
 10
-14.9353728914
 20
-15.0753170791
 30
0.0
 11
-14.9263571637
 21
-15.0659325625
 31
0.0
  0
LINE
  5
3B4
330
1F
100
AcDbEntity
  8
0
  6
Continuous
 62
     7
370
    25
100
AcDbLine
 10
-9.0576611025
 20
-17.9841476967
 30
0.0
 11
-9.0633818022
 21
-17.9951706693
 31
0.0
  0
LINE
  5
3B5
330
1F
100
AcDbEntity
  8
0
  6
Continuous
 62
     7
370
    25
100
AcDbLine
 10
-5.0282953912
 20
-19.6086095956
 30
0.0
 11
-5.0248389528
 21
-19.5966812527
 31
0.0
  0
LINE
  5
3B6
330
1F
100
AcDbEntity
  8
0
  6
Continuous
 62
     7
370
    25
100
AcDbLine
 10
-7.0213647086
 20
6.5640277483
 30
0.0
 11
-7.0259421129
 21
6.5667875518
 31
0.0
  0
LINE
  5
3B7
330
1F
100
AcDbEntity
  8
0
  6
Continuous
 62
     7
370
    25
100
AcDbLine
 10
-7.7757803217
 20
5.0239523414
 30
0.0
 11
-7.7707821508
 21
5.0220582893
 31
0.0
  0
LINE
  5
3B8
330
1F
100
AcDbEntity
  8
0
  6
Continuous
 62
     7
370
    25
100
AcDbLine
 10
-7.9070127628
 20
-18.6390747722
 30
0.0
 11
-7.9120874215
 21
-18.6504654589
 31
0.0
  0
LINE
  5
3B9
330
1F
100
AcDbEntity
  8
0
  6
Continuous
 62
     7
370
    25
100
AcDbLine
 10
-6.3140000341
 20
-19.2894645127
 30
0.0
 11
-6.3098221312
 21
-19.277715256
 31
0.0
  0
LINE
  5
3BA
330
1F
100
AcDbEntity
  8
0
  6
Continuous
 62
     7
370
    25
100
AcDbLine
 10
-17.0718365919
 20
-21.1755268275
 30
0.0
 11
-17.0820569168
 21
-21.1883416262
 31
0.0
  0
LINE
  5
3BB
330
1F
100
AcDbEntity
  8
0
  6
Continuous
 62
     7
370
    25
100
AcDbLine
 10
-13.4846485067
 20
-23.64223996
 30
0.0
 11
-13.4764468432
 21
-23.6280481729
 31
0.0
  0
LINE
  5
3BC
330
1F
100
AcDbEntity
  8
0
  6
Continuous
 62
     7
370
    25
100
AcDbLine
 10
-16.0622772043
 20
-22.0304407396
 30
0.0
 11
-16.0719307037
 21
-22.0437355368
 31
0.0
  0
LINE
  5
3BD
330
1F
100
AcDbEntity
  8
0
  6
Continuous
 62
     7
370
    25
100
AcDbLine
 10
-14.6496603993
 20
-23.0139080422
 30
0.0
 11
-14.6408049972
 21
-23.0000688393
 31
0.0
  0
LINE
  5
3BE
330
1F
100
AcDbEntity
  8
0
  6
Continuous
 62
     7
370
    25
100
AcDbLine
 10
0.0130444782
 20
-15.0963632758
 30
0.0
 11
0.0124166011
 21
-15.105764878
 31
0.0
  0
LINE
  5
3BF
330
1F
100
AcDbEntity
  8
0
  6
Continuous
 62
     7
370
    25
100
AcDbLine
 10
4.3342723295
 20
-14.8347847747
 30
0.0
 11
4.3324750266
 21
-14.8255352313
 31
0.0
  0
LINE
  5
3C0
330
1F
100
AcDbEntity
  8
0
  6
Continuous
 62
     7
370
    25
100
AcDbLine
 10
1.3297114099
 20
-15.2518757084
 30
0.0
 11
1.3298227863
 21
-15.2613646243
 31
0.0
  0
LINE
  5
3C1
330
1F
100
AcDbEntity
  8
0
  6
Continuous
 62
     7
370
    25
100
AcDbLine
 10
3.0466195577
 20
-15.1537215664
 30
0.0
 11
3.0455448124
 21
-15.1442930537
 31
0.0
  0
LINE
  5
3C2
330
1F
100
AcDbEntity
  8
0
  6
Continuous
 62
     7
370
    25
100
AcDbLine
 10
18.5124907358
 20
-16.0008011707
 30
0.0
 11
18.5222495257
 21
-16.0107105769
 31
0.0
  0
LINE
  5
3C3
330
1F
100
AcDbEntity
  8
0
  6
Continuous
 62
     7
370
    25
100
AcDbLine
 10
21.3417909194
 20
-12.6982712244
 30
0.0
 11
21.3304499629
 21
-12.690220571
 31
0.0
  0
LINE
  5
3C4
330
1F
100
AcDbEntity
  8
0
  6
Continuous
 62
     7
370
    25
100
AcDbLine
 10
-16.1239098629
 20
-5.5751464929
 30
0.0
 11
-16.1335979665
 21
-5.5792023291
 31
0.0
  0
LINE
  5
3C5
330
1F
100
AcDbEntity
  8
0
  6
Continuous
 62
     7
370
    25
100
AcDbLine
 10
-15.3969220879
 20
-7.1340955893
 30
0.0
 11
-15.387647365
 21
-7.1291672352
 31
0.0
  0
LINE
  5
3C6
330
1F
100
AcDbEntity
  8
0
  6
Continuous
 62
     7
370
    25
100
AcDbLine
 10
19.4870424922
 20
-15.1053551457
 30
0.0
 11
19.4973484523
 21
-15.1147617964
 31
0.0
  0
LINE
  5
3C7
330
1F
100
AcDbEntity
  8
0
  6
Continuous
 62
     7
370
    25
100
AcDbLine
 10
20.6130991253
 20
-13.8039612367
 30
0.0
 11
20.6021670693
 21
-13.7952901329
 31
0.0
  0
LINE
  5
3C8
330
1F
100
AcDbEntity
  8
0
  6
Continuous
 62
     7
370
    25
100
AcDbLine
 10
9.632553056
 20
-19.7936067129
 30
0.0
 11
9.6373261315
 21
-19.8056456212
 31
0.0
  0
LINE
  5
3C9
330
1F
100
AcDbEntity
  8
0
  6
Continuous
 62
     7
370
    25
100
AcDbLine
 10
13.5097955299
 20
-17.8298582066
 30
0.0
 11
13.5028494445
 21
-17.818927998
 31
0.0
  0
LINE
  5
3CA
330
1F
100
AcDbEntity
  8
0
  6
Continuous
 62
     7
370
    25
100
AcDbLine
 10
10.8804171129
 20
-19.3517668146
 30
0.0
 11
10.885890812
 21
-19.3635576482
 31
0.0
  0
LINE
  5
3CB
330
1F
100
AcDbEntity
  8
0
  6
Continuous
 62
     7
370
    25
100
AcDbLine
 10
12.4190713868
 20
-18.5813077264
 30
0.0
 11
12.4127373538
 21
-18.569955847
 31
0.0
  0
LINE
  5
3CC
330
1F
100
AcDbEntity
  8
0
  6
Continuous
 62
     7
370
    25
100
AcDbLine
 10
17.9037653868
 20
-23.7390214427
 30
0.0
 11
17.9131824028
 21
-23.7532755367
 31
0.0
  0
LINE
  5
3CD
330
1F
100
AcDbEntity
  8
0
  6
Continuous
 62
     7
370
    25
100
AcDbLine
 10
21.3662696251
 20
-21.0985577763
 30
0.0
 11
21.3549149326
 21
-21.0857933591
 31
0.0
  0
LINE
  5
3CE
330
1F
100
AcDbEntity
  8
0
  6
Continuous
 62
     7
370
    25
100
AcDbLine
 10
21.9550854002
 20
5.3579247717
 30
0.0
 11
21.9667770634
 21
5.3600073987
 31
0.0
  0
LINE
  5
3CF
330
1F
100
AcDbEntity
  8
0
  6
Continuous
 62
     7
370
    25
100
AcDbLine
 10
21.5963328831
 20
7.0406378112
 30
0.0
 11
21.5848490921
 21
7.0376121099
 31
0.0
  0
LINE
  5
3D0
330
1F
100
AcDbEntity
  8
0
  6
Continuous
 62
     7
370
    25
100
AcDbLine
 10
19.0275834984
 20
-23.0412988771
 30
0.0
 11
19.0376314914
 21
-23.055161229
 31
0.0
  0
LINE
  5
3D1
330
1F
100
AcDbEntity
  8
0
  6
Continuous
 62
     7
370
    25
100
AcDbLine
 10
20.4025883588
 20
-22.0057885938
 30
0.0
 11
20.3917744295
 21
-21.9925150902
 31
0.0
  0
LINE
  5
3D2
330
1F
100
AcDbEntity
  8
0
  6
Continuous
 62
     7
370
    25
100
AcDbLine
 10
0.0104266693
 20
-23.1135643283
 30
0.0
 11
0.0097973224
 21
-23.1274672542
 31
0.0
  0
LINE
  5
3D3
330
1F
100
AcDbEntity
  8
0
  6
Continuous
 62
     7
370
    25
100
AcDbLine
 10
4.3558285469
 20
-22.9423344296
 30
0.0
 11
4.3540191479
 21
-22.9285353897
 31
0.0
  0
LINE
  5
3D4
330
1F
100
AcDbEntity
  8
0
  6
Continuous
 62
     7
370
    25
100
AcDbLine
 10
4.1844690035
 20
11.1408046431
 30
0.0
 11
4.1861832072
 21
11.1461341159
 31
0.0
  0
LINE
  5
3D5
330
1F
100
AcDbEntity
  8
0
  6
Continuous
 62
     7
370
    25
100
AcDbLine
 10
-0.0601152005
 20
11.5539343541
 30
0.0
 11
-0.0594466226
 21
11.5483760471
 31
0.0
  0
LINE
  5
3D6
330
1F
100
AcDbEntity
  8
0
  6
Continuous
 62
     7
370
    25
100
AcDbLine
 10
-16.9031927244
 20
8.2543461938
 30
0.0
 11
-16.9133183628
 21
8.2580550406
 31
0.0
  0
LINE
  5
3D7
330
1F
100
AcDbEntity
  8
0
  6
Continuous
 62
     7
370
    25
100
AcDbLine
 10
-17.9361395989
 20
4.0414538473
 30
0.0
 11
-17.9254400113
 21
4.0401111176
 31
0.0
  0
LINE
  5
3D8
330
1F
100
AcDbEntity
  8
0
  6
Continuous
 62
     7
370
    25
100
AcDbLine
 10
-17.4137783181
 20
7.0318954083
 30
0.0
 11
-17.4241906289
 21
7.0349179
 31
0.0
  0
LINE
  5
3D9
330
1F
100
AcDbEntity
  8
0
  6
Continuous
 62
     7
370
    25
100
AcDbLine
 10
-17.8298152518
 20
5.3627222039
 30
0.0
 11
-17.8191753274
 21
5.3606380535
 31
0.0
  0
LINE
  5
3DA
330
1F
100
AcDbEntity
  8
0
  6
Continuous
 62
     7
370
    25
100
AcDbLine
 10
-20.5895571064
 20
1.8539019045
 30
0.0
 11
-20.6017524846
 21
1.854017169
 31
0.0
  0
LINE
  5
3DB
330
1F
100
AcDbEntity
  8
0
  6
Continuous
 62
     7
370
    25
100
AcDbLine
 10
-20.2083262509
 20
-2.4730609064
 30
0.0
 11
-20.1963516413
 21
-2.4707480604
 31
0.0
  0
LINE
  5
3DC
330
1F
100
AcDbEntity
  8
0
  6
Continuous
 62
     7
370
    25
100
AcDbLine
 10
-20.6542616791
 20
0.5314120524
 30
0.0
 11
-20.6664933861
 21
0.530784794
 31
0.0
  0
LINE
  5
3DD
330
1F
100
AcDbEntity
  8
0
  6
Continuous
 62
     7
370
    25
100
AcDbLine
 10
-20.5106543169
 20
-1.1832031457
 30
0.0
 11
-20.4985100579
 21
-1.1816140945
 31
0.0
  0
LINE
  5
3DE
330
1F
100
AcDbEntity
  8
0
  6
Continuous
 62
     7
370
    25
100
AcDbLine
 10
-6.0968356014
 20
7.4713252342
 30
0.0
 11
-6.1008939212
 21
7.4745944474
 31
0.0
  0
LINE
  5
3DF
330
1F
100
AcDbEntity
  8
0
  6
Continuous
 62
     7
370
    25
100
AcDbLine
 10
-7.9392018416
 20
3.6417454847
 30
0.0
 11
-7.9341119678
 21
3.6406270487
 31
0.0
  0
LINE
  5
3E0
330
1F
100
AcDbEntity
  8
0
  6
Continuous
 62
     7
370
    25
100
AcDbLine
 10
3.6843826974
 20
4.3189131506
 30
0.0
 11
3.6858161234
 21
4.320412416
 31
0.0
  0
LINE
  5
3E1
330
1F
100
AcDbEntity
  8
0
  6
Continuous
 62
     7
370
    25
100
AcDbLine
 10
0.0244482079
 20
5.1754571663
 30
0.0
 11
0.0250693336
 21
5.1734780983
 31
0.0
  0
LINE
  5
3E2
330
1F
100
AcDbEntity
  8
0
  6
Continuous
 62
     7
370
    25
100
AcDbLine
 10
2.8889712636
 20
5.4670282512
 30
0.0
 11
2.8899580994
 21
5.4691721353
 31
0.0
  0
LINE
  5
3E3
330
1F
100
AcDbEntity
  8
0
  6
Continuous
 62
     7
370
    25
100
AcDbLine
 10
1.246783277
 20
5.8529052204
 30
0.0
 11
1.2467184977
 21
5.8505460071
 31
0.0
  0
LINE
  5
3E4
330
1F
100
AcDbEntity
  8
0
  6
Continuous
 62
     7
370
    25
100
AcDbLine
 10
1.2481820837
 20
-0.1613289132
 30
0.0
 11
1.2482476848
 21
-0.1623451168
 31
0.0
  0
LINE
  5
3E5
330
1F
100
AcDbEntity
  8
0
  6
Continuous
 62
     7
370
    25
100
AcDbLine
 10
2.6081480241
 20
0.593970831
 30
0.0
 11
2.6073193242
 21
0.5945626331
 31
0.0
  0
LINE
  5
3E6
330
1F
100
AcDbEntity
  8
0
  6
Continuous
 62
     7
370
    25
100
AcDbLine
 10
-16.4896723984
 20
-4.3016144344
 30
0.0
 11
-16.4995658623
 21
-4.3049552355
 31
0.0
  0
LINE
  5
3E7
330
1F
100
AcDbEntity
  8
0
  6
Continuous
 62
     7
370
    25
100
AcDbLine
 10
-14.6426321212
 20
-8.2243638144
 30
0.0
 11
-14.633780663
 21
-8.2188236637
 31
0.0
  0
LINE
  5
3E8
330
1F
100
AcDbEntity
  8
0
  6
Continuous
 62
     7
370
    25
100
AcDbLine
 10
-9.0296408978
 20
-26.2665316422
 30
0.0
 11
-9.0353458654
 21
-26.2822048277
 31
0.0
  0
LINE
  5
3E9
330
1F
100
AcDbEntity
  8
0
  6
Continuous
 62
     7
370
    25
100
AcDbLine
 10
-4.8448273853
 20
-27.4680065847
 30
0.0
 11
-4.8414738987
 21
-27.4516679946
 31
0.0
  0
LINE
  5
3EA
330
1F
100
AcDbEntity
  8
0
  6
Continuous
 62
     7
370
    25
100
AcDbLine
 10
17.497102715
 20
-31.5925567783
 30
0.0
 11
17.506291407
 21
-31.6112203046
 31
0.0
  0
LINE
  5
3EB
330
1F
100
AcDbEntity
  8
0
  6
Continuous
 62
     7
370
    25
100
AcDbLine
 10
21.2972627552
 20
-29.4591206197
 30
0.0
 11
21.2859467854
 21
-29.4416647295
 31
0.0
  0
LINE
  5
3EC
330
1F
100
AcDbEntity
  8
0
  6
Continuous
 62
     7
370
    25
100
AcDbLine
 10
12.0601832699
 20
3.6815497562
 30
0.0
 11
12.0663193584
 21
3.6826911687
 31
0.0
  0
LINE
  5
3ED
330
1F
100
AcDbEntity
  8
0
  6
Continuous
 62
     7
370
    25
100
AcDbLine
 10
10.4858646255
 20
7.6655944114
 30
0.0
 11
10.4806153984
 21
7.6622180198
 31
0.0
  0
LINE
  5
3EE
330
1F
100
AcDbEntity
  8
0
  6
Continuous
 62
     7
370
    25
100
AcDbLine
 10
11.9168669273
 20
5.0050826786
 30
0.0
 11
11.9229225497
 21
5.0069671995
 31
0.0
  0
LINE
  5
3EF
330
1F
100
AcDbEntity
  8
0
  6
Continuous
 62
     7
370
    25
100
AcDbLine
 10
11.2894820397
 20
6.6033003362
 30
0.0
 11
11.2837818681
 21
6.6005200437
 31
0.0
  0
LINE
  5
3F0
330
1F
100
AcDbEntity
  8
0
  6
Continuous
 62
     7
370
    25
100
AcDbLine
 10
22.0516869569
 20
4.0372143919
 30
0.0
 11
22.0634328578
 21
4.0385554952
 31
0.0
  0
LINE
  5
3F1
330
1F
100
AcDbEntity
  8
0
  6
Continuous
 62
     7
370
    25
100
AcDbLine
 10
21.1284752084
 20
8.2802694792
 30
0.0
 11
21.1172539526
 21
8.2765481669
 31
0.0
  0
LINE
  5
3F2
330
1F
100
AcDbEntity
  8
0
  6
Continuous
 62
     7
370
    25
100
AcDbLine
 10
22.1923775392
 20
-2.5761194653
 30
0.0
 11
22.204202432
 21
-2.578491473
 31
0.0
  0
LINE
  5
3F3
330
1F
100
AcDbEntity
  8
0
  6
Continuous
 62
     7
370
    25
100
AcDbLine
 10
22.6237684425
 20
1.745637688
 30
0.0
 11
22.6117081131
 21
1.74558324
 31
0.0
  0
LINE
  5
3F4
330
1F
100
AcDbEntity
  8
0
  6
Continuous
 62
     7
370
    25
100
AcDbLine
 10
22.5043504116
 20
-1.2892649968
 30
0.0
 11
22.5163504642
 21
-1.2909144894
 31
0.0
  0
LINE
  5
3F5
330
1F
100
AcDbEntity
  8
0
  6
Continuous
 62
     7
370
    25
100
AcDbLine
 10
22.6825595565
 20
0.422068843
 30
0.0
 11
22.6704662368
 21
0.4227571066
 31
0.0
  0
LINE
  5
3F6
330
1F
100
AcDbEntity
  8
0
  6
Continuous
 62
     7
370
    25
100
AcDbLine
 10
-0.0542296585
 20
-6.8695279263
 30
0.0
 11
-0.0548953072
 21
-6.8743105037
 31
0.0
  0
LINE
  5
3F7
330
1F
100
AcDbEntity
  8
0
  6
Continuous
 62
     7
370
    25
100
AcDbLine
 10
4.1521018472
 20
-6.4088298048
 30
0.0
 11
4.150406768
 21
-6.4043084288
 31
0.0
  0
LINE
  5
3F8
330
1F
100
AcDbEntity
  8
0
  6
Continuous
 62
     7
370
    25
100
AcDbLine
 10
18.3617363857
 20
-39.4983082928
 30
0.0
 11
18.3714105334
 21
-39.5214105687
 31
0.0
  0
LINE
  5
3F9
330
1F
100
AcDbEntity
  8
0
  6
Continuous
 62
     7
370
    25
100
AcDbLine
 10
19.946713361
 20
-38.8257318944
 30
0.0
 11
19.9361552428
 21
-38.8030199939
 31
0.0
  0
LINE
  5
3FA
330
1F
100
AcDbEntity
  8
0
  6
Continuous
 62
     7
370
    25
100
AcDbLine
 10
9.3489599571
 20
-27.6031106469
 30
0.0
 11
9.353573807
 21
-27.6195342658
 31
0.0
  0
LINE
  5
3FB
330
1F
100
AcDbEntity
  8
0
  6
Continuous
 62
     7
370
    25
100
AcDbLine
 10
13.4516678833
 20
-26.1441754409
 30
0.0
 11
13.4447544158
 21
-26.1285797096
 31
0.0
  0
LINE
  5
3FC
330
1F
100
AcDbEntity
  8
0
  6
Continuous
 62
     7
370
    25
100
AcDbLine
 10
10.6320595472
 20
-27.2814749871
 30
0.0
 11
10.6373938039
 21
-27.2977180209
 31
0.0
  0
LINE
  5
3FD
330
1F
100
AcDbEntity
  8
0
  6
Continuous
 62
     7
370
    25
100
AcDbLine
 10
12.2573228868
 20
-26.7145257799
 30
0.0
 11
12.2510796179
 21
-26.6986100005
 31
0.0
  0
LINE
  5
3FE
330
1F
100
AcDbEntity
  8
0
  6
Continuous
 62
     7
370
    25
100
AcDbLine
 10
1.3296677175
 20
-31.3004064926
 30
0.0
 11
1.3297790694
 21
-31.3189059888
 31
0.0
  0
LINE
  5
3FF
330
1F
100
AcDbEntity
  8
0
  6
Continuous
 62
     7
370
    25
100
AcDbLine
 10
3.0506998749
 20
-31.2635845661
 30
0.0
 11
3.04962284
 21
-31.2451161131
 31
0.0
  0
LINE
  5
400
330
1F
100
AcDbEntity
  8
0
  6
Continuous
 62
     7
370
    25
100
AcDbLine
 10
-7.6644486141
 20
-34.8790046123
 30
0.0
 11
-7.6693870832
 21
-34.899513342
 31
0.0
  0
LINE
  5
401
330
1F
100
AcDbEntity
  8
0
  6
Continuous
 62
     7
370
    25
100
AcDbLine
 10
-5.9864997232
 20
-35.2641856392
 30
0.0
 11
-5.9825055949
 21
-35.2434722761
 31
0.0
  0
LINE
  5
402
330
1F
100
AcDbEntity
  8
0
  6
Continuous
 62
     7
370
    25
100
AcDbLine
 10
-7.8001633182
 20
-26.7547343333
 30
0.0
 11
-7.8051779854
 21
-26.7706816243
 31
0.0
  0
LINE
  5
403
330
1F
100
AcDbEntity
  8
0
  6
Continuous
 62
     7
370
    25
100
AcDbLine
 10
-6.1485489992
 20
-27.2394621754
 30
0.0
 11
-6.1444639381
 21
-27.2232518314
 31
0.0
  0
LINE
  5
404
330
1F
100
AcDbEntity
  8
0
  6
Continuous
 62
     7
370
    25
100
AcDbLine
 10
-16.9897782493
 20
-29.5322075674
 30
0.0
 11
-16.9999525019
 21
-29.5497142936
 31
0.0
  0
LINE
  5
405
330
1F
100
AcDbEntity
  8
0
  6
Continuous
 62
     7
370
    25
100
AcDbLine
 10
-13.1059342905
 20
-31.5082784291
 30
0.0
 11
-13.0979451399
 21
-31.4896726679
 31
0.0
  0
LINE
  5
406
330
1F
100
AcDbEntity
  8
0
  6
Continuous
 62
     7
370
    25
100
AcDbLine
 10
9.1540624437
 20
-35.5406710986
 30
0.0
 11
9.1585668667
 21
-35.5615513264
 31
0.0
  0
LINE
  5
407
330
1F
100
AcDbEntity
  8
0
  6
Continuous
 62
     7
370
    25
100
AcDbLine
 10
13.3605245019
 20
-34.3996844089
 30
0.0
 11
13.3536621789
 21
-34.3794561549
 31
0.0
  0
LINE
  5
408
330
1F
100
AcDbEntity
  8
0
  6
Continuous
 62
     7
370
    25
100
AcDbLine
 10
-15.8625837663
 20
-30.2237278774
 30
0.0
 11
-15.8721251462
 21
-30.2416228634
 31
0.0
  0
LINE
  5
409
330
1F
100
AcDbEntity
  8
0
  6
Continuous
 62
     7
370
    25
100
AcDbLine
 10
-14.3338337455
 20
-31.0153332581
 30
0.0
 11
-14.3251555674
 21
-30.9970041097
 31
0.0
  0
LINE
  5
40A
330
1F
100
AcDbEntity
  8
0
  6
Continuous
 62
     7
370
    25
100
AcDbLine
 10
-8.9298955016
 20
-34.4953108186
 30
0.0
 11
-8.9355444663
 21
-34.5156041202
 31
0.0
  0
LINE
  5
40B
330
1F
100
AcDbEntity
  8
0
  6
Continuous
 62
     7
370
    25
100
AcDbLine
 10
-4.6749981374
 20
-35.4388407278
 30
0.0
 11
-4.6717399493
 21
-35.4180293582
 31
0.0
  0
LINE
  5
40C
330
1F
100
AcDbEntity
  8
0
  6
Continuous
 62
     7
370
    25
100
AcDbLine
 10
0.0089979343
 20
-39.6955704851
 30
0.0
 11
0.0083677852
 21
-39.7187835155
 31
0.0
  0
LINE
  5
40D
330
1F
100
AcDbEntity
  8
0
  6
Continuous
 62
     7
370
    25
100
AcDbLine
 10
4.3676732209
 20
-39.6072801594
 30
0.0
 11
4.3658571753
 21
-39.5841296984
 31
0.0
  0
LINE
  5
40E
330
1F
100
AcDbEntity
  8
0
  6
Continuous
 62
     7
370
    25
100
AcDbLine
 10
-16.7775771967
 20
-38.272675367
 30
0.0
 11
-16.7876323072
 21
-38.2950895011
 31
0.0
  0
LINE
  5
40F
330
1F
100
AcDbEntity
  8
0
  6
Continuous
 62
     7
370
    25
100
AcDbLine
 10
-12.7243457853
 20
-39.8797982431
 30
0.0
 11
-12.7165707604
 21
-39.8564948604
 31
0.0
  0
LINE
  5
410
330
1F
100
AcDbEntity
  8
0
  6
Continuous
 62
     7
370
    25
100
AcDbLine
 10
1.3296619977
 20
-39.7589090405
 30
0.0
 11
1.3297733463
 21
-39.7821576328
 31
0.0
  0
LINE
  5
411
330
1F
100
AcDbEntity
  8
0
  6
Continuous
 62
     7
370
    25
100
AcDbLine
 10
3.0512354557
 20
-39.7381256637
 30
0.0
 11
3.0501581202
 21
-39.7149017795
 31
0.0
  0
LINE
  5
412
330
1F
100
AcDbEntity
  8
0
  6
Continuous
 62
     7
370
    25
100
AcDbLine
 10
0.0094642818
 20
-31.2207885873
 30
0.0
 11
0.0088343945
 21
-31.2392433813
 31
0.0
  0
LINE
  5
413
330
1F
100
AcDbEntity
  8
0
  6
Continuous
 62
     7
370
    25
100
AcDbLine
 10
4.3638008159
 20
-31.099246853
 30
0.0
 11
4.3619869433
 21
-31.0808706171
 31
0.0
  0
LINE
  5
414
330
1F
100
AcDbEntity
  8
0
  6
Continuous
 62
     7
370
    25
100
AcDbLine
 10
-15.5821574408
 20
-38.8374172102
 30
0.0
 11
-15.5915413729
 21
-38.8601484234
 31
0.0
  0
LINE
  5
415
330
1F
100
AcDbEntity
  8
0
  6
Continuous
 62
     7
370
    25
100
AcDbLine
 10
-13.9871755983
 20
-39.4858617357
 30
0.0
 11
-13.9786919451
 21
-39.4627794078
 31
0.0
  0
LINE
  5
416
330
1F
100
AcDbEntity
  8
0
  6
Continuous
 62
     7
370
    25
100
AcDbLine
 10
1.3296795005
 20
-23.2191088105
 30
0.0
 11
1.329790859
 21
-23.2330709953
 31
0.0
  0
LINE
  5
417
330
1F
100
AcDbEntity
  8
0
  6
Continuous
 62
     7
370
    25
100
AcDbLine
 10
3.049597605
 20
-23.1598104354
 30
0.0
 11
3.0485211886
 21
-23.1458893603
 31
0.0
  0
LINE
  5
418
330
1F
100
AcDbEntity
  8
0
  6
Continuous
 62
     7
370
    25
100
AcDbLine
 10
17.1187420751
 20
-39.9487140682
 30
0.0
 11
17.1277183333
 21
-39.9720692282
 31
0.0
  0
LINE
  5
419
330
1F
100
AcDbEntity
  8
0
  6
Continuous
 62
     7
370
    25
100
AcDbLine
 10
21.1175493063
 20
-38.2100966898
 30
0.0
 11
21.1063341815
 21
-38.1877302488
 31
0.0
  0
LINE
  5
41A
330
1F
100
AcDbEntity
  8
0
  6
Continuous
 62
     7
370
    25
100
AcDbLine
 10
10.4526092951
 20
-35.29109349
 30
0.0
 11
10.4578427979
 21
-35.3118335904
 31
0.0
  0
LINE
  5
41B
330
1F
100
AcDbEntity
  8
0
  6
Continuous
 62
     7
370
    25
100
AcDbLine
 10
12.1175230203
 20
-34.8529218851
 30
0.0
 11
12.1113581992
 21
-34.8324392999
 31
0.0
  0
LINE
  5
41C
330
1F
100
AcDbEntity
  8
0
  6
Continuous
 62
     7
370
    25
100
AcDbLine
 10
18.696698805
 20
-31.0361353287
 30
0.0
 11
18.70656102
 21
-31.0544864476
 31
0.0
  0
LINE
  5
41D
330
1F
100
AcDbEntity
  8
0
  6
Continuous
 62
     7
370
    25
100
AcDbLine
 10
20.2040234558
 20
-30.2043907492
 30
0.0
 11
20.1933209498
 21
-30.1865166557
 31
0.0
  0
LINE
  5
41E
330
1F
100
AcDbEntity
  8
0
  6
Continuous
 62
     7
370
    25
100
AcDbLine
 10
9.0806648441
 20
-45.031360806
 30
0.0
 11
9.1092133805
 21
-45.1990033472
 31
0.0
  0
LINE
  5
41F
330
1F
100
AcDbEntity
  8
0
  6
Continuous
 62
     7
370
    25
100
AcDbLine
 10
9.0806648441
 20
-43.8241373462
 30
0.0
 11
9.0806648441
 21
-45.031360806
 31
0.0
  0
LINE
  5
420
330
1F
100
AcDbEntity
  8
0
  6
Continuous
 62
     7
370
    25
100
AcDbLine
 10
9.0806648441
 20
-43.8241373462
 30
0.0
 11
9.1092133805
 21
-43.9874443659
 31
0.0
  0
LINE
  5
421
330
1F
100
AcDbEntity
  8
0
  6
Continuous
 62
     7
370
    25
100
AcDbLine
 10
9.1092133805
 20
-43.9874443659
 30
0.0
 11
9.1092133805
 21
-45.1990033472
 31
0.0
  0
LINE
  5
422
330
1F
100
AcDbEntity
  8
0
  6
Continuous
 62
     7
370
    25
100
AcDbLine
 10
27.6768240799
 20
19.1902790961
 30
0.0
 11
27.7721573105
 21
19.2532767927
 31
0.0
  0
LINE
  5
423
330
1F
100
AcDbEntity
  8
0
  6
Continuous
 62
     7
370
    25
100
AcDbLine
 10
27.6768240799
 20
18.7233191341
 30
0.0
 11
27.5937368751
 21
18.6264617664
 31
0.0
  0
LINE
  5
424
330
1F
100
AcDbEntity
  8
0
  6
Continuous
 62
     7
370
    25
100
AcDbLine
 10
27.6768240799
 20
18.7233191341
 30
0.0
 11
27.7721573105
 21
18.7846398297
 31
0.0
  0
LINE
  5
425
330
1F
100
AcDbEntity
  8
0
  6
Continuous
 62
     7
370
    25
100
AcDbLine
 10
25.1250676451
 20
33.5680034128
 30
0.0
 11
25.2112367107
 21
33.6826360686
 31
0.0
  0
LINE
  5
426
330
1F
100
AcDbEntity
  8
0
  6
Continuous
 62
     7
370
    25
100
AcDbLine
 10
25.1729305141
 20
33.2264806252
 30
0.0
 11
25.2112367107
 21
33.2767946135
 31
0.0
  0
LINE
  5
427
330
1F
100
AcDbEntity
  8
0
  6
Continuous
 62
     7
370
    25
100
AcDbLine
 10
19.01074273
 20
38.7062728115
 30
0.0
 11
19.0749533193
 21
38.8393586192
 31
0.0
  0
LINE
  5
428
330
1F
100
AcDbEntity
  8
0
  6
Continuous
 62
     7
370
    25
100
AcDbLine
 10
19.6981281228
 20
38.7062728115
 30
0.0
 11
19.7648073307
 21
38.8393586192
 31
0.0
  0
LINE
  5
429
330
1F
100
AcDbEntity
  8
0
  6
Continuous
 62
     7
370
    25
100
AcDbLine
 10
-17.4500570707
 20
47.970245538
 30
0.0
 11
-17.5167887548
 21
48.1366012042
 31
0.0
  0
LINE
  5
42A
330
1F
100
AcDbEntity
  8
0
  6
Continuous
 62
     7
370
    25
100
AcDbLine
 10
-16.8214551078
 20
47.970245538
 30
0.0
 11
-16.7542146466
 21
47.8883768339
 31
0.0
  0
LINE
  5
42B
330
1F
100
AcDbEntity
  8
0
  6
Continuous
 62
     7
370
    25
100
AcDbLine
 10
-16.8214551078
 20
47.970245538
 30
0.0
 11
-16.8859292833
 21
48.1366012042
 31
0.0
  0
LINE
  5
42C
330
1F
100
AcDbEntity
  8
0
  6
Continuous
 62
     7
370
    25
100
AcDbLine
 10
-19.0259394289
 20
47.970245538
 30
0.0
 11
-18.9721369326
 21
47.9087921095
 31
0.0
  0
LINE
  5
42D
330
1F
100
AcDbEntity
  8
0
  6
Continuous
 62
     7
370
    25
100
AcDbLine
 10
-19.6195217838
 20
47.970245538
 30
0.0
 11
-19.6940447025
 21
48.1366012042
 31
0.0
  0
LINE
  5
42E
330
1F
100
AcDbEntity
  8
0
  6
Continuous
 62
     7
370
    25
100
AcDbLine
 10
-19.0259394289
 20
47.970245538
 30
0.0
 11
-19.0983306054
 21
48.1366012042
 31
0.0
  0
LINE
  5
42F
330
1F
100
AcDbEntity
  8
0
  6
Continuous
 62
     7
370
    25
100
AcDbLine
 10
-17.830019817
 20
47.970245538
 30
0.0
 11
-17.7887893861
 21
47.9173587595
 31
0.0
  0
LINE
  5
430
330
1F
100
AcDbEntity
  8
0
  6
Continuous
 62
     7
370
    25
100
AcDbLine
 10
-17.830019817
 20
47.970245538
 30
0.0
 11
-17.8981160677
 21
48.1366012042
 31
0.0
  0
LINE
  5
431
330
1F
100
AcDbEntity
  8
0
  6
Continuous
 62
     7
370
    25
100
AcDbLine
 10
-18.507649231
 20
47.970245538
 30
0.0
 11
-18.5781790635
 21
48.1366012042
 31
0.0
  0
LINE
  5
432
330
1F
100
AcDbEntity
  8
0
  6
Continuous
 62
     7
370
    25
100
AcDbLine
 10
-15.7724457728
 20
47.970245538
 30
0.0
 11
-15.6683402664
 21
47.8535701368
 31
0.0
  0
LINE
  5
433
330
1F
100
AcDbEntity
  8
0
  6
Continuous
 62
     7
370
    25
100
AcDbLine
 10
-15.7724457728
 20
47.970245538
 30
0.0
 11
-15.8331526238
 21
48.1366012042
 31
0.0
  0
LINE
  5
434
330
1F
100
AcDbEntity
  8
0
  6
Continuous
 62
     7
370
    25
100
AcDbLine
 10
-16.3163352964
 20
47.970245538
 30
0.0
 11
-16.3789954268
 21
48.1366012042
 31
0.0
  0
LINE
  5
435
330
1F
100
AcDbEntity
  8
0
  6
Continuous
 62
     7
370
    25
100
AcDbLine
 10
17.7852702085
 20
38.6016499174
 30
0.0
 11
17.8883032909
 21
38.7062728115
 31
0.0
  0
LINE
  5
436
330
1F
100
AcDbEntity
  8
0
  6
Continuous
 62
     7
370
    25
100
AcDbLine
 10
17.8883032909
 20
38.7062728115
 30
0.0
 11
17.9484828449
 21
38.8393586192
 31
0.0
  0
LINE
  5
437
330
1F
100
AcDbEntity
  8
0
  6
Continuous
 62
     7
370
    25
100
AcDbLine
 10
18.3523609401
 20
38.7062728115
 30
0.0
 11
18.414207072
 21
38.8393586192
 31
0.0
  0
LINE
  5
438
330
1F
100
AcDbEntity
  8
0
  6
Continuous
 62
     7
370
    25
100
AcDbLine
 10
27.018875193
 20
-1.660225506
 30
0.0
 11
27.1118455209
 21
-1.6721085715
 31
0.0
  0
LINE
  5
439
330
1F
100
AcDbEntity
  8
0
  6
Continuous
 62
     7
370
    25
100
AcDbLine
 10
26.8778091596
 20
-1.5876383433
 30
0.0
 11
27.018875193
 21
-1.660225506
 31
0.0
  0
LINE
  5
43A
330
1F
100
AcDbEntity
  8
0
  6
Continuous
 62
     7
370
    25
100
AcDbLine
 10
27.018875193
 20
-2.2691038709
 30
0.0
 11
27.1118455209
 21
-2.2831736113
 31
0.0
  0
LINE
  5
43B
330
1F
100
AcDbEntity
  8
0
  6
Continuous
 62
     7
370
    25
100
AcDbLine
 10
20.061131397
 20
38.6454952443
 30
0.0
 11
20.1157800071
 21
38.7062728115
 31
0.0
  0
LINE
  5
43C
330
1F
100
AcDbEntity
  8
0
  6
Continuous
 62
     7
370
    25
100
AcDbLine
 10
20.1157800071
 20
38.7062728115
 30
0.0
 11
20.1839591351
 21
38.8393586192
 31
0.0
  0
LINE
  5
43D
330
1F
100
AcDbEntity
  8
0
  6
Continuous
 62
     7
370
    25
100
AcDbLine
 10
20.7306563923
 20
38.7062728115
 30
0.0
 11
20.8010437361
 21
38.8393586192
 31
0.0
  0
LINE
  5
43E
330
1F
100
AcDbEntity
  8
0
  6
Continuous
 62
     7
370
    25
100
AcDbLine
 10
27.018875193
 20
-3.7906674438
 30
0.0
 11
27.1118455209
 21
-3.8102016007
 31
0.0
  0
LINE
  5
43F
330
1F
100
AcDbEntity
  8
0
  6
Continuous
 62
     7
370
    25
100
AcDbLine
 10
26.902643843
 20
-3.7281163516
 30
0.0
 11
27.018875193
 21
-3.7906674438
 31
0.0
  0
LINE
  5
440
330
1F
100
AcDbEntity
  8
0
  6
Continuous
 62
     7
370
    25
100
AcDbLine
 10
27.018875193
 20
-4.4191783652
 30
0.0
 11
27.1118455209
 21
-4.4409697038
 31
0.0
  0
LINE
  5
441
330
1F
100
AcDbEntity
  8
0
  6
Continuous
 62
     7
370
    25
100
AcDbLine
 10
25.547402634
 20
36.5107248094
 30
0.0
 11
25.6350884382
 21
36.6359257092
 31
0.0
  0
LINE
  5
442
330
1F
100
AcDbEntity
  8
0
  6
Continuous
 62
     7
370
    25
100
AcDbLine
 10
25.2112367107
 20
36.0798600416
 30
0.0
 11
25.547402634
 21
36.5107248094
 31
0.0
  0
LINE
  5
443
330
1F
100
AcDbEntity
  8
0
  6
Continuous
 62
     7
370
    25
100
AcDbLine
 10
25.2112367107
 20
36.0926738105
 30
0.0
 11
25.6350884382
 21
36.6359257092
 31
0.0
  0
LINE
  5
444
330
1F
100
AcDbEntity
  8
0
  6
Continuous
 62
     7
370
    25
100
AcDbLine
 10
25.1250676451
 20
35.7639591238
 30
0.0
 11
25.2112367107
 21
35.8864781517
 31
0.0
  0
LINE
  5
445
330
1F
100
AcDbEntity
  8
0
  6
Continuous
 62
     7
370
    25
100
AcDbLine
 10
25.1403573014
 20
35.4644335601
 30
0.0
 11
25.2112367107
 21
35.5642646328
 31
0.0
  0
LINE
  5
446
330
1F
100
AcDbEntity
  8
0
  6
Continuous
 62
     7
370
    25
100
AcDbLine
 10
28.3697286727
 20
-7.388734916
 30
0.0
 11
28.0619102678
 21
-7.3632251034
 31
0.0
  0
LINE
  5
447
330
1F
100
AcDbEntity
  8
0
  6
Continuous
 62
     7
370
    25
100
AcDbLine
 10
28.3697286727
 20
-7.388734916
 30
0.0
 11
28.4675503431
 21
-7.4211908721
 31
0.0
  0
LINE
  5
448
330
1F
100
AcDbEntity
  8
0
  6
Continuous
 62
     7
370
    25
100
AcDbLine
 10
28.4675503431
 20
-7.4211908721
 30
0.0
 11
28.1044171952
 21
-7.3910969648
 31
0.0
  0
LINE
  5
449
330
1F
100
AcDbEntity
  8
0
  6
Continuous
 62
     7
370
    25
100
AcDbLine
 10
25.1250676451
 20
34.7468591014
 30
0.0
 11
25.2112367107
 21
34.8657254011
 31
0.0
  0
LINE
  5
44A
330
1F
100
AcDbEntity
  8
0
  6
Continuous
 62
     7
370
    25
100
AcDbLine
 10
27.6768240799
 20
19.8728593798
 30
0.0
 11
27.5828582481
 21
19.7433949162
 31
0.0
  0
LINE
  5
44B
330
1F
100
AcDbEntity
  8
0
  6
Continuous
 62
     7
370
    25
100
AcDbLine
 10
27.6768240799
 20
19.8728593798
 30
0.0
 11
27.7721573105
 21
19.9383084382
 31
0.0
  0
LINE
  5
44C
330
1F
100
AcDbEntity
  8
0
  6
Continuous
 62
     7
370
    25
100
AcDbLine
 10
27.6768240799
 20
20.2801668322
 30
0.0
 11
27.7721573105
 21
20.3470786607
 31
0.0
  0
LINE
  5
44D
330
1F
100
AcDbEntity
  8
0
  6
Continuous
 62
     7
370
    25
100
AcDbLine
 10
27.6621577548
 20
17.5902126899
 30
0.0
 11
27.6417185109
 21
17.567357459
 31
0.0
  0
LINE
  5
44E
330
1F
100
AcDbEntity
  8
0
  6
Continuous
 62
     7
370
    25
100
AcDbLine
 10
27.6621577548
 20
17.5902126899
 30
0.0
 11
27.757438314
 21
17.6474640416
 31
0.0
  0
LINE
  5
44F
330
1F
100
AcDbEntity
  8
0
  6
Continuous
 62
     7
370
    25
100
AcDbLine
 10
27.6621577548
 20
18.1707929092
 30
0.0
 11
27.757438314
 21
18.2301293082
 31
0.0
  0
LINE
  5
450
330
1F
100
AcDbEntity
  8
0
  6
Continuous
 62
     7
370
    25
100
AcDbLine
 10
-23.3431263087
 20
-36.9356692454
 30
0.0
 11
-23.4310218699
 21
-37.0742375956
 31
0.0
  0
LINE
  5
451
330
1F
100
AcDbEntity
  8
0
  6
Continuous
 62
     7
370
    25
100
AcDbLine
 10
-22.9765332894
 20
-36.7499629604
 30
0.0
 11
-23.3431263087
 21
-36.9356692454
 31
0.0
  0
LINE
  5
452
330
1F
100
AcDbEntity
  8
0
  6
Continuous
 62
     7
370
    25
100
AcDbLine
 10
-22.9765332894
 20
-36.7499629604
 30
0.0
 11
-23.0631122991
 21
-36.8878643805
 31
0.0
  0
LINE
  5
453
330
1F
100
AcDbEntity
  8
0
  6
Continuous
 62
     7
370
    25
100
AcDbLine
 10
-23.0631122991
 20
-36.8878643805
 30
0.0
 11
-23.4310218699
 21
-37.0742375956
 31
0.0
  0
LINE
  5
454
330
1F
100
AcDbEntity
  8
0
  6
Continuous
 62
     7
370
    25
100
AcDbLine
 10
28.4120754329
 20
-21.9117950674
 30
0.0
 11
28.0888431575
 21
-21.7264767841
 31
0.0
  0
LINE
  5
455
330
1F
100
AcDbEntity
  8
0
  6
Continuous
 62
     7
370
    25
100
AcDbLine
 10
28.4120754329
 20
-21.9117950674
 30
0.0
 11
28.5100491839
 21
-21.9964079297
 31
0.0
  0
LINE
  5
456
330
1F
100
AcDbEntity
  8
0
  6
Continuous
 62
     7
370
    25
100
AcDbLine
 10
28.5100491839
 20
-21.9964079297
 30
0.0
 11
28.1044171952
 21
-21.7638475404
 31
0.0
  0
LINE
  5
457
330
1F
100
AcDbEntity
  8
0
  6
Continuous
 62
     7
370
    25
100
AcDbLine
 10
-25.2903912363
 20
10.3402098874
 30
0.0
 11
-25.3852800423
 21
10.3714241841
 31
0.0
  0
LINE
  5
458
330
1F
100
AcDbEntity
  8
0
  6
Continuous
 62
     7
370
    25
100
AcDbLine
 10
-25.1025806255
 20
24.8384425783
 30
0.0
 11
-25.1967949442
 21
24.9217246179
 31
0.0
  0
LINE
  5
459
330
1F
100
AcDbEntity
  8
0
  6
Continuous
 62
     7
370
    25
100
AcDbLine
 10
-26.0159749085
 20
24.8628074481
 30
0.0
 11
-25.1025806255
 21
24.8384425783
 31
0.0
  0
LINE
  5
45A
330
1F
100
AcDbEntity
  8
0
  6
Continuous
 62
     7
370
    25
100
AcDbLine
 10
-26.0159749085
 20
24.8628074481
 30
0.0
 11
-26.1134695151
 21
24.9461769896
 31
0.0
  0
LINE
  5
45B
330
1F
100
AcDbEntity
  8
0
  6
Continuous
 62
     7
370
    25
100
AcDbLine
 10
-26.1134695151
 20
24.9461769896
 30
0.0
 11
-25.1967949442
 21
24.9217246179
 31
0.0
  0
LINE
  5
45C
330
1F
100
AcDbEntity
  8
0
  6
Continuous
 62
     7
370
    25
100
AcDbLine
 10
-25.247859584
 20
26.8266533108
 30
0.0
 11
-25.3425956454
 21
26.9170756445
 31
0.0
  0
LINE
  5
45D
330
1F
100
AcDbEntity
  8
0
  6
Continuous
 62
     7
370
    25
100
AcDbLine
 10
-25.247859584
 20
27.8990258527
 30
0.0
 11
-25.3425956454
 21
27.9932994156
 31
0.0
  0
LINE
  5
45E
330
1F
100
AcDbEntity
  8
0
  6
Continuous
 62
     7
370
    25
100
AcDbLine
 10
-25.247859584
 20
28.9724683077
 30
0.0
 11
-25.3425956454
 21
29.0705969422
 31
0.0
  0
LINE
  5
45F
330
1F
100
AcDbEntity
  8
0
  6
Continuous
 62
     7
370
    25
100
AcDbLine
 10
-25.247859584
 20
30.05133266
 30
0.0
 11
-25.3425956454
 21
30.153335838
 31
0.0
  0
LINE
  5
460
330
1F
100
AcDbEntity
  8
0
  6
Continuous
 62
     7
370
    25
100
AcDbLine
 10
-25.247859584
 20
31.2058994401
 30
0.0
 11
-25.3425956454
 21
31.3120490328
 31
0.0
  0
LINE
  5
461
330
1F
100
AcDbEntity
  8
0
  6
Continuous
 62
     7
370
    25
100
AcDbLine
 10
-25.5485002716
 20
31.0806092436
 30
0.0
 11
-25.247859584
 21
31.2058994401
 31
0.0
  0
LINE
  5
462
330
1F
100
AcDbEntity
  8
0
  6
Continuous
 62
     7
370
    25
100
AcDbLine
 10
-25.5485002716
 20
31.0806092436
 30
0.0
 11
-25.6443160288
 21
31.1863088796
 31
0.0
  0
LINE
  5
463
330
1F
100
AcDbEntity
  8
0
  6
Continuous
 62
     7
370
    25
100
AcDbLine
 10
-25.6443160288
 20
31.1863088796
 30
0.0
 11
-25.3425956454
 21
31.3120490328
 31
0.0
  0
LINE
  5
464
330
1F
100
AcDbEntity
  8
0
  6
Continuous
 62
     7
370
    25
100
AcDbLine
 10
-25.9180098432
 20
31.6518205152
 30
0.0
 11
-25.7883434603
 21
31.5319105886
 31
0.0
  0
LINE
  5
465
330
1F
100
AcDbEntity
  8
0
  6
Continuous
 62
     7
370
    25
100
AcDbLine
 10
-25.9180098432
 20
31.6518205152
 30
0.0
 11
-26.0151526263
 21
31.7595715516
 31
0.0
  0
LINE
  5
466
330
1F
100
AcDbEntity
  8
0
  6
Continuous
 62
     7
370
    25
100
AcDbLine
 10
-26.0151526263
 20
31.7595715516
 30
0.0
 11
-25.8004926157
 21
31.5610631524
 31
0.0
  0
LINE
  5
467
330
1F
100
AcDbEntity
  8
0
  6
Continuous
 62
     7
370
    25
100
AcDbLine
 10
-26.130208285
 20
31.7579649002
 30
0.0
 11
-25.9180098432
 21
31.6518205152
 31
0.0
  0
LINE
  5
468
330
1F
100
AcDbEntity
  8
0
  6
Continuous
 62
     7
370
    25
100
AcDbLine
 10
-26.130208285
 20
31.7579649002
 30
0.0
 11
-26.2281131399
 21
31.8660971347
 31
0.0
  0
LINE
  5
469
330
1F
100
AcDbEntity
  8
0
  6
Continuous
 62
     7
370
    25
100
AcDbLine
 10
-26.2281131399
 20
31.8660971347
 30
0.0
 11
-26.0151526263
 21
31.7595715516
 31
0.0
  0
LINE
  5
46A
330
1F
100
AcDbEntity
  8
0
  6
Continuous
 62
     7
370
    25
100
AcDbLine
 10
-25.6263091288
 20
35.4132306124
 30
0.0
 11
-25.7224043222
 21
35.5344900632
 31
0.0
  0
LINE
  5
46B
330
1F
100
AcDbEntity
  8
0
  6
Continuous
 62
     7
370
    25
100
AcDbLine
 10
-26.1503338596
 20
35.5176367555
 30
0.0
 11
-25.6263091288
 21
35.4132306124
 31
0.0
  0
LINE
  5
46C
330
1F
100
AcDbEntity
  8
0
  6
Continuous
 62
     7
370
    25
100
AcDbLine
 10
-26.1503338596
 20
35.5176367555
 30
0.0
 11
-26.2483109917
 21
35.6392711617
 31
0.0
  0
LINE
  5
46D
330
1F
100
AcDbEntity
  8
0
  6
Continuous
 62
     7
370
    25
100
AcDbLine
 10
-26.2483109917
 20
35.6392711617
 30
0.0
 11
-25.7224043222
 21
35.5344900632
 31
0.0
  0
LINE
  5
46E
330
1F
100
AcDbEntity
  8
0
  6
Continuous
 62
     7
370
    25
100
AcDbLine
 10
-26.1661117679
 20
35.5322274904
 30
0.0
 11
-26.1503338596
 21
35.5176367555
 31
0.0
  0
LINE
  5
46F
330
1F
100
AcDbEntity
  8
0
  6
Continuous
 62
     7
370
    25
100
AcDbLine
 10
-26.1661117679
 20
35.5322274904
 30
0.0
 11
-26.2641455635
 21
35.6539142967
 31
0.0
  0
LINE
  5
470
330
1F
100
AcDbEntity
  8
0
  6
Continuous
 62
     7
370
    25
100
AcDbLine
 10
-26.2641455635
 20
35.6539142967
 30
0.0
 11
-26.2483109917
 21
35.6392711617
 31
0.0
  0
LINE
  5
471
330
1F
100
AcDbEntity
  8
0
  6
Continuous
 62
     7
370
    25
100
AcDbLine
 10
29.2407026813
 20
15.518641629
 30
0.0
 11
29.2407026813
 21
16.3008196429
 31
0.0
  0
LINE
  5
472
330
1F
100
AcDbEntity
  8
0
  6
Continuous
 62
     7
370
    25
100
AcDbLine
 10
29.1593956163
 20
15.518641629
 30
0.0
 11
29.2407026813
 21
15.518641629
 31
0.0
  0
LINE
  5
473
330
1F
100
AcDbEntity
  8
0
  6
Continuous
 62
     7
370
    25
100
AcDbLine
 10
29.0966863359
 20
14.4626531412
 30
0.0
 11
29.1593956163
 21
15.518641629
 31
0.0
  0
LINE
  5
474
330
1F
100
AcDbEntity
  8
0
  6
Continuous
 62
     7
370
    25
100
AcDbLine
 10
28.9160350448
 20
12.8881718371
 30
0.0
 11
28.9642240818
 21
13.4696528835
 31
0.0
  0
LINE
  5
475
330
1F
100
AcDbEntity
  8
0
  6
Continuous
 62
     7
370
    25
100
AcDbLine
 10
28.8322076393
 20
12.4674338201
 30
0.0
 11
28.9160350448
 21
12.8881718371
 31
0.0
  0
LINE
  5
476
330
1F
100
AcDbEntity
  8
0
  6
Continuous
 62
     7
370
    25
100
AcDbLine
 10
26.7740324651
 20
12.4674338201
 30
0.0
 11
28.8322076393
 21
12.4674338201
 31
0.0
  0
LINE
  5
477
330
1F
100
AcDbEntity
  8
0
  6
Continuous
 62
     7
370
    25
100
AcDbLine
 10
26.5119193926
 20
12.0676893906
 30
0.0
 11
26.7740324651
 21
12.4674338201
 31
0.0
  0
LINE
  5
478
330
1F
100
AcDbEntity
  8
0
  6
Continuous
 62
     7
370
    25
100
AcDbLine
 10
26.3603323542
 20
11.7297365591
 30
0.0
 11
26.5119193926
 21
12.0676893906
 31
0.0
  0
LINE
  5
479
330
1F
100
AcDbEntity
  8
0
  6
Continuous
 62
     7
370
    25
100
AcDbLine
 10
26.3478012359
 20
11.5785277315
 30
0.0
 11
26.3603323542
 21
11.7297365591
 31
0.0
  0
LINE
  5
47A
330
1F
100
AcDbEntity
  8
0
  6
Continuous
 62
     7
370
    25
100
AcDbLine
 10
26.1478402653
 20
2.356783088
 30
0.0
 11
26.3478012359
 21
11.5785277315
 31
0.0
  0
LINE
  5
47B
330
1F
100
AcDbEntity
  8
0
  6
Continuous
 62
     7
370
    25
100
AcDbLine
 10
26.6429759291
 20
1.4827662962
 30
0.0
 11
26.1478402653
 21
1.9406465868
 31
0.0
  0
LINE
  5
47C
330
1F
100
AcDbEntity
  8
0
  6
Continuous
 62
     7
370
    25
100
AcDbLine
 10
26.8570874343
 20
1.4401069423
 30
0.0
 11
26.6429759291
 21
1.4827662962
 31
0.0
  0
LINE
  5
47D
330
1F
100
AcDbEntity
  8
0
  6
Continuous
 62
     7
370
    25
100
AcDbLine
 10
27.3666036075
 20
1.3978818451
 30
0.0
 11
26.8570874343
 21
1.4401069423
 31
0.0
  0
LINE
  5
47E
330
1F
100
AcDbEntity
  8
0
  6
Continuous
 62
     7
370
    25
100
AcDbLine
 10
27.7331660052
 20
0.1265389207
 30
0.0
 11
27.7331660052
 21
1.3248483337
 31
0.0
  0
LINE
  5
47F
330
1F
100
AcDbEntity
  8
0
  6
Continuous
 62
     7
370
    25
100
AcDbLine
 10
27.5048060599
 20
-0.070681032
 30
0.0
 11
27.7331660052
 21
0.1265389207
 31
0.0
  0
LINE
  5
480
330
1F
100
AcDbEntity
  8
0
  6
Continuous
 62
     7
370
    25
100
AcDbLine
 10
27.3948591146
 20
-0.2383593493
 30
0.0
 11
27.5048060599
 21
-0.070681032
 31
0.0
  0
LINE
  5
481
330
1F
100
AcDbEntity
  8
0
  6
Continuous
 62
     7
370
    25
100
AcDbLine
 10
27.1118455209
 20
-0.3563035605
 30
0.0
 11
27.3948591146
 21
-0.2383593493
 31
0.0
  0
LINE
  5
482
330
1F
100
AcDbEntity
  8
0
  6
Continuous
 62
     7
370
    25
100
AcDbLine
 10
27.1118455209
 20
-0.5509809777
 30
0.0
 11
27.1118455209
 21
-0.3563035605
 31
0.0
  0
LINE
  5
483
330
1F
100
AcDbEntity
  8
0
  6
Continuous
 62
     7
370
    25
100
AcDbLine
 10
27.1118455209
 20
-1.6721085715
 30
0.0
 11
27.1118455209
 21
-1.2125472605
 31
0.0
  0
LINE
  5
484
330
1F
100
AcDbEntity
  8
0
  6
Continuous
 62
     7
370
    25
100
AcDbLine
 10
27.1118455209
 20
-2.7073840522
 30
0.0
 11
27.1118455209
 21
-2.2831736113
 31
0.0
  0
LINE
  5
485
330
1F
100
AcDbEntity
  8
0
  6
Continuous
 62
     7
370
    25
100
AcDbLine
 10
27.1118455209
 20
-3.8102016007
 30
0.0
 11
27.1118455209
 21
-3.283098222
 31
0.0
  0
LINE
  5
486
330
1F
100
AcDbEntity
  8
0
  6
Continuous
 62
     7
370
    25
100
AcDbLine
 10
27.1118455209
 20
-4.6202345256
 30
0.0
 11
27.1118455209
 21
-4.4409697038
 31
0.0
  0
LINE
  5
487
330
1F
100
AcDbEntity
  8
0
  6
Continuous
 62
     7
370
    25
100
AcDbLine
 10
27.6189860325
 20
-5.2074498549
 30
0.0
 11
27.1118455209
 21
-4.6202345256
 31
0.0
  0
LINE
  5
488
330
1F
100
AcDbEntity
  8
0
  6
Continuous
 62
     7
370
    25
100
AcDbLine
 10
27.672391186
 20
-6.8009039141
 30
0.0
 11
27.6189860325
 21
-5.2074498549
 31
0.0
  0
LINE
  5
489
330
1F
100
AcDbEntity
  8
0
  6
Continuous
 62
     7
370
    25
100
AcDbLine
 10
27.8031200523
 20
-7.1935359383
 30
0.0
 11
27.672391186
 21
-6.8009039141
 31
0.0
  0
LINE
  5
48A
330
1F
100
AcDbEntity
  8
0
  6
Continuous
 62
     7
370
    25
100
AcDbLine
 10
28.1044171952
 20
-7.3910969648
 30
0.0
 11
27.8031200523
 21
-7.1935359383
 31
0.0
  0
LINE
  5
48B
330
1F
100
AcDbEntity
  8
0
  6
Continuous
 62
     7
370
    25
100
AcDbLine
 10
29.0304552091
 20
-7.4211908721
 30
0.0
 11
28.4675503431
 21
-7.4211908721
 31
0.0
  0
LINE
  5
48C
330
1F
100
AcDbEntity
  8
0
  6
Continuous
 62
     7
370
    25
100
AcDbLine
 10
29.0304552091
 20
-12.545723085
 30
0.0
 11
29.0304552091
 21
-7.4211908721
 31
0.0
  0
LINE
  5
48D
330
1F
100
AcDbEntity
  8
0
  6
Continuous
 62
     7
370
    25
100
AcDbLine
 10
28.6031416454
 20
-13.080421659
 30
0.0
 11
29.0304552091
 21
-12.545723085
 31
0.0
  0
LINE
  5
48E
330
1F
100
AcDbEntity
  8
0
  6
Continuous
 62
     7
370
    25
100
AcDbLine
 10
28.6031416454
 20
-13.1698826047
 30
0.0
 11
28.6031416454
 21
-13.080421659
 31
0.0
  0
LINE
  5
48F
330
1F
100
AcDbEntity
  8
0
  6
Continuous
 62
     7
370
    25
100
AcDbLine
 10
28.6031416454
 20
-15.3782949004
 30
0.0
 11
28.6031416454
 21
-14.9077740676
 31
0.0
  0
LINE
  5
490
330
1F
100
AcDbEntity
  8
0
  6
Continuous
 62
     7
370
    25
100
AcDbLine
 10
28.6031416454
 20
-16.611514825
 30
0.0
 11
28.6031416454
 21
-15.9436788043
 31
0.0
  0
LINE
  5
491
330
1F
100
AcDbEntity
  8
0
  6
Continuous
 62
     7
370
    25
100
AcDbLine
 10
28.6031416454
 20
-17.7751320703
 30
0.0
 11
28.7624278633
 21
-17.6375667003
 31
0.0
  0
LINE
  5
492
330
1F
100
AcDbEntity
  8
0
  6
Continuous
 62
     7
370
    25
100
AcDbLine
 10
28.2859837692
 20
-17.8807314281
 30
0.0
 11
28.6031416454
 21
-17.7751320703
 31
0.0
  0
LINE
  5
493
330
1F
100
AcDbEntity
  8
0
  6
Continuous
 62
     7
370
    25
100
AcDbLine
 10
28.0414291912
 20
-18.1867432079
 30
0.0
 11
28.2859837692
 21
-17.8807314281
 31
0.0
  0
LINE
  5
494
330
1F
100
AcDbEntity
  8
0
  6
Continuous
 62
     7
370
    25
100
AcDbLine
 10
27.9993785045
 20
-18.3977997521
 30
0.0
 11
28.0414291912
 21
-18.1867432079
 31
0.0
  0
LINE
  5
495
330
1F
100
AcDbEntity
  8
0
  6
Continuous
 62
     7
370
    25
100
AcDbLine
 10
27.8489832077
 20
-20.2125696678
 30
0.0
 11
27.9993785045
 21
-18.3977997521
 31
0.0
  0
LINE
  5
496
330
1F
100
AcDbEntity
  8
0
  6
Continuous
 62
     7
370
    25
100
AcDbLine
 10
27.8489832077
 20
-21.1509196992
 30
0.0
 11
27.8489832077
 21
-20.2125696678
 31
0.0
  0
LINE
  5
497
330
1F
100
AcDbEntity
  8
0
  6
Continuous
 62
     7
370
    25
100
AcDbLine
 10
28.1044171952
 20
-21.7638475404
 30
0.0
 11
27.8489832077
 21
-21.1509196992
 31
0.0
  0
LINE
  5
498
330
1F
100
AcDbEntity
  8
0
  6
Continuous
 62
     7
370
    25
100
AcDbLine
 10
28.9160350449
 20
-22.0300531668
 30
0.0
 11
28.5100491839
 21
-21.9964079297
 31
0.0
  0
LINE
  5
499
330
1F
100
AcDbEntity
  8
0
  6
Continuous
 62
     7
370
    25
100
AcDbLine
 10
28.9160350449
 20
-29.9760019802
 30
0.0
 11
28.9160350449
 21
-22.0300531668
 31
0.0
  0
LINE
  5
49A
330
1F
100
AcDbEntity
  8
0
  6
Continuous
 62
     7
370
    25
100
AcDbLine
 10
28.6452312063
 20
-30.0888578495
 30
0.0
 11
28.9160350449
 21
-29.9760019802
 31
0.0
  0
LINE
  5
49B
330
1F
100
AcDbEntity
  8
0
  6
Continuous
 62
     7
370
    25
100
AcDbLine
 10
28.1044171952
 20
-30.1724748669
 30
0.0
 11
28.6452312063
 21
-30.0888578495
 31
0.0
  0
LINE
  5
49C
330
1F
100
AcDbEntity
  8
0
  6
Continuous
 62
     7
370
    25
100
AcDbLine
 10
26.8570874342
 20
-30.1724748669
 30
0.0
 11
28.1044171952
 21
-30.1724748669
 31
0.0
  0
LINE
  5
49D
330
1F
100
AcDbEntity
  8
0
  6
Continuous
 62
     7
370
    25
100
AcDbLine
 10
26.3375494204
 20
-30.6076573048
 30
0.0
 11
26.5022765252
 21
-30.320340177
 31
0.0
  0
LINE
  5
49E
330
1F
100
AcDbEntity
  8
0
  6
Continuous
 62
     7
370
    25
100
AcDbLine
 10
26.2905680548
 20
-30.8434614131
 30
0.0
 11
26.3375494204
 21
-30.6076573048
 31
0.0
  0
LINE
  5
49F
330
1F
100
AcDbEntity
  8
0
  6
Continuous
 62
     7
370
    25
100
AcDbLine
 10
26.2547086933
 20
-35.6394240437
 30
0.0
 11
26.2905680548
 21
-30.8434614131
 31
0.0
  0
LINE
  5
4A0
330
1F
100
AcDbEntity
  8
0
  6
Continuous
 62
     7
370
    25
100
AcDbLine
 10
26.5405030051
 20
-36.3212147147
 30
0.0
 11
26.3375494204
 21
-36.0305186965
 31
0.0
  0
LINE
  5
4A1
330
1F
100
AcDbEntity
  8
0
  6
Continuous
 62
     7
370
    25
100
AcDbLine
 10
26.8333405188
 20
-36.6602897306
 30
0.0
 11
26.5405030051
 21
-36.3212147147
 31
0.0
  0
LINE
  5
4A2
330
1F
100
AcDbEntity
  8
0
  6
Continuous
 62
     7
370
    25
100
AcDbLine
 10
27.2302763773
 20
-36.8878643804
 30
0.0
 11
26.8333405188
 21
-36.6602897306
 31
0.0
  0
LINE
  5
4A3
330
1F
100
AcDbEntity
  8
0
  6
Continuous
 62
     7
370
    25
100
AcDbLine
 10
27.9993785043
 20
-37.3102848114
 30
0.0
 11
27.2302763773
 21
-36.8878643804
 31
0.0
  0
LINE
  5
4A4
330
1F
100
AcDbEntity
  8
0
  6
Continuous
 62
     7
370
    25
100
AcDbLine
 10
28.0813905734
 20
-37.6974673342
 30
0.0
 11
27.9993785043
 21
-37.3102848114
 31
0.0
  0
LINE
  5
4A5
330
1F
100
AcDbEntity
  8
0
  6
Continuous
 62
     7
370
    25
100
AcDbLine
 10
28.0433128093
 20
-42.7901272695
 30
0.0
 11
28.0813905734
 21
-37.6974673342
 31
0.0
  0
LINE
  5
4A6
330
1F
100
AcDbEntity
  8
0
  6
Continuous
 62
     7
370
    25
100
AcDbLine
 10
27.9241808557
 20
-42.8733009475
 30
0.0
 11
28.0433128093
 21
-42.7901272695
 31
0.0
  0
LINE
  5
4A7
330
1F
100
AcDbEntity
  8
0
  6
Continuous
 62
     7
370
    25
100
AcDbLine
 10
23.273229441
 20
-43.0183779252
 30
0.0
 11
23.44121331
 21
-42.8733009475
 31
0.0
  0
LINE
  5
4A8
330
1F
100
AcDbEntity
  8
0
  6
Continuous
 62
     7
370
    25
100
AcDbLine
 10
23.2331600388
 20
-43.2194902077
 30
0.0
 11
23.273229441
 21
-43.0183779252
 31
0.0
  0
LINE
  5
4A9
330
1F
100
AcDbEntity
  8
0
  6
Continuous
 62
     7
370
    25
100
AcDbLine
 10
23.2127120431
 20
-44.1625052069
 30
0.0
 11
23.2331600388
 21
-43.2194902077
 31
0.0
  0
LINE
  5
4AA
330
1F
100
AcDbEntity
  8
0
  6
Continuous
 62
     7
370
    25
100
AcDbLine
 10
12.2397516877
 20
-45.1990033472
 30
0.0
 11
23.2127120431
 21
-44.1625052069
 31
0.0
  0
LINE
  5
4AB
330
1F
100
AcDbEntity
  8
0
  6
Continuous
 62
     7
370
    25
100
AcDbLine
 10
9.1092133805
 20
-45.1990033472
 30
0.0
 11
12.2397516877
 21
-45.1990033472
 31
0.0
  0
LINE
  5
4AC
330
1F
100
AcDbEntity
  8
0
  6
Continuous
 62
     7
370
    25
100
AcDbLine
 10
7.2552842011
 20
-45.1990033472
 30
0.0
 11
7.2552842011
 21
-43.9874443659
 31
0.0
  0
LINE
  5
4AD
330
1F
100
AcDbEntity
  8
0
  6
Continuous
 62
     7
370
    25
100
AcDbLine
 10
6.2347718522
 20
-45.1990033472
 30
0.0
 11
7.2552842011
 21
-45.1990033472
 31
0.0
  0
LINE
  5
4AE
330
1F
100
AcDbEntity
  8
0
  6
Continuous
 62
     7
370
    25
100
AcDbLine
 10
5.7048925341
 20
-44.7621674524
 30
0.0
 11
5.9540059955
 21
-44.8739060394
 31
0.0
  0
LINE
  5
4AF
330
1F
100
AcDbEntity
  8
0
  6
Continuous
 62
     7
370
    25
100
AcDbLine
 10
5.7048925341
 20
-44.4542687821
 30
0.0
 11
5.7048925341
 21
-44.7621674524
 31
0.0
  0
LINE
  5
4B0
330
1F
100
AcDbEntity
  8
0
  6
Continuous
 62
     7
370
    25
100
AcDbLine
 10
4.5302376936
 20
-44.4542687821
 30
0.0
 11
4.8206336784
 21
-44.4542687821
 31
0.0
  0
LINE
  5
4B1
330
1F
100
AcDbEntity
  8
0
  6
Continuous
 62
     7
370
    25
100
AcDbLine
 10
3.3994533286
 20
-44.4542687821
 30
0.0
 11
3.7382486442
 21
-44.4542687821
 31
0.0
  0
LINE
  5
4B2
330
1F
100
AcDbEntity
  8
0
  6
Continuous
 62
     7
370
    25
100
AcDbLine
 10
1.2742827126
 20
-44.4542687821
 30
0.0
 11
1.5118794274
 21
-44.4542687821
 31
0.0
  0
LINE
  5
4B3
330
1F
100
AcDbEntity
  8
0
  6
Continuous
 62
     7
370
    25
100
AcDbLine
 10
0.3476915546
 20
-44.7621674524
 30
0.0
 11
0.3476915546
 21
-44.4542687821
 31
0.0
  0
LINE
  5
4B4
330
1F
100
AcDbEntity
  8
0
  6
Continuous
 62
     7
370
    25
100
AcDbLine
 10
-0.2652844082
 20
-45.2915557839
 30
0.0
 11
0.3476915546
 21
-44.7621674524
 31
0.0
  0
LINE
  5
4B5
330
1F
100
AcDbEntity
  8
0
  6
Continuous
 62
     7
370
    25
100
AcDbLine
 10
-1.5446692207
 20
-44.6082181173
 30
0.0
 11
-1.5446692207
 21
-45.2915557839
 31
0.0
  0
LINE
  5
4B6
330
1F
100
AcDbEntity
  8
0
  6
Continuous
 62
     7
370
    25
100
AcDbLine
 10
-2.7271147702
 20
-45.2915557839
 30
0.0
 11
-2.7271147702
 21
-44.6082181173
 31
0.0
  0
LINE
  5
4B7
330
1F
100
AcDbEntity
  8
0
  6
Continuous
 62
     7
370
    25
100
AcDbLine
 10
-9.2924939229
 20
-45.1311133172
 30
0.0
 11
-7.3564881585
 21
-45.2915557839
 31
0.0
  0
LINE
  5
4B8
330
1F
100
AcDbEntity
  8
0
  6
Continuous
 62
     7
370
    25
100
AcDbLine
 10
-16.2646756024
 20
-44.3515406161
 30
0.0
 11
-9.2924939229
 21
-45.1311133172
 31
0.0
  0
LINE
  5
4B9
330
1F
100
AcDbEntity
  8
0
  6
Continuous
 62
     7
370
    25
100
AcDbLine
 10
-18.1514920488
 20
-44.1951746122
 30
0.0
 11
-16.2646756024
 21
-44.3515406161
 31
0.0
  0
LINE
  5
4BA
330
1F
100
AcDbEntity
  8
0
  6
Continuous
 62
     7
370
    25
100
AcDbLine
 10
-18.7736573887
 20
-44.1256091395
 30
0.0
 11
-18.1514920488
 21
-44.1951746122
 31
0.0
  0
LINE
  5
4BB
330
1F
100
AcDbEntity
  8
0
  6
Continuous
 62
     7
370
    25
100
AcDbLine
 10
-18.8772098888
 20
-43.0732741207
 30
0.0
 11
-18.8029550384
 21
-43.2514527006
 31
0.0
  0
LINE
  5
4BC
330
1F
100
AcDbEntity
  8
0
  6
Continuous
 62
     7
370
    25
100
AcDbLine
 10
-19.0074949155
 20
-42.9691546003
 30
0.0
 11
-18.8772098888
 21
-43.0732741207
 31
0.0
  0
LINE
  5
4BD
330
1F
100
AcDbEntity
  8
0
  6
Continuous
 62
     7
370
    25
100
AcDbLine
 10
-23.70110791
 20
-42.9143430193
 30
0.0
 11
-19.2825996473
 21
-42.9143430193
 31
0.0
  0
LINE
  5
4BE
330
1F
100
AcDbEntity
  8
0
  6
Continuous
 62
     7
370
    25
100
AcDbLine
 10
-23.70110791
 20
-37.4861414696
 30
0.0
 11
-23.70110791
 21
-42.9143430193
 31
0.0
  0
LINE
  5
4BF
330
1F
100
AcDbEntity
  8
0
  6
Continuous
 62
     7
370
    25
100
AcDbLine
 10
-23.4310218699
 20
-37.0742375956
 30
0.0
 11
-23.70110791
 21
-37.4861414696
 31
0.0
  0
LINE
  5
4C0
330
1F
100
AcDbEntity
  8
0
  6
Continuous
 62
     7
370
    25
100
AcDbLine
 10
-22.7900733818
 20
-36.7740770556
 30
0.0
 11
-23.0631122991
 21
-36.8878643805
 31
0.0
  0
LINE
  5
4C1
330
1F
100
AcDbEntity
  8
0
  6
Continuous
 62
     7
370
    25
100
AcDbLine
 10
-22.3998138523
 20
-36.4111405388
 30
0.0
 11
-22.7900733818
 21
-36.7740770556
 31
0.0
  0
LINE
  5
4C2
330
1F
100
AcDbEntity
  8
0
  6
Continuous
 62
     7
370
    25
100
AcDbLine
 10
-22.0772330403
 20
-36.0623129789
 30
0.0
 11
-22.3998138523
 21
-36.4111405388
 31
0.0
  0
LINE
  5
4C3
330
1F
100
AcDbEntity
  8
0
  6
Continuous
 62
     7
370
    25
100
AcDbLine
 10
-21.8988121103
 20
-35.6645358398
 30
0.0
 11
-22.0772330403
 21
-36.0623129789
 31
0.0
  0
LINE
  5
4C4
330
1F
100
AcDbEntity
  8
0
  6
Continuous
 62
     7
370
    25
100
AcDbLine
 10
-21.8614481581
 20
-30.6673437364
 30
0.0
 11
-21.8988121103
 21
-35.6645358398
 31
0.0
  0
LINE
  5
4C5
330
1F
100
AcDbEntity
  8
0
  6
Continuous
 62
     7
370
    25
100
AcDbLine
 10
-21.92981514
 20
-30.5032934193
 30
0.0
 11
-21.8614481581
 21
-30.6673437364
 31
0.0
  0
LINE
  5
4C6
330
1F
100
AcDbEntity
  8
0
  6
Continuous
 62
     7
370
    25
100
AcDbLine
 10
-22.0772330402
 20
-30.3325990086
 30
0.0
 11
-21.92981514
 21
-30.5032934193
 31
0.0
  0
LINE
  5
4C7
330
1F
100
AcDbEntity
  8
0
  6
Continuous
 62
     7
370
    25
100
AcDbLine
 10
-22.3094277841
 20
-30.1306663583
 30
0.0
 11
-22.2075795747
 21
-30.2120601069
 31
0.0
  0
LINE
  5
4C8
330
1F
100
AcDbEntity
  8
0
  6
Continuous
 62
     7
370
    25
100
AcDbLine
 10
-22.45734491
 20
-30.0643188774
 30
0.0
 11
-22.3094277841
 21
-30.1306663583
 31
0.0
  0
LINE
  5
4C9
330
1F
100
AcDbEntity
  8
0
  6
Continuous
 62
     7
370
    25
100
AcDbLine
 10
-24.593805774
 20
-30.0643188774
 30
0.0
 11
-22.45734491
 21
-30.0643188774
 31
0.0
  0
LINE
  5
4CA
330
1F
100
AcDbEntity
  8
0
  6
Continuous
 62
     7
370
    25
100
AcDbLine
 10
-24.593805774
 20
-29.0432085796
 30
0.0
 11
-24.593805774
 21
-30.0643188774
 31
0.0
  0
LINE
  5
4CB
330
1F
100
AcDbEntity
  8
0
  6
Continuous
 62
     7
370
    25
100
AcDbLine
 10
-24.3032654387
 20
-28.7922873809
 30
0.0
 11
-24.593805774
 21
-29.0432085796
 31
0.0
  0
LINE
  5
4CC
330
1F
100
AcDbEntity
  8
0
  6
Continuous
 62
     7
370
    25
100
AcDbLine
 10
-23.9652985614
 20
-28.5444469042
 30
0.0
 11
-24.1166227345
 21
-28.5587408795
 31
0.0
  0
LINE
  5
4CD
330
1F
100
AcDbEntity
  8
0
  6
Continuous
 62
     7
370
    25
100
AcDbLine
 10
-23.752409881
 20
-28.5444469042
 30
0.0
 11
-23.9652985614
 21
-28.5444469042
 31
0.0
  0
LINE
  5
4CE
330
1F
100
AcDbEntity
  8
0
  6
Continuous
 62
     7
370
    25
100
AcDbLine
 10
-23.9106876917
 20
-26.2750461015
 30
0.0
 11
-23.8885877534
 21
-26.5919169086
 31
0.0
  0
LINE
  5
4CF
330
1F
100
AcDbEntity
  8
0
  6
Continuous
 62
     7
370
    25
100
AcDbLine
 10
-23.9848605964
 20
-25.2115486422
 30
0.0
 11
-23.9620767427
 21
-25.5382254865
 31
0.0
  0
LINE
  5
4D0
330
1F
100
AcDbEntity
  8
0
  6
Continuous
 62
     7
370
    25
100
AcDbLine
 10
-24.4485356063
 20
-23.4606545143
 30
0.0
 11
-24.1166227345
 21
-23.3223318233
 31
0.0
  0
LINE
  5
4D1
330
1F
100
AcDbEntity
  8
0
  6
Continuous
 62
     7
370
    25
100
AcDbLine
 10
-24.9931145388
 20
-22.8300894345
 30
0.0
 11
-24.4485356063
 21
-23.4606545143
 31
0.0
  0
LINE
  5
4D2
330
1F
100
AcDbEntity
  8
0
  6
Continuous
 62
     7
370
    25
100
AcDbLine
 10
-24.9931145388
 20
-21.902481151
 30
0.0
 11
-24.9931145388
 21
-22.8300894345
 31
0.0
  0
LINE
  5
4D3
330
1F
100
AcDbEntity
  8
0
  6
Continuous
 62
     7
370
    25
100
AcDbLine
 10
-24.6335435338
 20
-21.902481151
 30
0.0
 11
-24.9931145388
 21
-21.902481151
 31
0.0
  0
LINE
  5
4D4
330
1F
100
AcDbEntity
  8
0
  6
Continuous
 62
     7
370
    25
100
AcDbLine
 10
-24.3446952742
 20
-21.7821053778
 30
0.0
 11
-24.6335435338
 21
-21.902481151
 31
0.0
  0
LINE
  5
4D5
330
1F
100
AcDbEntity
  8
0
  6
Continuous
 62
     7
370
    25
100
AcDbLine
 10
-24.1722048003
 20
-21.595580238
 30
0.0
 11
-24.3446952742
 21
-21.7821053778
 31
0.0
  0
LINE
  5
4D6
330
1F
100
AcDbEntity
  8
0
  6
Continuous
 62
     7
370
    25
100
AcDbLine
 10
-23.9965801999
 20
-21.2157860639
 30
0.0
 11
-24.0153502181
 21
-21.3099946366
 31
0.0
  0
LINE
  5
4D7
330
1F
100
AcDbEntity
  8
0
  6
Continuous
 62
     7
370
    25
100
AcDbLine
 10
-23.9965801999
 20
-18.4208290257
 30
0.0
 11
-23.9965801999
 21
-21.2157860639
 31
0.0
  0
LINE
  5
4D8
330
1F
100
AcDbEntity
  8
0
  6
Continuous
 62
     7
370
    25
100
AcDbLine
 10
-24.04945611
 20
-18.2620211344
 30
0.0
 11
-23.9965801999
 21
-18.4208290257
 31
0.0
  0
LINE
  5
4D9
330
1F
100
AcDbEntity
  8
0
  6
Continuous
 62
     7
370
    25
100
AcDbLine
 10
-24.3316522801
 20
-17.9156577831
 30
0.0
 11
-24.1825430652
 21
-18.0535476093
 31
0.0
  0
LINE
  5
4DA
330
1F
100
AcDbEntity
  8
0
  6
Continuous
 62
     7
370
    25
100
AcDbLine
 10
-24.4614421665
 20
-17.844372192
 30
0.0
 11
-24.3316522801
 21
-17.9156577831
 31
0.0
  0
LINE
  5
4DB
330
1F
100
AcDbEntity
  8
0
  6
Continuous
 62
     7
370
    25
100
AcDbLine
 10
-24.6191280665
 20
-17.7955545199
 30
0.0
 11
-24.4614421665
 21
-17.844372192
 31
0.0
  0
LINE
  5
4DC
330
1F
100
AcDbEntity
  8
0
  6
Continuous
 62
     7
370
    25
100
AcDbLine
 10
-25.1207029764
 20
-17.7955545199
 30
0.0
 11
-24.6191280665
 21
-17.7955545199
 31
0.0
  0
LINE
  5
4DD
330
1F
100
AcDbEntity
  8
0
  6
Continuous
 62
     7
370
    25
100
AcDbLine
 10
-25.1967949448
 20
-17.7074480301
 30
0.0
 11
-25.1207029764
 21
-17.7955545199
 31
0.0
  0
LINE
  5
4DE
330
1F
100
AcDbEntity
  8
0
  6
Continuous
 62
     7
370
    25
100
AcDbLine
 10
-25.9745139462
 20
1.8713793663
 30
0.0
 11
-26.0557913068
 21
1.8713793663
 31
0.0
  0
LINE
  5
4DF
330
1F
100
AcDbEntity
  8
0
  6
Continuous
 62
     7
370
    25
100
AcDbLine
 10
-25.800492616
 20
1.7758001673
 30
0.0
 11
-25.9745139462
 21
1.8713793663
 31
0.0
  0
LINE
  5
4E0
330
1F
100
AcDbEntity
  8
0
  6
Continuous
 62
     7
370
    25
100
AcDbLine
 10
-25.1207029764
 20
1.4613098415
 30
0.0
 11
-25.800492616
 21
1.7758001673
 31
0.0
  0
LINE
  5
4E1
330
1F
100
AcDbEntity
  8
0
  6
Continuous
 62
     7
370
    25
100
AcDbLine
 10
-24.9700674689
 20
3.2877576864
 30
0.0
 11
-24.489119404
 21
3.0012640426
 31
0.0
  0
LINE
  5
4E2
330
1F
100
AcDbEntity
  8
0
  6
Continuous
 62
     7
370
    25
100
AcDbLine
 10
-26.2077634668
 20
4.7480050292
 30
0.0
 11
-26.188800082
 21
3.8973833869
 31
0.0
  0
LINE
  5
4E3
330
1F
100
AcDbEntity
  8
0
  6
Continuous
 62
     7
370
    25
100
AcDbLine
 10
-26.2077634668
 20
5.6955280589
 30
0.0
 11
-26.2077634668
 21
4.7480050292
 31
0.0
  0
LINE
  5
4E4
330
1F
100
AcDbEntity
  8
0
  6
Continuous
 62
     7
370
    25
100
AcDbLine
 10
-26.0635495293
 20
5.7435448365
 30
0.0
 11
-26.2077634668
 21
5.6955280589
 31
0.0
  0
LINE
  5
4E5
330
1F
100
AcDbEntity
  8
0
  6
Continuous
 62
     7
370
    25
100
AcDbLine
 10
-25.7202558709
 20
6.1147705408
 30
0.0
 11
-26.0635495293
 21
5.7435448365
 31
0.0
  0
LINE
  5
4E6
330
1F
100
AcDbEntity
  8
0
  6
Continuous
 62
     7
370
    25
100
AcDbLine
 10
-25.6620064578
 20
6.3029218954
 30
0.0
 11
-25.7202558709
 21
6.1147705408
 31
0.0
  0
LINE
  5
4E7
330
1F
100
AcDbEntity
  8
0
  6
Continuous
 62
     7
370
    25
100
AcDbLine
 10
-25.3852800423
 20
6.3437642353
 30
0.0
 11
-25.5980291389
 21
6.3437642353
 31
0.0
  0
LINE
  5
4E8
330
1F
100
AcDbEntity
  8
0
  6
Continuous
 62
     7
370
    25
100
AcDbLine
 10
-25.3852800423
 20
7.4231712254
 30
0.0
 11
-25.3852800423
 21
7.153797269
 31
0.0
  0
LINE
  5
4E9
330
1F
100
AcDbEntity
  8
0
  6
Continuous
 62
     7
370
    25
100
AcDbLine
 10
-25.3852800423
 20
8.5006670506
 30
0.0
 11
-25.3852800423
 21
8.2540570906
 31
0.0
  0
LINE
  5
4EA
330
1F
100
AcDbEntity
  8
0
  6
Continuous
 62
     7
370
    25
100
AcDbLine
 10
-25.3852800423
 20
9.6123088704
 30
0.0
 11
-25.3852800423
 21
9.2784369245
 31
0.0
  0
LINE
  5
4EB
330
1F
100
AcDbEntity
  8
0
  6
Continuous
 62
     7
370
    25
100
AcDbLine
 10
-25.7023529782
 20
10.2658531075
 30
0.0
 11
-25.3852800423
 21
10.3714241841
 31
0.0
  0
LINE
  5
4EC
330
1F
100
AcDbEntity
  8
0
  6
Continuous
 62
     7
370
    25
100
AcDbLine
 10
-26.3205697818
 20
10.9816830907
 30
0.0
 11
-25.7023529782
 21
10.2658531075
 31
0.0
  0
LINE
  5
4ED
330
1F
100
AcDbEntity
  8
0
  6
Continuous
 62
     7
370
    25
100
AcDbLine
 10
-26.4315417924
 20
11.3149772312
 30
0.0
 11
-26.3205697818
 21
10.9816830907
 31
0.0
  0
LINE
  5
4EE
330
1F
100
AcDbEntity
  8
0
  6
Continuous
 62
     7
370
    25
100
AcDbLine
 10
-26.749179934
 20
13.8454294027
 30
0.0
 11
-26.6624711919
 21
11.8691049712
 31
0.0
  0
LINE
  5
4EF
330
1F
100
AcDbEntity
  8
0
  6
Continuous
 62
     7
370
    25
100
AcDbLine
 10
-26.5225100904
 20
14.2985761953
 30
0.0
 11
-26.749179934
 21
13.8454294027
 31
0.0
  0
LINE
  5
4F0
330
1F
100
AcDbEntity
  8
0
  6
Continuous
 62
     7
370
    25
100
AcDbLine
 10
-18.8029550384
 20
-43.2514527006
 30
0.0
 11
-18.7736573887
 21
-44.1256091395
 31
0.0
  0
LINE
  5
4F1
330
1F
100
AcDbEntity
  8
0
  6
Continuous
 62
     7
370
    25
100
AcDbLine
 10
-22.5046598281
 20
48.5887701194
 30
0.0
 11
-22.5046598281
 21
43.4495321548
 31
0.0
  0
LINE
  5
4F2
330
1F
100
AcDbEntity
  8
0
  6
Continuous
 62
     7
370
    25
100
AcDbLine
 10
-22.5046598281
 20
43.4495321548
 30
0.0
 11
-22.9410682817
 21
42.5770866288
 31
0.0
  0
LINE
  5
4F3
330
1F
100
AcDbEntity
  8
0
  6
Continuous
 62
     7
370
    25
100
AcDbLine
 10
-22.9410682817
 20
42.5770866288
 30
0.0
 11
-23.3389391833
 21
42.0792297344
 31
0.0
  0
LINE
  5
4F4
330
1F
100
AcDbEntity
  8
0
  6
Continuous
 62
     7
370
    25
100
AcDbLine
 10
-23.3389391833
 20
42.0792297344
 30
0.0
 11
-23.8185817046
 21
41.7469699238
 31
0.0
  0
LINE
  5
4F5
330
1F
100
AcDbEntity
  8
0
  6
Continuous
 62
     7
370
    25
100
AcDbLine
 10
-23.8185817046
 20
41.7469699238
 30
0.0
 11
-24.3965472231
 21
41.5545333104
 31
0.0
  0
LINE
  5
4F6
330
1F
100
AcDbEntity
  8
0
  6
Continuous
 62
     7
370
    25
100
AcDbLine
 10
-24.3965472231
 20
41.5545333104
 30
0.0
 11
-26.2641455635
 21
41.4242789384
 31
0.0
  0
LINE
  5
4F7
330
1F
100
AcDbEntity
  8
0
  6
Continuous
 62
     7
370
    25
100
AcDbLine
 10
-26.2641455635
 20
41.4242789384
 30
0.0
 11
-26.2641455635
 21
35.6539142967
 31
0.0
  0
LINE
  5
4F8
330
1F
100
AcDbEntity
  8
0
  6
Continuous
 62
     7
370
    25
100
AcDbLine
 10
-25.7224043222
 20
33.9845367822
 30
0.0
 11
-25.9745139459
 21
33.900595577
 31
0.0
  0
LINE
  5
4F9
330
1F
100
AcDbEntity
  8
0
  6
Continuous
 62
     7
370
    25
100
AcDbLine
 10
-25.9745139459
 20
33.900595577
 30
0.0
 11
-26.2077634667
 21
33.8843277483
 31
0.0
  0
LINE
  5
4FA
330
1F
100
AcDbEntity
  8
0
  6
Continuous
 62
     7
370
    25
100
AcDbLine
 10
-26.2077634667
 20
33.8843277483
 30
0.0
 11
-26.2281131399
 21
31.8660971347
 31
0.0
  0
LINE
  5
4FB
330
1F
100
AcDbEntity
  8
0
  6
Continuous
 62
     7
370
    25
100
AcDbLine
 10
-25.8004926157
 20
31.5610631524
 30
0.0
 11
-25.6443160288
 21
31.1863088796
 31
0.0
  0
LINE
  5
4FC
330
1F
100
AcDbEntity
  8
0
  6
Continuous
 62
     7
370
    25
100
AcDbLine
 10
-25.3425956454
 20
30.4961732169
 30
0.0
 11
-25.3425956454
 21
30.153335838
 31
0.0
  0
LINE
  5
4FD
330
1F
100
AcDbEntity
  8
0
  6
Continuous
 62
     7
370
    25
100
AcDbLine
 10
-25.3425956454
 20
29.3645566224
 30
0.0
 11
-25.3425956454
 21
29.0705969422
 31
0.0
  0
LINE
  5
4FE
330
1F
100
AcDbEntity
  8
0
  6
Continuous
 62
     7
370
    25
100
AcDbLine
 10
-25.3425956454
 20
28.3538123674
 30
0.0
 11
-25.3425956454
 21
27.9932994156
 31
0.0
  0
LINE
  5
4FF
330
1F
100
AcDbEntity
  8
0
  6
Continuous
 62
     7
370
    25
100
AcDbLine
 10
-25.3425956454
 20
27.2849974984
 30
0.0
 11
-25.3425956454
 21
26.9170756445
 31
0.0
  0
LINE
  5
500
330
1F
100
AcDbEntity
  8
0
  6
Continuous
 62
     7
370
    25
100
AcDbLine
 10
-25.3425956448
 20
26.1602491856
 30
0.0
 11
-25.3805982151
 21
26.1602491856
 31
0.0
  0
LINE
  5
501
330
1F
100
AcDbEntity
  8
0
  6
Continuous
 62
     7
370
    25
100
AcDbLine
 10
-25.3805982151
 20
26.1602491856
 30
0.0
 11
-25.5438165096
 21
26.2418930721
 31
0.0
  0
LINE
  5
502
330
1F
100
AcDbEntity
  8
0
  6
Continuous
 62
     7
370
    25
100
AcDbLine
 10
-25.5438165096
 20
26.2418930721
 30
0.0
 11
-25.6443160283
 21
26.2418930721
 31
0.0
  0
LINE
  5
503
330
1F
100
AcDbEntity
  8
0
  6
Continuous
 62
     7
370
    25
100
AcDbLine
 10
-25.6443160283
 20
26.2418930721
 30
0.0
 11
-25.7113758685
 21
26.025283168
 31
0.0
  0
LINE
  5
504
330
1F
100
AcDbEntity
  8
0
  6
Continuous
 62
     7
370
    25
100
AcDbLine
 10
-25.7113758685
 20
26.025283168
 30
0.0
 11
-26.1134695151
 21
25.5904732217
 31
0.0
  0
LINE
  5
505
330
1F
100
AcDbEntity
  8
0
  6
Continuous
 62
     7
370
    25
100
AcDbLine
 10
-26.1134695151
 20
25.5904732217
 30
0.0
 11
-26.1134695151
 21
24.9461769896
 31
0.0
  0
LINE
  5
506
330
1F
100
AcDbEntity
  8
0
  6
Continuous
 62
     7
370
    25
100
AcDbLine
 10
-25.1967949442
 20
22.9629148872
 30
0.0
 11
-26.9780196228
 21
22.9629148872
 31
0.0
  0
LINE
  5
507
330
1F
100
AcDbEntity
  8
0
  6
Continuous
 62
     7
370
    25
100
AcDbLine
 10
-26.9780196228
 20
22.9629148872
 30
0.0
 11
-26.8978345654
 21
19.3661337343
 31
0.0
  0
LINE
  5
508
330
1F
100
AcDbEntity
  8
0
  6
Continuous
 62
     7
370
    25
100
AcDbLine
 10
-26.8978345654
 20
19.3661337343
 30
0.0
 11
-26.6922098584
 21
19.1499098155
 31
0.0
  0
LINE
  5
509
330
1F
100
AcDbEntity
  8
0
  6
Continuous
 62
     7
370
    25
100
AcDbLine
 10
-26.6922098584
 20
19.1499098155
 30
0.0
 11
-26.4927882495
 21
18.8620294272
 31
0.0
  0
LINE
  5
50A
330
1F
100
AcDbEntity
  8
0
  6
Continuous
 62
     7
370
    25
100
AcDbLine
 10
-26.4927882495
 20
18.8620294272
 30
0.0
 11
-26.4166388679
 21
18.6793048158
 31
0.0
  0
LINE
  5
50B
330
1F
100
AcDbEntity
  8
0
  6
Continuous
 62
     7
370
    25
100
AcDbLine
 10
-26.4166388679
 20
18.6793048158
 30
0.0
 11
-26.4166388679
 21
14.4522220261
 31
0.0
  0
LINE
  5
50C
330
1F
100
AcDbEntity
  8
0
  6
Continuous
 62
     7
370
    25
100
AcDbLine
 10
-26.4166388679
 20
14.4522220261
 30
0.0
 11
-26.5225100904
 21
14.2985761953
 31
0.0
  0
LINE
  5
50D
330
1F
100
AcDbEntity
  8
0
  6
Continuous
 62
     7
370
    25
100
AcDbLine
 10
-20.3803100281
 20
48.5887701194
 30
0.0
 11
-22.5046598281
 21
48.5887701194
 31
0.0
  0
LINE
  5
50E
330
1F
100
AcDbEntity
  8
0
  6
Continuous
 62
     7
370
    25
100
AcDbLine
 10
28.9642240818
 20
13.4696528835
 30
0.0
 11
29.0966863359
 21
14.4626531412
 31
0.0
  0
LINE
  5
50F
330
1F
100
AcDbEntity
  8
0
  6
Continuous
 62
     7
370
    25
100
AcDbLine
 10
-26.6624711919
 20
11.8691049712
 30
0.0
 11
-26.4315417924
 21
11.3149772312
 31
0.0
  0
LINE
  5
510
330
1F
100
AcDbEntity
  8
0
  6
Continuous
 62
     7
370
    25
100
AcDbLine
 10
26.5022765252
 20
-30.320340177
 30
0.0
 11
26.8570874342
 21
-30.1724748669
 31
0.0
  0
LINE
  5
511
330
1F
100
AcDbEntity
  8
0
  6
Continuous
 62
     7
370
    25
100
AcDbLine
 10
25.6350884382
 20
36.6359257092
 30
0.0
 11
25.6350884382
 21
39.2321621054
 31
0.0
  0
LINE
  5
512
330
1F
100
AcDbEntity
  8
0
  6
Continuous
 62
     7
370
    25
100
AcDbLine
 10
29.2407026813
 20
16.3008196429
 30
0.0
 11
29.0780885509
 21
16.4511982376
 31
0.0
  0
LINE
  5
513
330
1F
100
AcDbEntity
  8
0
  6
Continuous
 62
     7
370
    25
100
AcDbLine
 10
28.3204965512
 20
16.7043631232
 30
0.0
 11
28.1715144383
 21
17.0618538619
 31
0.0
  0
LINE
  5
514
330
1F
100
AcDbEntity
  8
0
  6
Continuous
 62
     7
370
    25
100
AcDbLine
 10
27.7721573103
 20
17.6474640416
 30
0.0
 11
27.757438314
 21
17.6474640416
 31
0.0
  0
LINE
  5
515
330
1F
100
AcDbEntity
  8
0
  6
Continuous
 62
     7
370
    25
100
AcDbLine
 10
27.757438314
 20
18.2301293082
 30
0.0
 11
27.7721573105
 21
18.7846398297
 31
0.0
  0
LINE
  5
516
330
1F
100
AcDbEntity
  8
0
  6
Continuous
 62
     7
370
    25
100
AcDbLine
 10
-25.5980291389
 20
6.3437642353
 30
0.0
 11
-25.6620064578
 21
6.3029218954
 31
0.0
  0
LINE
  5
517
330
1F
100
AcDbEntity
  8
0
  6
Continuous
 62
     7
370
    25
100
AcDbLine
 10
27.7721573105
 20
19.2532767927
 30
0.0
 11
27.7721573105
 21
19.9383084382
 31
0.0
  0
LINE
  5
518
330
1F
100
AcDbEntity
  8
0
  6
Continuous
 62
     7
370
    25
100
AcDbLine
 10
28.7624278633
 20
-17.6375667003
 30
0.0
 11
28.6031416454
 21
-17.1591653196
 31
0.0
  0
LINE
  5
519
330
1F
100
AcDbEntity
  8
0
  6
Continuous
 62
     7
370
    25
100
AcDbLine
 10
27.7721573105
 20
20.6977707758
 30
0.0
 11
28.1318639417
 21
21.2463535714
 31
0.0
  0
LINE
  5
51A
330
1F
100
AcDbEntity
  8
0
  6
Continuous
 62
     7
370
    25
100
AcDbLine
 10
28.1318639417
 20
21.2463535714
 30
0.0
 11
28.2424515898
 21
28.5022489889
 31
0.0
  0
LINE
  5
51B
330
1F
100
AcDbEntity
  8
0
  6
Continuous
 62
     7
370
    25
100
AcDbLine
 10
-26.188800082
 20
3.8973833869
 30
0.0
 11
-24.9700674689
 21
3.2877576864
 31
0.0
  0
LINE
  5
51C
330
1F
100
AcDbEntity
  8
0
  6
Continuous
 62
     7
370
    25
100
AcDbLine
 10
26.1992365189
 20
30.8680769658
 30
0.0
 11
25.6350884382
 21
31.6761218246
 31
0.0
  0
LINE
  5
51D
330
1F
100
AcDbEntity
  8
0
  6
Continuous
 62
     7
370
    25
100
AcDbLine
 10
-7.3564881585
 20
-45.2915557839
 30
0.0
 11
-2.7271147702
 21
-45.2915557839
 31
0.0
  0
LINE
  5
51E
330
1F
100
AcDbEntity
  8
0
  6
Continuous
 62
     7
370
    25
100
AcDbLine
 10
28.6031416454
 20
-14.361362778
 30
0.0
 11
28.6031416454
 21
-13.7428555542
 31
0.0
  0
LINE
  5
51F
330
1F
100
AcDbEntity
  8
0
  6
Continuous
 62
     7
370
    25
100
AcDbLine
 10
25.3111451058
 20
32.8518952423
 30
0.0
 11
25.2112367107
 21
33.2265517242
 31
0.0
  0
LINE
  5
520
330
1F
100
AcDbEntity
  8
0
  6
Continuous
 62
     7
370
    25
100
AcDbLine
 10
25.2112367107
 20
33.2265517242
 30
0.0
 11
25.2112367107
 21
33.2767946135
 31
0.0
  0
LINE
  5
521
330
1F
100
AcDbEntity
  8
0
  6
Continuous
 62
     7
370
    25
100
AcDbLine
 10
-26.0557913068
 20
1.8713793663
 30
0.0
 11
-25.1967949448
 21
-17.7074480301
 31
0.0
  0
LINE
  5
522
330
1F
100
AcDbEntity
  8
0
  6
Continuous
 62
     7
370
    25
100
AcDbLine
 10
25.2112367107
 20
33.6826360686
 30
0.0
 11
25.2112367107
 21
34.3836349454
 31
0.0
  0
LINE
  5
523
330
1F
100
AcDbEntity
  8
0
  6
Continuous
 62
     7
370
    25
100
AcDbLine
 10
25.2112367107
 20
35.8864781517
 30
0.0
 11
25.2112367107
 21
36.0926738105
 31
0.0
  0
LINE
  5
524
330
1F
100
AcDbEntity
  8
0
  6
Continuous
 62
     7
370
    25
100
AcDbLine
 10
-24.1825430652
 20
-18.0535476093
 30
0.0
 11
-24.04945611
 21
-18.2620211344
 31
0.0
  0
LINE
  5
525
330
1F
100
AcDbEntity
  8
0
  6
Continuous
 62
     7
370
    25
100
AcDbLine
 10
25.6350884382
 20
39.2321621054
 30
0.0
 11
21.3686451379
 21
39.2321621054
 31
0.0
  0
LINE
  5
526
330
1F
100
AcDbEntity
  8
0
  6
Continuous
 62
     7
370
    25
100
AcDbLine
 10
-24.0153502181
 20
-21.3099946366
 30
0.0
 11
-24.1722048003
 21
-21.595580238
 31
0.0
  0
LINE
  5
527
330
1F
100
AcDbEntity
  8
0
  6
Continuous
 62
     7
370
    25
100
AcDbLine
 10
20.1839591351
 20
38.8393586192
 30
0.0
 11
19.7648073307
 21
38.8393586192
 31
0.0
  0
LINE
  5
528
330
1F
100
AcDbEntity
  8
0
  6
Continuous
 62
     7
370
    25
100
AcDbLine
 10
5.9540059955
 20
-44.8739060394
 30
0.0
 11
6.2347718522
 21
-45.1990033472
 31
0.0
  0
LINE
  5
529
330
1F
100
AcDbEntity
  8
0
  6
Continuous
 62
     7
370
    25
100
AcDbLine
 10
17.9484828449
 20
38.8393586192
 30
0.0
 11
17.8698918816
 21
38.8393586192
 31
0.0
  0
LINE
  5
52A
330
1F
100
AcDbEntity
  8
0
  6
Continuous
 62
     7
370
    25
100
AcDbLine
 10
17.8698918816
 20
38.8393586192
 30
0.0
 11
17.4245430894
 21
39.2321621054
 31
0.0
  0
LINE
  5
52B
330
1F
100
AcDbEntity
  8
0
  6
Continuous
 62
     7
370
    25
100
AcDbLine
 10
-24.0600355245
 20
-24.133684085
 30
0.0
 11
-24.0388341481
 21
-24.4376712358
 31
0.0
  0
LINE
  5
52C
330
1F
100
AcDbEntity
  8
0
  6
Continuous
 62
     7
370
    25
100
AcDbLine
 10
16.1228868091
 20
39.2321621054
 30
0.0
 11
16.1228868091
 21
48.5887701194
 31
0.0
  0
LINE
  5
52D
330
1F
100
AcDbEntity
  8
0
  6
Continuous
 62
     7
370
    25
100
AcDbLine
 10
16.1228868091
 20
48.5887701194
 30
0.0
 11
-15.0967926186
 21
48.5887701194
 31
0.0
  0
LINE
  5
52E
330
1F
100
AcDbEntity
  8
0
  6
Continuous
 62
     7
370
    25
100
AcDbLine
 10
27.7331660052
 20
1.3248483337
 30
0.0
 11
27.3666036075
 21
1.3978818451
 31
0.0
  0
LINE
  5
52F
330
1F
100
AcDbEntity
  8
0
  6
Continuous
 62
     7
370
    25
100
AcDbLine
 10
-15.532158753
 20
48.1366012042
 30
0.0
 11
-15.8331526238
 21
48.1366012042
 31
0.0
  0
LINE
  5
530
330
1F
100
AcDbEntity
  8
0
  6
Continuous
 62
     7
370
    25
100
AcDbLine
 10
-23.8337552759
 20
-27.3781096669
 30
0.0
 11
-23.8175640167
 21
-27.6102613277
 31
0.0
  0
LINE
  5
531
330
1F
100
AcDbEntity
  8
0
  6
Continuous
 62
     7
370
    25
100
AcDbLine
 10
26.1478402653
 20
1.9406465868
 30
0.0
 11
26.1478402653
 21
2.356783088
 31
0.0
  0
LINE
  5
532
330
1F
100
AcDbEntity
  8
0
  6
Continuous
 62
     7
370
    25
100
AcDbLine
 10
-17.5167887548
 20
48.1366012042
 30
0.0
 11
-17.8981160677
 21
48.1366012042
 31
0.0
  0
LINE
  5
533
330
1F
100
AcDbEntity
  8
0
  6
Continuous
 62
     7
370
    25
100
AcDbLine
 10
-24.1166227345
 20
-28.5587408795
 30
0.0
 11
-24.3032654387
 21
-28.7922873809
 31
0.0
  0
LINE
  5
534
330
1F
100
AcDbEntity
  8
0
  6
Continuous
 62
     7
370
    25
100
AcDbLine
 10
-19.6940447025
 20
48.1366012042
 30
0.0
 11
-19.7568227244
 21
48.1366012042
 31
0.0
  0
LINE
  5
535
330
1F
100
AcDbEntity
  8
0
  6
Continuous
 62
     7
370
    25
100
AcDbLine
 10
-19.7568227244
 20
48.1366012042
 30
0.0
 11
-20.1545646251
 21
48.2655985774
 31
0.0
  0
LINE
  5
536
330
1F
100
AcDbEntity
  8
0
  6
Continuous
 62
     7
370
    25
100
AcDbLine
 10
26.3375494204
 20
-36.0305186965
 30
0.0
 11
26.2547086933
 21
-35.6394240437
 31
0.0
  0
LINE
  5
537
330
1F
100
AcDbEntity
  8
0
  6
Continuous
 62
     7
370
    25
100
AcDbLine
 10
-20.1545646251
 20
48.2655985774
 30
0.0
 11
-20.3803100281
 21
48.5887701194
 31
0.0
  0
LINE
  5
538
330
1F
100
AcDbEntity
  8
0
  6
Continuous
 62
     7
370
    25
100
AcDbLine
 10
-22.2075795747
 20
-30.2120601069
 30
0.0
 11
-22.0772330402
 21
-30.3325990086
 31
0.0
  0
LINE
  5
539
330
1F
100
AcDbEntity
  8
0
  6
Continuous
 62
     7
370
    25
100
AcDbLine
 10
2.3390679902
 20
-44.4542687821
 30
0.0
 11
2.6382638533
 21
-44.4542687821
 31
0.0
  0
LINE
  5
53A
330
1F
100
AcDbEntity
  8
0
  6
Continuous
 62
     7
370
    25
100
AcDbLine
 10
-15.0967926186
 20
48.5887701194
 30
0.0
 11
-15.532158753
 21
48.1366012042
 31
0.0
  0
LINE
  5
53B
330
1F
100
AcDbEntity
  8
0
  6
Continuous
 62
     7
370
    25
100
AcDbLine
 10
19.0749533193
 20
38.8393586192
 30
0.0
 11
18.414207072
 21
38.8393586192
 31
0.0
  0
LINE
  5
53C
330
1F
100
AcDbEntity
  8
0
  6
Continuous
 62
     7
370
    25
100
AcDbLine
 10
29.0780885509
 20
16.4511982376
 30
0.0
 11
28.5100491835
 21
16.5119511111
 31
0.0
  0
LINE
  5
53D
330
1F
100
AcDbEntity
  8
0
  6
Continuous
 62
     7
370
    25
100
AcDbLine
 10
21.1328722479
 20
38.9063064768
 30
0.0
 11
20.8010437361
 21
38.8393586192
 31
0.0
  0
LINE
  5
53E
330
1F
100
AcDbEntity
  8
0
  6
Continuous
 62
     7
370
    25
100
AcDbLine
 10
28.1715144383
 20
17.0618538619
 30
0.0
 11
27.7721573103
 21
17.3237129801
 31
0.0
  0
LINE
  5
53F
330
1F
100
AcDbEntity
  8
0
  6
Continuous
 62
     7
370
    25
100
AcDbLine
 10
27.7721573103
 20
17.3237129801
 30
0.0
 11
27.7721573103
 21
17.6474640416
 31
0.0
  0
LINE
  5
540
330
1F
100
AcDbEntity
  8
0
  6
Continuous
 62
     7
370
    25
100
AcDbLine
 10
-1.5446692207
 20
-45.2915557839
 30
0.0
 11
-0.2652844082
 21
-45.2915557839
 31
0.0
  0
LINE
  5
541
330
1F
100
AcDbEntity
  8
0
  6
Continuous
 62
     7
370
    25
100
AcDbLine
 10
-19.2825996473
 20
-42.9143430193
 30
0.0
 11
-19.0074949155
 21
-42.9691546003
 31
0.0
  0
LINE
  5
542
330
1F
100
AcDbEntity
  8
0
  6
Continuous
 62
     7
370
    25
100
AcDbLine
 10
17.4245430894
 20
39.2321621054
 30
0.0
 11
16.1228868091
 21
39.2321621054
 31
0.0
  0
LINE
  5
543
330
1F
100
AcDbEntity
  8
0
  6
Continuous
 62
     7
370
    25
100
AcDbLine
 10
27.7721573105
 20
20.3470786607
 30
0.0
 11
27.7721573105
 21
20.6977707758
 31
0.0
  0
LINE
  5
544
330
1F
100
AcDbEntity
  8
0
  6
Continuous
 62
     7
370
    25
100
AcDbLine
 10
-18.5781790635
 20
48.1366012042
 30
0.0
 11
-19.0983306054
 21
48.1366012042
 31
0.0
  0
LINE
  5
545
330
1F
100
AcDbEntity
  8
0
  6
Continuous
 62
     7
370
    25
100
AcDbLine
 10
25.2112367107
 20
34.8657254011
 30
0.0
 11
25.2112367107
 21
35.5642646328
 31
0.0
  0
LINE
  5
546
330
1F
100
AcDbEntity
  8
0
  6
Continuous
 62
     7
370
    25
100
AcDbLine
 10
28.2424515898
 20
28.5022489889
 30
0.0
 11
26.1992365189
 21
30.8680769658
 31
0.0
  0
LINE
  5
547
330
1F
100
AcDbEntity
  8
0
  6
Continuous
 62
     7
370
    25
100
AcDbLine
 10
23.44121331
 20
-42.8733009475
 30
0.0
 11
27.9241808557
 21
-42.8733009475
 31
0.0
  0
LINE
  5
548
330
1F
100
AcDbEntity
  8
0
  6
Continuous
 62
     7
370
    25
100
AcDbLine
 10
21.3686451379
 20
39.2321621054
 30
0.0
 11
21.1328722479
 21
38.9063064768
 31
0.0
  0
LINE
  5
549
330
1F
100
AcDbEntity
  8
0
  6
Continuous
 62
     7
370
    25
100
AcDbLine
 10
25.6350884382
 20
32.5584143315
 30
0.0
 11
25.3111451058
 21
32.8518952423
 31
0.0
  0
LINE
  5
54A
330
1F
100
AcDbEntity
  8
0
  6
Continuous
 62
     7
370
    25
100
AcDbLine
 10
25.6350884382
 20
31.6761218246
 30
0.0
 11
25.6350884382
 21
32.5584143315
 31
0.0
  0
LINE
  5
54B
330
1F
100
AcDbEntity
  8
0
  6
Continuous
 62
     7
370
    25
100
AcDbLine
 10
-16.3789954268
 20
48.1366012042
 30
0.0
 11
-16.8859292833
 21
48.1366012042
 31
0.0
  0
LINE
  5
54C
330
1F
100
AcDbEntity
  8
0
  6
Continuous
 62
     7
370
    25
100
AcDbLine
 10
29.1569412273
 20
15.4773111182
 30
0.0
 11
29.2407026813
 21
15.518641629
 31
0.0
  0
LINE
  5
54D
330
1F
100
AcDbEntity
  8
0
  6
Continuous
 62
     7
370
    25
100
AcDbLine
 10
26.7486471117
 20
12.428719026
 30
0.0
 11
28.7330810555
 21
12.428719026
 31
0.0
  0
LINE
  5
54E
330
1F
100
AcDbEntity
  8
0
  6
Continuous
 62
     7
370
    25
100
AcDbLine
 10
28.7330810555
 20
12.428719026
 30
0.0
 11
28.8322076393
 21
12.4674338201
 31
0.0
  0
LINE
  5
54F
330
1F
100
AcDbEntity
  8
0
  6
Continuous
 62
     7
370
    25
100
AcDbLine
 10
27.018875193
 20
-1.2023087191
 30
0.0
 11
26.8634257947
 21
-1.262354242
 31
0.0
  0
LINE
  5
550
330
1F
100
AcDbEntity
  8
0
  6
Continuous
 62
     7
370
    25
100
AcDbLine
 10
26.9126161556
 20
-0.4940485922
 30
0.0
 11
27.018875193
 21
-0.5431098282
 31
0.0
  0
LINE
  5
551
330
1F
100
AcDbEntity
  8
0
  6
Continuous
 62
     7
370
    25
100
AcDbLine
 10
27.018875193
 20
-1.2023087191
 30
0.0
 11
27.1118455209
 21
-1.2125472605
 31
0.0
  0
LINE
  5
552
330
1F
100
AcDbEntity
  8
0
  6
Continuous
 62
     7
370
    25
100
AcDbLine
 10
27.018875193
 20
-0.5431098282
 30
0.0
 11
27.1118455209
 21
-0.5509809777
 31
0.0
  0
LINE
  5
553
330
1F
100
AcDbEntity
  8
0
  6
Continuous
 62
     7
370
    25
100
AcDbLine
 10
27.018875193
 20
-3.2654502861
 30
0.0
 11
27.1118455209
 21
-3.283098222
 31
0.0
  0
LINE
  5
554
330
1F
100
AcDbEntity
  8
0
  6
Continuous
 62
     7
370
    25
100
AcDbLine
 10
27.018875193
 20
-2.6917962895
 30
0.0
 11
27.1118455209
 21
-2.7073840522
 31
0.0
  0
LINE
  5
555
330
1F
100
AcDbEntity
  8
0
  6
Continuous
 62
     7
370
    25
100
AcDbLine
 10
28.9306192033
 20
-7.388734916
 30
0.0
 11
28.3697286727
 21
-7.388734916
 31
0.0
  0
LINE
  5
556
330
1F
100
AcDbEntity
  8
0
  6
Continuous
 62
     7
370
    25
100
AcDbLine
 10
28.9306192033
 20
-7.388734916
 30
0.0
 11
29.0304552091
 21
-7.4211908721
 31
0.0
  0
LINE
  5
557
330
1F
100
AcDbEntity
  8
0
  6
Continuous
 62
     7
370
    25
100
AcDbLine
 10
28.480904722
 20
-13.0914680864
 30
0.0
 11
28.5048347663
 21
-13.1168551555
 31
0.0
  0
LINE
  5
558
330
1F
100
AcDbEntity
  8
0
  6
Continuous
 62
     7
370
    25
100
AcDbLine
 10
28.5048347663
 20
-13.1168551555
 30
0.0
 11
28.6031416454
 21
-13.1698826047
 31
0.0
  0
LINE
  5
559
330
1F
100
AcDbEntity
  8
0
  6
Continuous
 62
     7
370
    25
100
AcDbLine
 10
28.5048347663
 20
-13.6877777414
 30
0.0
 11
28.6031416454
 21
-13.7428555542
 31
0.0
  0
LINE
  5
55A
330
1F
100
AcDbEntity
  8
0
  6
Continuous
 62
     7
370
    25
100
AcDbLine
 10
28.4463524108
 20
-14.2508221561
 30
0.0
 11
28.5048347663
 21
-14.3040716586
 31
0.0
  0
LINE
  5
55B
330
1F
100
AcDbEntity
  8
0
  6
Continuous
 62
     7
370
    25
100
AcDbLine
 10
28.5048347663
 20
-14.8485276345
 30
0.0
 11
28.6031416454
 21
-14.9077740676
 31
0.0
  0
LINE
  5
55C
330
1F
100
AcDbEntity
  8
0
  6
Continuous
 62
     7
370
    25
100
AcDbLine
 10
28.5048347663
 20
-14.3040716586
 30
0.0
 11
28.6031416454
 21
-14.361362778
 31
0.0
  0
LINE
  5
55D
330
1F
100
AcDbEntity
  8
0
  6
Continuous
 62
     7
370
    25
100
AcDbLine
 10
28.4610771468
 20
-15.2769321319
 30
0.0
 11
28.5048347663
 21
-15.3173647249
 31
0.0
  0
LINE
  5
55E
330
1F
100
AcDbEntity
  8
0
  6
Continuous
 62
     7
370
    25
100
AcDbLine
 10
28.5048347663
 20
-15.8807254222
 30
0.0
 11
28.6031416454
 21
-15.9436788043
 31
0.0
  0
LINE
  5
55F
330
1F
100
AcDbEntity
  8
0
  6
Continuous
 62
     7
370
    25
100
AcDbLine
 10
28.5048347663
 20
-15.3173647249
 30
0.0
 11
28.6031416454
 21
-15.3782949004
 31
0.0
  0
LINE
  5
560
330
1F
100
AcDbEntity
  8
0
  6
Continuous
 62
     7
370
    25
100
AcDbLine
 10
28.5048347663
 20
-16.5461716149
 30
0.0
 11
28.6031416454
 21
-16.611514825
 31
0.0
  0
LINE
  5
561
330
1F
100
AcDbEntity
  8
0
  6
Continuous
 62
     7
370
    25
100
AcDbLine
 10
28.5048347663
 20
-17.0918623614
 30
0.0
 11
28.6031416454
 21
-17.1591653196
 31
0.0
  0
LINE
  5
562
330
1F
100
AcDbEntity
  8
0
  6
Continuous
 62
     7
370
    25
100
AcDbLine
 10
28.8166084877
 20
-21.9453199062
 30
0.0
 11
28.4120754329
 21
-21.9117950674
 31
0.0
  0
LINE
  5
563
330
1F
100
AcDbEntity
  8
0
  6
Continuous
 62
     7
370
    25
100
AcDbLine
 10
28.8166084877
 20
-21.9453199062
 30
0.0
 11
28.9160350449
 21
-22.0300531668
 31
0.0
  0
LINE
  5
564
330
1F
100
AcDbEntity
  8
0
  6
Continuous
 62
     7
370
    25
100
AcDbLine
 10
26.4495772065
 20
-36.1853410307
 30
0.0
 11
26.3358350264
 21
-36.0224249684
 31
0.0
  0
LINE
  5
565
330
1F
100
AcDbEntity
  8
0
  6
Continuous
 62
     7
370
    25
100
AcDbLine
 10
26.4495772065
 20
-36.1853410307
 30
0.0
 11
26.5405030051
 21
-36.3212147147
 31
0.0
  0
LINE
  5
566
330
1F
100
AcDbEntity
  8
0
  6
Continuous
 62
     7
370
    25
100
AcDbLine
 10
26.7413668113
 20
-36.5232026784
 30
0.0
 11
26.4495772065
 21
-36.1853410307
 31
0.0
  0
LINE
  5
567
330
1F
100
AcDbEntity
  8
0
  6
Continuous
 62
     7
370
    25
100
AcDbLine
 10
26.7413668113
 20
-36.5232026784
 30
0.0
 11
26.8333405188
 21
-36.6602897306
 31
0.0
  0
LINE
  5
568
330
1F
100
AcDbEntity
  8
0
  6
Continuous
 62
     7
370
    25
100
AcDbLine
 10
27.1368822487
 20
-36.7499629603
 30
0.0
 11
26.7413668113
 21
-36.5232026784
 31
0.0
  0
LINE
  5
569
330
1F
100
AcDbEntity
  8
0
  6
Continuous
 62
     7
370
    25
100
AcDbLine
 10
27.1368822487
 20
-36.7499629603
 30
0.0
 11
27.2302763773
 21
-36.8878643804
 31
0.0
  0
LINE
  5
56A
330
1F
100
AcDbEntity
  8
0
  6
Continuous
 62
     7
370
    25
100
AcDbLine
 10
27.9032321705
 20
-37.1708717745
 30
0.0
 11
27.1368822487
 21
-36.7499629603
 31
0.0
  0
LINE
  5
56B
330
1F
100
AcDbEntity
  8
0
  6
Continuous
 62
     7
370
    25
100
AcDbLine
 10
27.9032321705
 20
-37.1708717745
 30
0.0
 11
27.9993785043
 21
-37.3102848114
 31
0.0
  0
LINE
  5
56C
330
1F
100
AcDbEntity
  8
0
  6
Continuous
 62
     7
370
    25
100
AcDbLine
 10
5.6885262412
 20
-44.3253997416
 30
0.0
 11
5.6885262412
 21
-44.5960881132
 31
0.0
  0
LINE
  5
56D
330
1F
100
AcDbEntity
  8
0
  6
Continuous
 62
     7
370
    25
100
AcDbLine
 10
5.69444328
 20
-44.3489369159
 30
0.0
 11
5.7048925341
 21
-44.4542687821
 31
0.0
  0
LINE
  5
56E
330
1F
100
AcDbEntity
  8
0
  6
Continuous
 62
     7
370
    25
100
AcDbLine
 10
5.6885262412
 20
-44.5960881132
 30
0.0
 11
5.7048925341
 21
-44.7621674524
 31
0.0
  0
LINE
  5
56F
330
1F
100
AcDbEntity
  8
0
  6
Continuous
 62
     7
370
    25
100
AcDbLine
 10
3.7364676488
 20
-44.4227720679
 30
0.0
 11
3.7382486442
 21
-44.4542687821
 31
0.0
  0
LINE
  5
570
330
1F
100
AcDbEntity
  8
0
  6
Continuous
 62
     7
370
    25
100
AcDbLine
 10
4.5203556345
 20
-44.3202278095
 30
0.0
 11
4.5302376936
 21
-44.4542687821
 31
0.0
  0
LINE
  5
571
330
1F
100
AcDbEntity
  8
0
  6
Continuous
 62
     7
370
    25
100
AcDbLine
 10
3.3923716644
 20
-44.3103230175
 30
0.0
 11
3.3994533286
 21
-44.4542687821
 31
0.0
  0
LINE
  5
572
330
1F
100
AcDbEntity
  8
0
  6
Continuous
 62
     7
370
    25
100
AcDbLine
 10
2.6355875716
 20
-44.372390451
 30
0.0
 11
2.6382638533
 21
-44.4542687821
 31
0.0
  0
LINE
  5
573
330
1F
100
AcDbEntity
  8
0
  6
Continuous
 62
     7
370
    25
100
AcDbLine
 10
1.5111134719
 20
-44.3614718464
 30
0.0
 11
1.5118794274
 21
-44.4542687821
 31
0.0
  0
LINE
  5
574
330
1F
100
AcDbEntity
  8
0
  6
Continuous
 62
     7
370
    25
100
AcDbLine
 10
2.3358925467
 20
-44.3330516992
 30
0.0
 11
2.3390679902
 21
-44.4542687821
 31
0.0
  0
LINE
  5
575
330
1F
100
AcDbEntity
  8
0
  6
Continuous
 62
     7
370
    25
100
AcDbLine
 10
0.3485617207
 20
-44.4030760796
 30
0.0
 11
0.3476915546
 21
-44.4542687821
 31
0.0
  0
LINE
  5
576
330
1F
100
AcDbEntity
  8
0
  6
Continuous
 62
     7
370
    25
100
AcDbLine
 10
1.2741638713
 20
-44.4159388386
 30
0.0
 11
1.2742827126
 21
-44.4542687821
 31
0.0
  0
LINE
  5
577
330
1F
100
AcDbEntity
  8
0
  6
Continuous
 62
     7
370
    25
100
AcDbLine
 10
0.3504958187
 20
-44.5960881132
 30
0.0
 11
0.3504958187
 21
-44.3826434076
 31
0.0
  0
LINE
  5
578
330
1F
100
AcDbEntity
  8
0
  6
Continuous
 62
     7
370
    25
100
AcDbLine
 10
0.3504958187
 20
-44.5960881132
 30
0.0
 11
0.3476915546
 21
-44.7621674524
 31
0.0
  0
LINE
  5
579
330
1F
100
AcDbEntity
  8
0
  6
Continuous
 62
     7
370
    25
100
AcDbLine
 10
-2.7136358576
 20
-44.4466271448
 30
0.0
 11
-2.7271147702
 21
-44.6082181173
 31
0.0
  0
LINE
  5
57A
330
1F
100
AcDbEntity
  8
0
  6
Continuous
 62
     7
370
    25
100
AcDbLine
 10
-2.7133074188
 20
-45.123582047
 30
0.0
 11
-2.7133074188
 21
-44.4451710258
 31
0.0
  0
LINE
  5
57B
330
1F
100
AcDbEntity
  8
0
  6
Continuous
 62
     7
370
    25
100
AcDbLine
 10
-2.7133074188
 20
-45.123582047
 30
0.0
 11
-2.7271147702
 21
-45.2915557839
 31
0.0
  0
LINE
  5
57C
330
1F
100
AcDbEntity
  8
0
  6
Continuous
 62
     7
370
    25
100
AcDbLine
 10
-23.3431263087
 20
-36.9356692454
 30
0.0
 11
-23.6122458553
 21
-37.3460991358
 31
0.0
  0
LINE
  5
57D
330
1F
100
AcDbEntity
  8
0
  6
Continuous
 62
     7
370
    25
100
AcDbLine
 10
-23.6122458553
 20
-37.3460991358
 30
0.0
 11
-23.70110791
 21
-37.4861414696
 31
0.0
  0
LINE
  5
57E
330
1F
100
AcDbEntity
  8
0
  6
Continuous
 62
     7
370
    25
100
AcDbLine
 10
-22.7044714324
 20
-36.6365828195
 30
0.0
 11
-22.9765332894
 21
-36.7499629604
 31
0.0
  0
LINE
  5
57F
330
1F
100
AcDbEntity
  8
0
  6
Continuous
 62
     7
370
    25
100
AcDbLine
 10
-22.7044714324
 20
-36.6365828195
 30
0.0
 11
-22.7900733818
 21
-36.7740770556
 31
0.0
  0
LINE
  5
580
330
1F
100
AcDbEntity
  8
0
  6
Continuous
 62
     7
370
    25
100
AcDbLine
 10
-22.315608433
 20
-36.2749450583
 30
0.0
 11
-22.7044714324
 21
-36.6365828195
 31
0.0
  0
LINE
  5
581
330
1F
100
AcDbEntity
  8
0
  6
Continuous
 62
     7
370
    25
100
AcDbLine
 10
-22.315608433
 20
-36.2749450583
 30
0.0
 11
-22.3998138523
 21
-36.4111405388
 31
0.0
  0
LINE
  5
582
330
1F
100
AcDbEntity
  8
0
  6
Continuous
 62
     7
370
    25
100
AcDbLine
 10
-22.0379158793
 20
-35.9746580843
 30
0.0
 11
-22.315608433
 21
-36.2749450583
 31
0.0
  0
LINE
  5
583
330
1F
100
AcDbEntity
  8
0
  6
Continuous
 62
     7
370
    25
100
AcDbLine
 10
-24.2250377989
 20
-28.6944009317
 30
0.0
 11
-24.5017492311
 21
-28.9333789868
 31
0.0
  0
LINE
  5
584
330
1F
100
AcDbEntity
  8
0
  6
Continuous
 62
     7
370
    25
100
AcDbLine
 10
-24.5017492311
 20
-28.9333789868
 30
0.0
 11
-24.593805774
 21
-29.0432085796
 31
0.0
  0
LINE
  5
585
330
1F
100
AcDbEntity
  8
0
  6
Continuous
 62
     7
370
    25
100
AcDbLine
 10
-23.8754911097
 20
-28.4364021127
 30
0.0
 11
-24.0262737744
 21
-28.4506449375
 31
0.0
  0
LINE
  5
586
330
1F
100
AcDbEntity
  8
0
  6
Continuous
 62
     7
370
    25
100
AcDbLine
 10
-23.8754911097
 20
-28.4364021127
 30
0.0
 11
-23.9652985614
 21
-28.5444469042
 31
0.0
  0
LINE
  5
587
330
1F
100
AcDbEntity
  8
0
  6
Continuous
 62
     7
370
    25
100
AcDbLine
 10
-24.0262737744
 20
-28.4506449375
 30
0.0
 11
-24.1166227345
 21
-28.5587408795
 31
0.0
  0
LINE
  5
588
330
1F
100
AcDbEntity
  8
0
  6
Continuous
 62
     7
370
    25
100
AcDbLine
 10
-23.663364244
 20
-28.4364021127
 30
0.0
 11
-23.8754911097
 21
-28.4364021127
 31
0.0
  0
LINE
  5
589
330
1F
100
AcDbEntity
  8
0
  6
Continuous
 62
     7
370
    25
100
AcDbLine
 10
-23.663364244
 20
-28.4364021127
 30
0.0
 11
-23.752409881
 21
-28.5444469042
 31
0.0
  0
LINE
  5
58A
330
1F
100
AcDbEntity
  8
0
  6
Continuous
 62
     7
370
    25
100
AcDbLine
 10
-23.7444185472
 20
-27.2742385725
 30
0.0
 11
-23.8337552759
 21
-27.3781096669
 31
0.0
  0
LINE
  5
58B
330
1F
100
AcDbEntity
  8
0
  6
Continuous
 62
     7
370
    25
100
AcDbLine
 10
-23.821075663
 20
-26.1751222816
 30
0.0
 11
-23.9106876917
 21
-26.2750461015
 31
0.0
  0
LINE
  5
58C
330
1F
100
AcDbEntity
  8
0
  6
Continuous
 62
     7
370
    25
100
AcDbLine
 10
-23.8949831426
 20
-25.115430511
 30
0.0
 11
-23.9848605964
 21
-25.2115486422
 31
0.0
  0
LINE
  5
58D
330
1F
100
AcDbEntity
  8
0
  6
Continuous
 62
     7
370
    25
100
AcDbLine
 10
-23.9698890599
 20
-24.0414230544
 30
0.0
 11
-24.0600355245
 21
-24.133684085
 31
0.0
  0
LINE
  5
58E
330
1F
100
AcDbEntity
  8
0
  6
Continuous
 62
     7
370
    25
100
AcDbLine
 10
-24.5413447907
 20
-21.8182044024
 30
0.0
 11
-24.8996290834
 21
-21.8182044024
 31
0.0
  0
LINE
  5
58F
330
1F
100
AcDbEntity
  8
0
  6
Continuous
 62
     7
370
    25
100
AcDbLine
 10
-24.5413447907
 20
-21.8182044024
 30
0.0
 11
-24.6335435338
 21
-21.902481151
 31
0.0
  0
LINE
  5
590
330
1F
100
AcDbEntity
  8
0
  6
Continuous
 62
     7
370
    25
100
AcDbLine
 10
-24.8996290834
 20
-21.8182044024
 30
0.0
 11
-24.9931145388
 21
-21.902481151
 31
0.0
  0
LINE
  5
591
330
1F
100
AcDbEntity
  8
0
  6
Continuous
 62
     7
370
    25
100
AcDbLine
 10
-24.2757033455
 20
-21.7074999294
 30
0.0
 11
-24.5413447907
 21
-21.8182044024
 31
0.0
  0
LINE
  5
592
330
1F
100
AcDbEntity
  8
0
  6
Continuous
 62
     7
370
    25
100
AcDbLine
 10
-25.7041179862
 20
1.7753450115
 30
0.0
 11
-25.8775165872
 21
1.8705821838
 31
0.0
  0
LINE
  5
593
330
1F
100
AcDbEntity
  8
0
  6
Continuous
 62
     7
370
    25
100
AcDbLine
 10
-25.7041179862
 20
1.7753450115
 30
0.0
 11
-25.800492616
 21
1.7758001673
 31
0.0
  0
LINE
  5
594
330
1F
100
AcDbEntity
  8
0
  6
Continuous
 62
     7
370
    25
100
AcDbLine
 10
-25.8775165872
 20
1.8705821838
 30
0.0
 11
-25.9745139462
 21
1.8713793663
 31
0.0
  0
LINE
  5
595
330
1F
100
AcDbEntity
  8
0
  6
Continuous
 62
     7
370
    25
100
AcDbLine
 10
-25.0267609502
 20
1.4619800785
 30
0.0
 11
-25.7041179862
 21
1.7753450115
 31
0.0
  0
LINE
  5
596
330
1F
100
AcDbEntity
  8
0
  6
Continuous
 62
     7
370
    25
100
AcDbLine
 10
-25.0267609502
 20
1.4619800785
 30
0.0
 11
-25.1207029764
 21
1.4613098415
 31
0.0
  0
LINE
  5
597
330
1F
100
AcDbEntity
  8
0
  6
Continuous
 62
     7
370
    25
100
AcDbLine
 10
-24.7845548785
 20
1.4281700162
 30
0.0
 11
-25.0267609502
 21
1.4619800785
 31
0.0
  0
LINE
  5
598
330
1F
100
AcDbEntity
  8
0
  6
Continuous
 62
     7
370
    25
100
AcDbLine
 10
-25.2903912363
 20
7.1340971382
 30
0.0
 11
-25.2762275706
 21
7.1352591088
 31
0.0
  0
LINE
  5
599
330
1F
100
AcDbEntity
  8
0
  6
Continuous
 62
     7
370
    25
100
AcDbLine
 10
-25.2903912363
 20
7.1340971382
 30
0.0
 11
-25.3852800423
 21
7.153797269
 31
0.0
  0
LINE
  5
59A
330
1F
100
AcDbEntity
  8
0
  6
Continuous
 62
     7
370
    25
100
AcDbLine
 10
-25.2903912363
 20
8.2304197183
 30
0.0
 11
-25.3852800423
 21
8.2540570906
 31
0.0
  0
LINE
  5
59B
330
1F
100
AcDbEntity
  8
0
  6
Continuous
 62
     7
370
    25
100
AcDbLine
 10
-25.2903912363
 20
9.2511338447
 30
0.0
 11
-25.3852800423
 21
9.2784369245
 31
0.0
  0
LINE
  5
59C
330
1F
100
AcDbEntity
  8
0
  6
Continuous
 62
     7
370
    25
100
AcDbLine
 10
-25.6063295378
 20
10.2350165933
 30
0.0
 11
-25.2903912363
 21
10.3402098874
 31
0.0
  0
LINE
  5
59D
330
1F
100
AcDbEntity
  8
0
  6
Continuous
 62
     7
370
    25
100
AcDbLine
 10
-25.6063295378
 20
10.2350165933
 30
0.0
 11
-25.7023529782
 21
10.2658531075
 31
0.0
  0
ARC
  5
59E
330
1F
100
AcDbEntity
  8
0
  6
Continuous
 62
     7
370
    25
100
AcDbCircle
 10
2.107109521
 20
11.8089790387
 30
0.0
 40
0.8607153052840244
100
AcDbArc
 50
179.3515401309
 51
349.6771185214
  0
ARC
  5
59F
330
1F
100
AcDbEntity
  8
0
  6
Continuous
 62
     7
370
    25
100
AcDbCircle
 10
2.107109521
 20
-7.1703474636
 30
0.0
 40
0.8607153052840234
100
AcDbArc
 50
11.8805853675
 51
180.7469670921
  0
ARC
  5
5A0
330
1F
100
AcDbEntity
  8
0
  6
Continuous
 62
     7
370
    25
100
AcDbCircle
 10
20.0672908492
 20
-6.3690953234
 30
0.0
 40
1.664501511729726
100
AcDbArc
 50
242.4087557059
 51
71.6945089117
  0
ARC
  5
5A1
330
1F
100
AcDbEntity
  8
0
  6
Continuous
 62
     7
370
    25
100
AcDbCircle
 10
20.0672908492
 20
-6.3690953234
 30
0.0
 40
2.182173100977721
100
AcDbArc
 50
73.1432866739
 51
240.9599779437
  0
ARC
  5
5A2
330
1F
100
AcDbEntity
  8
0
  6
Continuous
 62
     7
370
    25
100
AcDbCircle
 10
20.0672908492
 20
-6.3690953234
 30
0.0
 40
0.860715305284024
100
AcDbArc
 50
69.4505423883
 51
244.6527222293
  0
ARC
  5
5A3
330
1F
100
AcDbEntity
  8
0
  6
Continuous
 62
     7
370
    25
100
AcDbCircle
 10
-20.6101809605
 20
-0.3281737356
 30
0.0
 40
1.664501511729715
100
AcDbArc
 50
90.8224463939
 51
279.567869135
  0
ARC
  5
5A4
330
1F
100
AcDbEntity
  8
0
  6
Continuous
 62
     7
370
    25
100
AcDbCircle
 10
-15.5470484204
 20
-14.4696329729
 30
0.0
 40
1.664501511729719
100
AcDbArc
 50
129.906200451
 51
318.1368241108
  0
ARC
  5
5A5
330
1F
100
AcDbEntity
  8
0
  6
Continuous
 62
     7
370
    25
100
AcDbCircle
 10
-15.5470484204
 20
-14.4696329729
 30
0.0
 40
2.182173100977765
100
AcDbArc
 50
319.4200614878
 51
128.622963074
  0
ARC
  5
5A6
330
1F
100
AcDbEntity
  8
0
  6
Continuous
 62
     7
370
    25
100
AcDbCircle
 10
-15.5470484204
 20
-14.4696329729
 30
0.0
 40
0.8607153052840265
100
AcDbArc
 50
316.1482029601
 51
131.8948216016
  0
ARC
  5
5A7
330
1F
100
AcDbEntity
  8
0
  6
Continuous
 62
     7
370
    25
100
AcDbCircle
 10
-7.4657800707
 20
5.7719516783
 30
0.0
 40
1.664501511729715
100
AcDbArc
 50
54.3230273444
 51
254.4304323401
  0
ARC
  5
5A8
330
1F
100
AcDbEntity
  8
0
  6
Continuous
 62
     7
370
    25
100
AcDbCircle
 10
-7.1207922527
 20
-18.9893434496
 30
0.0
 40
1.664501511729715
100
AcDbArc
 50
153.911109772
 51
342.5006542381
  0
ARC
  5
5A9
330
1F
100
AcDbEntity
  8
0
  6
Continuous
 62
     7
370
    25
100
AcDbCircle
 10
-7.1207922527
 20
-18.9893434496
 30
0.0
 40
2.18217310097772
100
AcDbArc
 50
0.0
 51
152.5716004901
  0
ARC
  5
5AA
330
1F
100
AcDbEntity
  8
0
  6
Continuous
 62
     7
370
    25
100
AcDbCircle
 10
-7.4657800707
 20
5.8269213633
 30
0.0
 40
0.8607153052840232
100
AcDbArc
 50
249.2458455012
 51
58.9134312386
  0
ARC
  5
5AB
330
1F
100
AcDbEntity
  8
0
  6
Continuous
 62
     7
370
    25
100
AcDbCircle
 10
-7.1207922527
 20
-18.9893434496
 30
0.0
 40
0.8607153052840255
100
AcDbArc
 50
0.0
 51
155.9865754216
  0
ARC
  5
5AC
330
1F
100
AcDbEntity
  8
0
  6
Continuous
 62
     7
370
    25
100
AcDbCircle
 10
-15.3658010253
 20
-22.5361598008
 30
0.0
 40
1.664501511729717
100
AcDbArc
 50
142.4415627535
 51
328.9603350493
  0
ARC
  5
5AD
330
1F
100
AcDbEntity
  8
0
  6
Continuous
 62
     7
370
    25
100
AcDbCircle
 10
-15.3658010253
 20
-22.5361598008
 30
0.0
 40
2.182173100977838
100
AcDbArc
 50
329.9756872665
 51
141.4262105364
  0
ARC
  5
5AE
330
1F
100
AcDbEntity
  8
0
  6
Continuous
 62
     7
370
    25
100
AcDbCircle
 10
-15.3658010253
 20
-22.5361598008
 30
0.0
 40
0.8607153052840264
100
AcDbArc
 50
0.0
 51
144.0161833683
  0
ARC
  5
5AF
330
1F
100
AcDbEntity
  8
0
  6
Continuous
 62
     7
370
    25
100
AcDbCircle
 10
2.107109521
 20
-0.1058807904
 30
0.0
 40
1.664501511729719
100
AcDbArc
 50
153.0733227185
 51
85.0883996037
  0
ARC
  5
5B0
330
1F
100
AcDbEntity
  8
0
  6
Continuous
 62
     7
370
    25
100
AcDbCircle
 10
2.1903674311
 20
-15.2417737348
 30
0.0
 40
1.664501511729716
100
AcDbArc
 50
177.9433416251
 51
9.2321493481
  0
ARC
  5
5B1
330
1F
100
AcDbEntity
  8
0
  6
Continuous
 62
     7
370
    25
100
AcDbCircle
 10
2.1903674311
 20
-15.2417737348
 30
0.0
 40
2.182173100977719
100
AcDbArc
 50
10.9962619324
 51
176.1792290407
  0
ARC
  5
5B2
330
1F
100
AcDbEntity
  8
0
  6
Continuous
 62
     7
370
    25
100
AcDbCircle
 10
2.1903674311
 20
-15.2417737348
 30
0.0
 40
0.8607153052840236
100
AcDbArc
 50
6.5030110733
 51
180.6724798999
  0
ARC
  5
5B3
330
1F
100
AcDbEntity
  8
0
  6
Continuous
 62
     7
370
    25
100
AcDbCircle
 10
-15.7915304243
 20
-6.3690953234
 30
0.0
 40
1.664501511729716
100
AcDbArc
 50
110.2510532145
 51
300.4501761605
  0
ARC
  5
5B4
330
1F
100
AcDbEntity
  8
0
  6
Continuous
 62
     7
370
    25
100
AcDbCircle
 10
20.0672908492
 20
-14.4696329729
 30
0.0
 40
1.664501511729713
100
AcDbArc
 50
225.7576126145
 51
53.4336700162
  0
ARC
  5
5B5
330
1F
100
AcDbEntity
  8
0
  6
Continuous
 62
     7
370
    25
100
AcDbCircle
 10
20.0672908492
 20
-14.4696329729
 30
0.0
 40
2.182173100977725
100
AcDbArc
 50
54.6300371558
 51
224.561245475
  0
ARC
  5
5B6
330
1F
100
AcDbEntity
  8
0
  6
Continuous
 62
     7
370
    25
100
AcDbCircle
 10
-15.7915304243
 20
-6.3690953234
 30
0.0
 40
0.8607153052840216
100
AcDbArc
 50
297.9850506925
 51
112.7161786825
  0
ARC
  5
5B7
330
1F
100
AcDbEntity
  8
0
  6
Continuous
 62
     7
370
    25
100
AcDbCircle
 10
20.0672908492
 20
-14.4696329729
 30
0.0
 40
0.8607153052840237
100
AcDbArc
 50
51.5792018796
 51
227.6120807512
  0
ARC
  5
5B8
330
1F
100
AcDbEntity
  8
0
  6
Continuous
 62
     7
370
    25
100
AcDbCircle
 10
11.6611092041
 20
-18.9893434496
 30
0.0
 40
1.664501511729755
100
AcDbArc
 50
202.9115190106
 51
31.1510871865
  0
ARC
  5
5B9
330
1F
100
AcDbEntity
  8
0
  6
Continuous
 62
     7
370
    25
100
AcDbCircle
 10
11.6611092041
 20
-18.9893434496
 30
0.0
 40
2.182173100977721
100
AcDbArc
 50
32.4357264171
 51
201.62687978
  0
ARC
  5
5BA
330
1F
100
AcDbEntity
  8
0
  6
Continuous
 62
     7
370
    25
100
AcDbCircle
 10
11.6611092041
 20
-18.9893434496
 30
0.0
 40
0.8607153052840223
100
AcDbArc
 50
29.160302009
 51
204.9023041881
  0
ARC
  5
5BB
330
1F
100
AcDbEntity
  8
0
  6
Continuous
 62
     7
370
    25
100
AcDbCircle
 10
21.8041428448
 20
6.2053014186
 30
0.0
 40
1.664501511729724
100
AcDbArc
 50
277.9205893427
 51
106.9401258436
  0
ARC
  5
5BC
330
1F
100
AcDbEntity
  8
0
  6
Continuous
 62
     7
370
    25
100
AcDbCircle
 10
19.7244804422
 20
-22.5361598008
 30
0.0
 40
1.664501511729711
100
AcDbArc
 50
214.4251172849
 51
40.6807207962
  0
ARC
  5
5BD
330
1F
100
AcDbEntity
  8
0
  6
Continuous
 62
     7
370
    25
100
AcDbCircle
 10
19.7244804422
 20
-22.5361598008
 30
0.0
 40
2.182173100977721
100
AcDbArc
 50
41.654955993
 51
213.450882088
  0
ARC
  5
5BE
330
1F
100
AcDbEntity
  8
0
  6
Continuous
 62
     7
370
    25
100
AcDbCircle
 10
21.8041428448
 20
6.2053014186
 30
0.0
 40
0.8607153052840231
100
AcDbArc
 50
104.760598195
 51
280.1001169913
  0
ARC
  5
5BF
330
1F
100
AcDbEntity
  8
0
  6
Continuous
 62
     7
370
    25
100
AcDbCircle
 10
19.7244804422
 20
-22.5361598008
 30
0.0
 40
0.860715305284026
100
AcDbArc
 50
39.1697196338
 51
215.9361184473
  0
ARC
  5
5C0
330
1F
100
AcDbEntity
  8
0
  6
Continuous
 62
     7
370
    25
100
AcDbCircle
 10
2.1903674311
 20
-23.2122442035
 30
0.0
 40
1.664501511729715
100
AcDbArc
 50
178.6037224144
 51
6.2747149024
  0
ARC
  5
5C1
330
1F
100
AcDbEntity
  8
0
  6
Continuous
 62
     7
370
    25
100
AcDbCircle
 10
2.1903674311
 20
-23.2122442035
 30
0.0
 40
2.18217310097772
100
AcDbArc
 50
7.470289051
 51
177.4081482659
  0
ARC
  5
5C2
330
1F
100
AcDbEntity
  8
0
  6
Continuous
 62
     7
370
    25
100
AcDbCircle
 10
2.107109521
 20
11.8089790387
 30
0.0
 40
1.664501511729715
100
AcDbArc
 50
0.0
 51
183.8996158495
  0
ARC
  5
5C3
330
1F
100
AcDbEntity
  8
0
  6
Continuous
 62
     7
370
    25
100
AcDbCircle
 10
2.107109521
 20
11.8089790387
 30
0.0
 40
2.182173100977721
100
AcDbArc
 50
186.8588387125
 51
342.1698199397
  0
ARC
  5
5C4
330
1F
100
AcDbEntity
  8
0
  6
Continuous
 62
     7
370
    25
100
AcDbCircle
 10
11.4498073148
 20
-27.0129243861
 30
0.0
 40
1.664501511729716
100
AcDbArc
 50
196.6671575365
 51
0.0
  0
ARC
  5
5C5
330
1F
100
AcDbEntity
  8
0
  6
Continuous
 62
     7
370
    25
100
AcDbCircle
 10
-17.6537225051
 20
6.2053014186
 30
0.0
 40
1.664501511729716
100
AcDbArc
 50
71.4252259214
 51
261.3050021091
  0
ARC
  5
5C6
330
1F
100
AcDbEntity
  8
0
  6
Continuous
 62
     7
370
    25
100
AcDbCircle
 10
-17.6537225051
 20
6.2053014186
 30
0.0
 40
2.182173100977728
100
AcDbArc
 50
262.8471397469
 51
69.8830882836
  0
ARC
  5
5C7
330
1F
100
AcDbEntity
  8
0
  6
Continuous
 62
     7
370
    25
100
AcDbCircle
 10
-17.6537225051
 20
6.2053014186
 30
0.0
 40
0.860715305284022
100
AcDbArc
 50
258.9172151403
 51
73.8130128902
  0
ARC
  5
5C8
330
1F
100
AcDbEntity
  8
0
  6
Continuous
 62
     7
370
    25
100
AcDbCircle
 10
-20.6101809605
 20
-0.3281737356
 30
0.0
 40
2.182173100977728
100
AcDbArc
 50
280.9318295766
 51
89.4584859523
  0
ARC
  5
5C9
330
1F
100
AcDbEntity
  8
0
  6
Continuous
 62
     7
370
    25
100
AcDbCircle
 10
-15.1030830467
 20
-30.62868404
 30
0.0
 40
1.664501511729718
100
AcDbArc
 50
150.6585597306
 51
335.9396316133
  0
ARC
  5
5CA
330
1F
100
AcDbEntity
  8
0
  6
Continuous
 62
     7
370
    25
100
AcDbCircle
 10
-20.6101809605
 20
-0.3281737356
 30
0.0
 40
0.8607153052840211
100
AcDbArc
 50
277.4546822304
 51
92.9356332985
  0
ARC
  5
5CB
330
1F
100
AcDbEntity
  8
0
  6
Continuous
 62
     7
370
    25
100
AcDbCircle
 10
-7.4657800707
 20
5.7719516783
 30
0.0
 40
2.182173100977723
100
AcDbArc
 50
257.6069293151
 51
51.1465303693
  0
ARC
  5
5CC
330
1F
100
AcDbEntity
  8
0
  6
Continuous
 62
     7
370
    25
100
AcDbCircle
 10
-6.8276518281
 20
-35.0805039319
 30
0.0
 40
1.664501511729717
100
AcDbArc
 50
165.2348760172
 51
350.311841161
  0
ARC
  5
5CD
330
1F
100
AcDbEntity
  8
0
  6
Continuous
 62
     7
370
    25
100
AcDbCircle
 10
2.107109521
 20
5.8269213633
 30
0.0
 40
1.664501511729715
100
AcDbArc
 50
324.0295160255
 51
189.6809043154
  0
ARC
  5
5CE
330
1F
100
AcDbEntity
  8
0
  6
Continuous
 62
     7
370
    25
100
AcDbCircle
 10
2.107109521
 20
5.8269213633
 30
0.0
 40
2.182173100977721
100
AcDbArc
 50
197.4243387647
 51
316.2860815762
  0
ARC
  5
5CF
330
1F
100
AcDbEntity
  8
0
  6
Continuous
 62
     7
370
    25
100
AcDbCircle
 10
-14.7865691692
 20
-39.1658531079
 30
0.0
 40
1.664501511729721
100
AcDbArc
 50
156.516420605
 51
340.8713512795
  0
ARC
  5
5D0
330
1F
100
AcDbEntity
  8
0
  6
Continuous
 62
     7
370
    25
100
AcDbCircle
 10
2.107109521
 20
5.8269213633
 30
0.0
 40
0.8607153052840233
100
AcDbArc
 50
178.4271658857
 51
335.2832544551
  0
ARC
  5
5D1
330
1F
100
AcDbEntity
  8
0
  6
Continuous
 62
     7
370
    25
100
AcDbCircle
 10
2.1903674311
 20
-31.2952257823
 30
0.0
 40
1.664501511729716
100
AcDbArc
 50
178.9465886613
 51
4.7358502543
  0
ARC
  5
5D2
330
1F
100
AcDbEntity
  8
0
  6
Continuous
 62
     7
370
    25
100
AcDbCircle
 10
2.107109521
 20
-0.1058807904
 30
0.0
 40
0.8607153052840236
100
AcDbArc
 50
54.4681143075
 51
183.6936080147
  0
ARC
  5
5D3
330
1F
100
AcDbEntity
  8
0
  6
Continuous
 62
     7
370
    25
100
AcDbCircle
 10
-15.7915304243
 20
-6.3690953234
 30
0.0
 40
2.182173100977717
100
AcDbArc
 50
302.0425562
 51
108.658673175
  0
ARC
  5
5D4
330
1F
100
AcDbEntity
  8
0
  6
Continuous
 62
     7
370
    25
100
AcDbCircle
 10
19.454863882
 20
-30.62868404
 30
0.0
 40
1.664501511729741
100
AcDbArc
 50
207.0128147459
 51
32.1535457343
  0
ARC
  5
5D5
330
1F
100
AcDbEntity
  8
0
  6
Continuous
 62
     7
370
    25
100
AcDbCircle
 10
-6.9790855305
 20
-27.0129243861
 30
0.0
 40
2.18217310097772
100
AcDbArc
 50
0.0
 51
159.9987262275
  0
ARC
  5
5D6
330
1F
100
AcDbEntity
  8
0
  6
Continuous
 62
     7
370
    25
100
AcDbCircle
 10
19.454863882
 20
-30.62868404
 30
0.0
 40
2.182173100977715
100
AcDbArc
 50
32.9537609202
 51
206.21259956
  0
ARC
  5
5D7
330
1F
100
AcDbEntity
  8
0
  6
Continuous
 62
     7
370
    25
100
AcDbCircle
 10
11.6611092041
 20
5.8269213633
 30
0.0
 40
1.66450151172972
100
AcDbArc
 50
283.1945566978
 51
120.0927618516
  0
ARC
  5
5D8
330
1F
100
AcDbEntity
  8
0
  6
Continuous
 62
     7
370
    25
100
AcDbCircle
 10
11.6611092041
 20
5.8269213633
 30
0.0
 40
2.182173100977718
100
AcDbArc
 50
122.7498085024
 51
280.537510047
  0
ARC
  5
5D9
330
1F
100
AcDbEntity
  8
0
  6
Continuous
 62
     7
370
    25
100
AcDbCircle
 10
11.2871647904
 20
-35.0805039319
 30
0.0
 40
1.664501511729716
100
AcDbArc
 50
192.9530101336
 51
0.0
  0
ARC
  5
5DA
330
1F
100
AcDbEntity
  8
0
  6
Continuous
 62
     7
370
    25
100
AcDbCircle
 10
11.6611092041
 20
5.8269213633
 30
0.0
 40
0.8607153052840224
100
AcDbArc
 50
116.0010798843
 51
287.2862386652
  0
ARC
  5
5DB
330
1F
100
AcDbEntity
  8
0
  6
Continuous
 62
     7
370
    25
100
AcDbCircle
 10
21.8041428448
 20
6.2053014186
 30
0.0
 40
2.18217310097772
100
AcDbArc
 50
108.3471027754
 51
276.5136124109
  0
ARC
  5
5DC
330
1F
100
AcDbEntity
  8
0
  6
Continuous
 62
     7
370
    25
100
AcDbCircle
 10
2.1903674311
 20
-39.7547867091
 30
0.0
 40
1.664501511729716
100
AcDbArc
 50
179.1619304116
 51
3.7684809078
  0
ARC
  5
5DD
330
1F
100
AcDbEntity
  8
0
  6
Continuous
 62
     7
370
    25
100
AcDbCircle
 10
22.6215597336
 20
-0.4365676228
 30
0.0
 40
1.664501511729718
100
AcDbArc
 50
260.0365696201
 51
88.8794208731
  0
ARC
  5
5DE
330
1F
100
AcDbEntity
  8
0
  6
Continuous
 62
     7
370
    25
100
AcDbCircle
 10
22.6215597336
 20
-0.4365676228
 30
0.0
 40
2.182173100977722
100
AcDbArc
 50
90.2586679274
 51
258.6573225659
  0
ARC
  5
5DF
330
1F
100
AcDbEntity
  8
0
  6
Continuous
 62
     7
370
    25
100
AcDbCircle
 10
22.6215597336
 20
-0.4365676228
 30
0.0
 40
0.8607153052840224
100
AcDbArc
 50
86.7426555181
 51
262.1733349752
  0
ARC
  5
5E0
330
1F
100
AcDbEntity
  8
0
  6
Continuous
 62
     7
370
    25
100
AcDbCircle
 10
2.107109521
 20
-7.1703474636
 30
0.0
 40
1.664501511729715
100
AcDbArc
 50
175.5012209537
 51
0.0
  0
ARC
  5
5E1
330
1F
100
AcDbEntity
  8
0
  6
Continuous
 62
     7
370
    25
100
AcDbCircle
 10
2.107109521
 20
-7.1703474636
 30
0.0
 40
2.182173100977719
100
AcDbArc
 50
20.5511914254
 51
172.0763610343
  0
ARC
  5
5E2
330
1F
100
AcDbEntity
  8
0
  6
Continuous
 62
     7
370
    25
100
AcDbCircle
 10
19.1556535015
 20
-39.1658531079
 30
0.0
 40
0.8607153052840241
100
AcDbArc
 50
24.9323797447
 51
202.7216450677
  0
ARC
  5
5E3
330
1F
100
AcDbEntity
  8
0
  6
Continuous
 62
     7
370
    25
100
AcDbCircle
 10
11.4498073148
 20
-27.0129243861
 30
0.0
 40
2.18217310097772
100
AcDbArc
 50
23.9073408446
 51
195.6915247376
  0
ARC
  5
5E4
330
1F
100
AcDbEntity
  8
0
  6
Continuous
 62
     7
370
    25
100
AcDbCircle
 10
11.4498073148
 20
-27.0129243861
 30
0.0
 40
0.8607153052840247
100
AcDbArc
 50
21.4185441052
 51
198.1803214771
  0
ARC
  5
5E5
330
1F
100
AcDbEntity
  8
0
  6
Continuous
 62
     7
370
    25
100
AcDbCircle
 10
2.1903674311
 20
-31.2952257823
 30
0.0
 40
0.8607153052840246
100
AcDbArc
 50
3.3375692196
 51
180.344869696
  0
ARC
  5
5E6
330
1F
100
AcDbEntity
  8
0
  6
Continuous
 62
     7
370
    25
100
AcDbCircle
 10
-6.9790855305
 20
-27.0129243861
 30
0.0
 40
1.664501511729718
100
AcDbArc
 50
160.9965726692
 51
347.4033120733
  0
ARC
  5
5E7
330
1F
100
AcDbEntity
  8
0
  6
Continuous
 62
     7
370
    25
100
AcDbCircle
 10
-6.8276518281
 20
-35.0805039319
 30
0.0
 40
0.8607153052840227
100
AcDbArc
 50
349.0856956736
 51
166.4610215046
  0
ARC
  5
5E8
330
1F
100
AcDbEntity
  8
0
  6
Continuous
 62
     7
370
    25
100
AcDbCircle
 10
-6.9790855305
 20
-27.0129243861
 30
0.0
 40
0.8607153052840241
100
AcDbArc
 50
345.8557755098
 51
162.5441092327
  0
ARC
  5
5E9
330
1F
100
AcDbEntity
  8
0
  6
Continuous
 62
     7
370
    25
100
AcDbCircle
 10
-15.1030830467
 20
-30.62868404
 30
0.0
 40
2.182173100978426
100
AcDbArc
 50
336.7617388362
 51
149.8364525078
  0
ARC
  5
5EA
330
1F
100
AcDbEntity
  8
0
  6
Continuous
 62
     7
370
    25
100
AcDbCircle
 10
11.2871647904
 20
-35.0805039319
 30
0.0
 40
2.182173100977721
100
AcDbArc
 50
18.7392203916
 51
192.1736723788
  0
ARC
  5
5EB
330
1F
100
AcDbEntity
  8
0
  6
Continuous
 62
     7
370
    25
100
AcDbCircle
 10
-15.1030830467
 20
-30.62868404
 30
0.0
 40
0.8607153052840223
100
AcDbArc
 50
0.0
 51
151.9340261933
  0
ARC
  5
5EC
330
1F
100
AcDbEntity
  8
0
  6
Continuous
 62
     7
370
    25
100
AcDbCircle
 10
-6.8276518281
 20
-35.0805039319
 30
0.0
 40
2.182173100977718
100
AcDbArc
 50
351.1021106065
 51
164.4446065718
  0
ARC
  5
5ED
330
1F
100
AcDbEntity
  8
0
  6
Continuous
 62
     7
370
    25
100
AcDbCircle
 10
2.1903674311
 20
-39.7547867091
 30
0.0
 40
2.182173100977718
100
AcDbArc
 50
4.4854008167
 51
178.4450105027
  0
ARC
  5
5EE
330
1F
100
AcDbEntity
  8
0
  6
Continuous
 62
     7
370
    25
100
AcDbCircle
 10
-14.7865691692
 20
-39.1658531079
 30
0.0
 40
2.182173100977724
100
AcDbArc
 50
0.0
 51
155.8387192747
  0
ARC
  5
5EF
330
1F
100
AcDbEntity
  8
0
  6
Continuous
 62
     7
370
    25
100
AcDbCircle
 10
2.1903674311
 20
-39.7547867091
 30
0.0
 40
0.8607153052840214
100
AcDbArc
 50
2.6559964308
 51
180.2744148886
  0
ARC
  5
5F0
330
1F
100
AcDbEntity
  8
0
  6
Continuous
 62
     7
370
    25
100
AcDbCircle
 10
2.1903674311
 20
-31.2952257823
 30
0.0
 40
2.182173100977722
100
AcDbArc
 50
5.637263056
 51
178.0451758595
  0
ARC
  5
5F1
330
1F
100
AcDbEntity
  8
0
  6
Continuous
 62
     7
370
    25
100
AcDbCircle
 10
-14.7865691692
 20
-39.1658531079
 30
0.0
 40
0.8607153052840246
100
AcDbArc
 50
0.0
 51
157.5681151433
  0
ARC
  5
5F2
330
1F
100
AcDbEntity
  8
0
  6
Continuous
 62
     7
370
    25
100
AcDbCircle
 10
2.1903674311
 20
-23.2122442035
 30
0.0
 40
0.8607153052840231
100
AcDbArc
 50
4.421471839
 51
180.4569654779
  0
ARC
  5
5F3
330
1F
100
AcDbEntity
  8
0
  6
Continuous
 62
     7
370
    25
100
AcDbCircle
 10
19.1556535015
 20
-39.1658531079
 30
0.0
 40
2.182173100977721
100
AcDbArc
 50
26.6303968261
 51
201.0236279863
  0
ARC
  5
5F4
330
1F
100
AcDbEntity
  8
0
  6
Continuous
 62
     7
370
    25
100
AcDbCircle
 10
11.2871647904
 20
-35.0805039319
 30
0.0
 40
0.8607153052840207
100
AcDbArc
 50
16.7506738387
 51
194.1622189317
  0
ARC
  5
5F5
330
1F
100
AcDbEntity
  8
0
  6
Continuous
 62
     7
370
    25
100
AcDbCircle
 10
19.1556535015
 20
-39.1658531079
 30
0.0
 40
1.664501511729985
100
AcDbArc
 50
201.6890249849
 51
25.9649998275
  0
ARC
  5
5F6
330
1F
100
AcDbEntity
  8
0
  6
Continuous
 62
     7
370
    25
100
AcDbCircle
 10
19.454863882
 20
-30.62868404
 30
0.0
 40
0.860715305284024
100
AcDbArc
 50
30.9119920072
 51
208.254368473
  0
ARC
  5
5F7
330
1F
100
AcDbEntity
  8
0
  6
Continuous
 62
     7
370
    25
100
AcDbCircle
 10
27.3066506805
 20
18.9567991151
 30
0.0
 40
0.4376542552328327
100
AcDbArc
 50
32.2409166094
 51
115.6118748542
  0
ARC
  5
5F8
330
1F
100
AcDbEntity
  8
0
  6
Continuous
 62
     7
370
    25
100
AcDbCircle
 10
27.4006545013
 20
19.0189583112
 30
0.0
 40
0.4392260101999615
100
AcDbArc
 50
32.2409166094
 51
327.7590833906
  0
ARC
  5
5F9
330
1F
100
AcDbEntity
  8
0
  6
Continuous
 62
     7
370
    25
100
AcDbCircle
 10
24.8074821594
 20
33.36580883
 30
0.0
 40
0.3764879680386478
100
AcDbArc
 50
32.4833546822
 51
132.6965134923
  0
ARC
  5
5FA
330
1F
100
AcDbEntity
  8
0
  6
Continuous
 62
     7
370
    25
100
AcDbCircle
 10
24.8925106749
 20
33.479715341
 30
0.0
 40
0.3778400555066523
100
AcDbArc
 50
32.4833546821
 51
327.5166453179
  0
ARC
  5
5FB
330
1F
100
AcDbEntity
  8
0
  6
Continuous
 62
     7
370
    25
100
AcDbCircle
 10
19.3544354264
 20
38.4040089971
 30
0.0
 40
0.4576986815358864
100
AcDbArc
 50
342.3656782481
 51
41.3303203698
  0
ARC
  5
5FC
330
1F
100
AcDbEntity
  8
0
  6
Continuous
 62
     7
370
    25
100
AcDbCircle
 10
19.419880325
 20
38.5360092797
 30
0.0
 40
0.459342422382806
100
AcDbArc
 50
138.6696796302
 51
41.3303203698
  0
ARC
  5
5FD
330
1F
100
AcDbEntity
  8
0
  6
Continuous
 62
     7
370
    25
100
AcDbCircle
 10
-17.1357560892
 20
47.6435562934
 30
0.0
 40
0.453333177102814
100
AcDbArc
 50
133.892796162
 51
190.6330961362
  0
ARC
  5
5FE
330
1F
100
AcDbEntity
  8
0
  6
Continuous
 62
     7
370
    25
100
AcDbCircle
 10
-17.2013590191
 20
47.8087387151
 30
0.0
 40
0.4549612400414254
100
AcDbArc
 50
133.892796162
 51
46.107203838
  0
ARC
  5
5FF
330
1F
100
AcDbEntity
  8
0
  6
Continuous
 62
     7
370
    25
100
AcDbCircle
 10
-19.3227306063
 20
47.656126002
 30
0.0
 40
0.4321528501787126
100
AcDbArc
 50
133.3752524723
 51
192.4327385223
  0
ARC
  5
600
330
1F
100
AcDbEntity
  8
0
  6
Continuous
 62
     7
370
    25
100
AcDbCircle
 10
-19.396187654
 20
47.8213535655
 30
0.0
 40
0.4337048478589012
100
AcDbArc
 50
133.3752524723
 51
46.6247475277
  0
ARC
  5
601
330
1F
100
AcDbEntity
  8
0
  6
Continuous
 62
     7
370
    25
100
AcDbCircle
 10
-18.168834524
 20
47.6635912717
 30
0.0
 40
0.4569816678329539
100
AcDbArc
 50
137.8523988754
 51
191.7490620002
  0
ARC
  5
602
330
1F
100
AcDbEntity
  8
0
  6
Continuous
 62
     7
370
    25
100
AcDbCircle
 10
-18.2381475656
 20
47.8288456453
 30
0.0
 40
0.4586228336566823
100
AcDbArc
 50
137.8523988754
 51
42.1476011246
  0
ARC
  5
603
330
1F
100
AcDbEntity
  8
0
  6
Continuous
 62
     7
370
    25
100
AcDbCircle
 10
-16.0443905346
 20
47.6228158353
 30
0.0
 40
0.4412044331277166
100
AcDbArc
 50
128.0514661291
 51
189.2358064345
  0
ARC
  5
604
330
1F
100
AcDbEntity
  8
0
  6
Continuous
 62
     7
370
    25
100
AcDbCircle
 10
-16.1060740253
 20
47.7879237714
 30
0.0
 40
0.4427889379074461
100
AcDbArc
 50
128.0514661291
 51
51.9485338709
  0
ARC
  5
605
330
1F
100
AcDbEntity
  8
0
  6
Continuous
 62
     7
370
    25
100
AcDbCircle
 10
18.1203321155
 20
38.3747246516
 30
0.0
 40
0.4046746319630936
100
AcDbArc
 50
343.8150582046
 51
55.0143462224
  0
ARC
  5
606
330
1F
100
AcDbEntity
  8
0
  6
Continuous
 62
     7
370
    25
100
AcDbCircle
 10
18.1813449585
 20
38.5066197649
 30
0.0
 40
0.4061279466636022
100
AcDbArc
 50
124.9856537776
 51
55.0143462224
  0
ARC
  5
607
330
1F
100
AcDbEntity
  8
0
  6
Continuous
 62
     7
370
    25
100
AcDbCircle
 10
26.8651015463
 20
-1.9776410914
 30
0.0
 40
0.3927247251628275
100
AcDbArc
 50
51.0761213615
 51
308.9238786385
  0
ARC
  5
608
330
1F
100
AcDbEntity
  8
0
  6
Continuous
 62
     7
370
    25
100
AcDbCircle
 10
20.4232181997
 20
38.3748797912
 30
0.0
 40
0.4520393524825619
100
AcDbArc
 50
342.418828692
 51
47.1474651672
  0
ARC
  5
609
330
1F
100
AcDbEntity
  8
0
  6
Continuous
 62
     7
370
    25
100
AcDbCircle
 10
20.4925014356
 20
38.5067754616
 30
0.0
 40
0.4536627688874141
100
AcDbArc
 50
132.8525348328
 51
47.1474651672
  0
ARC
  5
60A
330
1F
100
AcDbEntity
  8
0
  6
Continuous
 62
     7
370
    25
100
AcDbCircle
 10
26.8669022725
 20
-4.1255856522
 30
0.0
 40
0.3993298071945954
100
AcDbArc
 50
52.165274189
 51
307.834725811
  0
ARC
  5
60B
330
1F
100
AcDbEntity
  8
0
  6
Continuous
 62
     7
370
    25
100
AcDbCircle
 10
24.7936011053
 20
35.6034288793
 30
0.0
 40
0.3682933972602942
100
AcDbArc
 50
25.8410467859
 51
133.7104691643
  0
ARC
  5
60C
330
1F
100
AcDbEntity
  8
0
  6
Continuous
 62
     7
370
    25
100
AcDbCircle
 10
24.8785797695
 20
35.7253713923
 30
0.0
 40
0.369616055430708
100
AcDbArc
 50
25.8410467859
 51
334.1589532141
  0
ARC
  5
60D
330
1F
100
AcDbEntity
  8
0
  6
Continuous
 62
     7
370
    25
100
AcDbCircle
 10
24.8140467684
 20
34.5066764455
 30
0.0
 40
0.3929652579630593
100
AcDbArc
 50
37.6767433452
 51
133.5341544152
  0
ARC
  5
60E
330
1F
100
AcDbEntity
  8
0
  6
Continuous
 62
     7
370
    25
100
AcDbCircle
 10
24.8990988595
 20
34.6246801733
 30
0.0
 40
0.3943765205948754
100
AcDbArc
 50
37.6767433451
 51
322.3232566549
  0
ARC
  5
60F
330
1F
100
AcDbEntity
  8
0
  6
Continuous
 62
     7
370
    25
100
AcDbCircle
 10
27.2600637311
 20
20.076513106
 30
0.0
 40
0.4638577675516091
100
AcDbArc
 50
26.0428670046
 51
119.2298052827
  0
ARC
  5
610
330
1F
100
AcDbEntity
  8
0
  6
Continuous
 62
     7
370
    25
100
AcDbCircle
 10
27.3539002434
 20
20.1426935494
 30
0.0
 40
0.4655236276260387
100
AcDbArc
 50
26.0428670046
 51
333.9571329954
  0
ARC
  5
611
330
1F
100
AcDbEntity
  8
0
  6
Continuous
 62
     7
370
    25
100
AcDbCircle
 10
27.3145563629
 20
17.8805027996
 30
0.0
 40
0.4528742379590828
100
AcDbArc
 50
39.8660521514
 51
112.0238418001
  0
ARC
  5
612
330
1F
100
AcDbEntity
  8
0
  6
Continuous
 62
     7
370
    25
100
AcDbCircle
 10
27.4085885755
 20
17.9387966749
 30
0.0
 40
0.4545006527020228
100
AcDbArc
 50
39.8660521514
 51
320.1339478486
  0
ARC
  5
613
330
1F
100
AcDbEntity
  8
0
  6
Continuous
 62
     7
370
    25
100
AcDbCircle
 10
-25.4465536568
 20
9.9918665272
 30
0.0
 40
0.3844716773773096
100
AcDbArc
 50
279.1703855128
 51
80.8296144872
  0
ARC
  5
614
330
1F
100
AcDbEntity
  8
0
  6
Continuous
 62
     7
370
    25
100
AcDbCircle
 10
-25.4737708156
 20
23.9423197525
 30
0.0
 40
1.01781605584776
100
AcDbArc
 50
285.79091256
 51
74.20908744
  0
ARC
  5
615
330
1F
100
AcDbEntity
  8
0
  6
Continuous
 62
     7
370
    25
100
AcDbCircle
 10
-25.3664108277
 20
26.538662415
 30
0.0
 40
0.3791618851361129
100
AcDbArc
 50
273.6011221246
 51
86.3988779623
  0
ARC
  5
616
330
1F
100
AcDbEntity
  8
0
  6
Continuous
 62
     7
370
    25
100
AcDbCircle
 10
-25.3425956454
 20
27.639148457
 30
0.0
 40
0.3541509585763372
100
AcDbArc
 50
270.0
 51
90.0
  0
ARC
  5
617
330
1F
100
AcDbEntity
  8
0
  6
Continuous
 62
     7
370
    25
100
AcDbCircle
 10
-25.3425956454
 20
28.7122046548
 30
0.0
 40
0.3583922874215659
100
AcDbArc
 50
270.0
 51
90.0
  0
ARC
  5
618
330
1F
100
AcDbEntity
  8
0
  6
Continuous
 62
     7
370
    25
100
AcDbCircle
 10
-25.3767016976
 20
29.7589462302
 30
0.0
 40
0.395861573691059
100
AcDbArc
 50
274.9425320869
 51
85.0574679131
  0
ARC
  5
619
330
1F
100
AcDbEntity
  8
0
  6
Continuous
 62
     7
370
    25
100
AcDbCircle
 10
-25.391215599
 20
30.9041111248
 30
0.0
 40
0.4108250681954173
100
AcDbArc
 50
276.7967183684
 51
83.2032816316
  0
ARC
  5
61A
330
1F
100
AcDbEntity
  8
0
  6
Continuous
 62
     7
370
    25
100
AcDbCircle
 10
-25.8178550825
 20
34.7595134227
 30
0.0
 40
0.780832658712282
100
AcDbArc
 50
277.0215283403
 51
82.9784716592
  0
ARC
  5
61B
330
1F
100
AcDbEntity
  8
0
  6
Continuous
 62
     7
370
    25
100
AcDbCircle
 10
26.894431349
 20
-0.8817641191
 30
0.0
 40
0.3958363408927644
100
AcDbArc
 50
56.6842410702
 51
303.3157589299
  0
ARC
  5
61C
330
1F
100
AcDbEntity
  8
0
  6
Continuous
 62
     7
370
    25
100
AcDbCircle
 10
26.8512546069
 20
-2.9952411371
 30
0.0
 40
0.3882902597445167
100
AcDbArc
 50
47.8461246048
 51
312.1538753953
  0
ARC
  5
61D
330
1F
100
AcDbEntity
  8
0
  6
Continuous
 62
     7
370
    25
100
AcDbCircle
 10
28.2736891556
 20
-13.4563690794
 30
0.0
 40
0.4365929950426721
100
AcDbArc
 50
41.0096859146
 51
318.9903140854
  0
ARC
  5
61E
330
1F
100
AcDbEntity
  8
0
  6
Continuous
 62
     7
370
    25
100
AcDbCircle
 10
28.3007060595
 20
-14.6345684228
 30
0.0
 40
0.4075642379131363
100
AcDbArc
 50
42.0931285052
 51
317.9068714949
  0
ARC
  5
61F
330
1F
100
AcDbEntity
  8
0
  6
Continuous
 62
     7
370
    25
100
AcDbCircle
 10
28.3012261292
 20
-15.6609868523
 30
0.0
 40
0.4136033349222971
100
AcDbArc
 50
43.1166296451
 51
316.8833703549
  0
ARC
  5
620
330
1F
100
AcDbEntity
  8
0
  6
Continuous
 62
     7
370
    25
100
AcDbCircle
 10
28.2891489124
 20
-16.8853400723
 30
0.0
 40
0.4166193736320989
100
AcDbArc
 50
41.0908727347
 51
318.9091272651
  0
ARC
  5
621
330
1F
100
AcDbEntity
  8
0
  6
Continuous
 62
     7
370
    25
100
AcDbCircle
 10
8.1822487908
 20
-44.0030599932
 30
0.0
 40
0.927096110639735
100
AcDbArc
 50
0.9651122897
 51
179.0348877103
  0
ARC
  5
622
330
1F
100
AcDbEntity
  8
0
  6
Continuous
 62
     7
370
    25
100
AcDbCircle
 10
5.2627631062
 20
-44.4449451861
 30
0.0
 40
0.4422277245884706
100
AcDbArc
 50
358.791929461
 51
181.208070539
  0
ARC
  5
623
330
1F
100
AcDbEntity
  8
0
  6
Continuous
 62
     7
370
    25
100
AcDbCircle
 10
4.1342431689
 20
-44.4160783893
 30
0.0
 40
0.3978318359676218
100
AcDbArc
 50
354.4913330717
 51
185.5086669283
  0
ARC
  5
624
330
1F
100
AcDbEntity
  8
0
  6
Continuous
 62
     7
370
    25
100
AcDbCircle
 10
3.0188585909
 20
-44.4008457277
 30
0.0
 40
0.3843258735346904
100
AcDbArc
 50
352.009750645
 51
187.990249355
  0
ARC
  5
625
330
1F
100
AcDbEntity
  8
0
  6
Continuous
 62
     7
370
    25
100
AcDbCircle
 10
1.9254737088
 20
-44.4044533032
 30
0.0
 40
0.416583498859041
100
AcDbArc
 50
353.132077433
 51
186.867922567
  0
ARC
  5
626
330
1F
100
AcDbEntity
  8
0
  6
Continuous
 62
     7
370
    25
100
AcDbCircle
 10
0.8109871336
 20
-44.4365400662
 30
0.0
 40
0.4636346631627682
100
AcDbArc
 50
357.8085583652
 51
182.1914416348
  0
ARC
  5
627
330
1F
100
AcDbEntity
  8
0
  6
Continuous
 62
     7
370
    25
100
AcDbCircle
 10
-2.1358919954
 20
-44.5761765896
 30
0.0
 40
0.5920903891148871
100
AcDbArc
 50
356.8978696847
 51
183.1021303153
  0
ARC
  5
628
330
1F
100
AcDbEntity
  8
0
  6
Continuous
 62
     7
370
    25
100
AcDbCircle
 10
-23.9440394784
 20
-28.0884471262
 30
0.0
 40
0.4946288509994047
100
AcDbArc
 50
292.7941205433
 51
75.1850686559
  0
ARC
  5
629
330
1F
100
AcDbEntity
  8
0
  6
Continuous
 62
     7
370
    25
100
AcDbCircle
 10
-23.9003098372
 20
-26.9877429634
 30
0.0
 40
0.3959995869672492
100
AcDbArc
 50
279.6754638282
 51
88.303725371
  0
ARC
  5
62A
330
1F
100
AcDbEntity
  8
0
  6
Continuous
 62
     7
370
    25
100
AcDbCircle
 10
-23.911524799
 20
-25.9049021303
 30
0.0
 40
0.3701449177658685
100
AcDbArc
 50
270.1295783262
 51
97.849610873
  0
ARC
  5
62B
330
1F
100
AcDbEntity
  8
0
  6
Continuous
 62
     7
370
    25
100
AcDbCircle
 10
-23.9830151488
 20
-24.8225990553
 30
0.0
 40
0.3889539649768438
100
AcDbArc
 50
269.728150988
 51
98.2510382112
  0
ARC
  5
62C
330
1F
100
AcDbEntity
  8
0
  6
Continuous
 62
     7
370
    25
100
AcDbCircle
 10
-24.047238898
 20
-23.725142144
 30
0.0
 40
0.4087423041792834
100
AcDbArc
 50
268.2059294799
 51
99.7732597192
  0
ARC
  5
62D
330
1F
100
AcDbEntity
  8
0
  6
Continuous
 62
     7
370
    25
100
AcDbCircle
 10
-24.8847435018
 20
2.2640286798
 30
0.0
 40
0.8366805884049693
100
AcDbArc
 50
253.6192828966
 51
61.7805689347
  0
ARC
  5
62E
330
1F
100
AcDbEntity
  8
0
  6
Continuous
 62
     7
370
    25
100
AcDbCircle
 10
-25.3448978575
 20
6.7487807522
 30
0.0
 40
0.4070246918686
100
AcDbArc
 50
264.3061404388
 51
95.6938595612
  0
ARC
  5
62F
330
1F
100
AcDbEntity
  8
0
  6
Continuous
 62
     7
370
    25
100
AcDbCircle
 10
-25.3940297536
 20
7.838614158
 30
0.0
 40
0.4155350619688697
100
AcDbArc
 50
271.2065373806
 51
88.7934626194
  0
ARC
  5
630
330
1F
100
AcDbEntity
  8
0
  6
Continuous
 62
     7
370
    25
100
AcDbCircle
 10
-25.4221865269
 20
8.8895519876
 30
0.0
 40
0.3906322859042378
100
AcDbArc
 50
275.4213245441
 51
84.5786754558
  0
ARC
  5
631
330
1F
100
AcDbEntity
  8
0
  6
Continuous
 62
     7
370
    25
100
AcDbCircle
 10
28.6540212587
 20
16.8433575369
 30
0.0
 40
0.3613283514144304
100
AcDbArc
 50
202.6236392511
 51
246.5185466123
  0
ARC
  5
632
330
1F
100
AcDbEntity
  8
0
  6
Continuous
 62
     7
370
    25
100
AcDbCircle
 10
-13.7979515507
 20
46.7106471141
 30
0.0
 40
0.6502598846762554
100
AcDbArc
 50
27.0618983933
 51
183.6534552725
  0
ARC
  5
633
330
1F
100
AcDbEntity
  8
0
  6
Continuous
 62
     7
370
    25
100
AcDbCircle
 10
9.2714988506
 20
46.755325385
 30
0.0
 40
0.6493363521063628
100
AcDbArc
 50
356.5525664124
 51
159.6441738878
  0
ARC
  5
634
330
1F
100
AcDbEntity
  8
0
  6
Continuous
 62
     7
370
    25
100
AcDbCircle
 10
22.9796455042
 20
37.0222549378
 30
0.0
 40
0.8524638813288092
100
AcDbArc
 50
0.0
 51
137.7400914544
  0
ARC
  5
635
330
1F
100
AcDbEntity
  8
0
  6
Continuous
 62
     7
370
    25
100
AcDbCircle
 10
25.1746182199
 20
29.471708954
 30
0.0
 40
0.8663379605576773
100
AcDbArc
 50
324.4978482341
 51
134.3265030597
  0
ARC
  5
636
330
1F
100
AcDbEntity
  8
0
  6
Continuous
 62
     7
370
    25
100
AcDbCircle
 10
-0.3650004423
 20
41.8749292806
 30
0.0
 40
0.4714739624526054
100
AcDbArc
 50
8.6393337803
 51
173.9661529705
  0
ARC
  5
637
330
1F
100
AcDbEntity
  8
0
  6
Continuous
 62
     7
370
    25
100
AcDbCircle
 10
-6.9582837267
 20
-10.5239768943
 30
0.0
 40
0.877081922275593
100
AcDbArc
 50
142.9524813224
 51
329.8332840275
  0
ARC
  5
638
330
1F
100
AcDbEntity
  8
0
  6
Continuous
 62
     7
370
    25
100
AcDbCircle
 10
27.0367936886
 20
-26.0401221136
 30
0.0
 40
0.8829701333593695
100
AcDbArc
 50
221.7599247708
 51
40.787918368
  0
ARC
  5
639
330
1F
100
AcDbEntity
  8
0
  6
Continuous
 62
     7
370
    25
100
AcDbCircle
 10
24.1670304779
 20
-35.4257174444
 30
0.0
 40
0.8910901230078748
100
AcDbArc
 50
222.6245548949
 51
0.0
  0
ARC
  5
63A
330
1F
100
AcDbEntity
  8
0
  6
Continuous
 62
     7
370
    25
100
AcDbCircle
 10
-19.8747180947
 20
-35.4404462372
 30
0.0
 40
1.075185650609997
100
AcDbArc
 50
149.0287503915
 51
331.919578891
  0
ARC
  5
63B
330
1F
100
AcDbEntity
  8
0
  6
Continuous
 62
     7
370
    25
100
AcDbCircle
 10
-19.8006157327
 20
-15.1475433481
 30
0.0
 40
1.085925106178814
100
AcDbArc
 50
126.4251561206
 51
311.0631180967
  0
ARC
  5
63C
330
1F
100
AcDbEntity
  8
0
  6
Continuous
 62
     7
370
    25
100
AcDbCircle
 10
24.14595583
 20
-15.1388627196
 30
0.0
 40
1.11177627405635
100
AcDbArc
 50
231.6552940607
 51
56.1287001435
  0
ARC
  5
63D
330
1F
100
AcDbEntity
  8
0
  6
Continuous
 62
     7
370
    25
100
AcDbCircle
 10
28.1765612107
 20
-13.4023164485
 30
0.0
 40
0.4350306622284666
100
AcDbArc
 50
251.091002461
 51
318.9903140854
  0
ARC
  5
63E
330
1F
100
AcDbEntity
  8
0
  6
Continuous
 62
     7
370
    25
100
AcDbCircle
 10
28.2034814356
 20
-14.5762996465
 30
0.0
 40
0.4061057834944735
100
AcDbArc
 50
249.6014222341
 51
317.9068714949
  0
ARC
  5
63F
330
1F
100
AcDbEntity
  8
0
  6
Continuous
 62
     7
370
    25
100
AcDbCircle
 10
28.2039996442
 20
-15.5990450735
 30
0.0
 40
0.4121232698055401
100
AcDbArc
 50
248.1890413097
 51
316.8833703549
  0
ARC
  5
640
330
1F
100
AcDbEntity
  8
0
  6
Continuous
 62
     7
370
    25
100
AcDbCircle
 10
28.1919656453
 20
-16.8190169882
 30
0.0
 40
0.4151285157258609
100
AcDbArc
 50
240.9685577877
 51
318.9091272652
  0
ENDSEC
  0
SECTION
  2
OBJECTS
  0
DICTIONARY
  5
C
330
0
100
AcDbDictionary
281
     1
  3
ACAD_GROUP
350
D
  3
ACAD_LAYOUT
350
1A
  3
ACAD_MLINESTYLE
350
17
  3
ACAD_PLOTSETTINGS
350
19
  3
ACAD_PLOTSTYLENAME
350
E
  3
ACAD_SCALELIST
350
47
  3
DWGPROPS
350
641
  0
DICTIONARY
  5
D
102
{ACAD_REACTORS
330
C
102
}
330
C
100
AcDbDictionary
281
     1
  0
DICTIONARY
  5
1A
102
{ACAD_REACTORS
330
C
102
}
330
C
100
AcDbDictionary
281
     1
  3
Layout1
350
1E
  3
Layout2
350
26
  3
Model
350
22
  0
DICTIONARY
  5
17
102
{ACAD_REACTORS
330
C
102
}
330
C
100
AcDbDictionary
281
     1
  3
Standard
350
18
  0
DICTIONARY
  5
19
102
{ACAD_REACTORS
330
C
102
}
330
C
100
AcDbDictionary
281
     1
  0
ACDBDICTIONARYWDFLT
  5
E
102
{ACAD_REACTORS
330
C
102
}
330
C
100
AcDbDictionary
281
     1
  3
Normal
350
F
100
AcDbDictionaryWithDefault
340
F
  0
DICTIONARY
  5
47
102
{ACAD_REACTORS
330
C
102
}
330
C
100
AcDbDictionary
281
     1
  3
A0
350
48
  3
A1
350
49
  3
A2
350
4A
  3
A3
350
4B
  3
A4
350
4C
  3
A5
350
4D
  3
A6
350
4E
  3
A7
350
4F
  3
A8
350
50
  3
A9
350
51
  3
B0
350
52
  3
B1
350
53
  3
B2
350
54
  3
B3
350
55
  3
B4
350
56
  3
B5
350
57
  3
B6
350
58
  3
B7
350
59
  3
B8
350
5A
  3
B9
350
5B
  3
C0
350
5C
  3
C1
350
5D
  3
C2
350
5E
  3
C3
350
5F
  3
C4
350
60
  3
C5
350
61
  3
C6
350
62
  3
C7
350
63
  3
C8
350
64
  3
C9
350
65
  3
D0
350
66
  3
D1
350
67
  3
D2
350
68
  0
XRECORD
  5
641
102
{ACAD_REACTORS
330
C
102
}
330
C
100
AcDbXrecord
280
     1
  1
DWGPROPS COOKIE
  2

  3

  4

  6

  7

  8
ccadic
  9

300
=
301
=
302
=
303
=
304
=
305
=
306
=
307
=
308
=
309
=
 40
0.0
 41
2459717.932610359
 42
2459717.932682349
  1

 90
        0
  0
LAYOUT
  5
1E
102
{ACAD_REACTORS
330
1A
102
}
330
1A
100
AcDbPlotSettings
  1

  2
none_device
  4

  6

 40
0.0
 41
0.0
 42
0.0
 43
0.0
 44
0.0
 45
0.0
 46
0.0
 47
0.0
 48
0.0
 49
0.0
140
0.0
141
0.0
142
1.0
143
1.0
 70
   688
 72
     1
 73
     0
 74
     5
  7

 75
    16
147
1.0
148
0.0
149
0.0
100
AcDbLayout
  1
Layout1
 70
     1
 71
     1
 10
0.0
 20
0.0
 11
420.0
 21
297.0
 12
0.0
 22
0.0
 32
0.0
 14
1.0000000000E+20
 24
1.0000000000E+20
 34
1.0000000000E+20
 15
-1.0000000000E+20
 25
-1.0000000000E+20
 35
-1.0000000000E+20
146
0.0
 13
0.0
 23
0.0
 33
0.0
 16
1.0
 26
0.0
 36
0.0
 17
0.0
 27
1.0
 37
0.0
 76
     0
330
1B
  0
LAYOUT
  5
26
102
{ACAD_REACTORS
330
1A
102
}
330
1A
100
AcDbPlotSettings
  1

  2
none_device
  4

  6

 40
0.0
 41
0.0
 42
0.0
 43
0.0
 44
0.0
 45
0.0
 46
0.0
 47
0.0
 48
0.0
 49
0.0
140
0.0
141
0.0
142
1.0
143
1.0
 70
   688
 72
     1
 73
     0
 74
     5
  7

 75
    16
147
1.0
148
0.0
149
0.0
100
AcDbLayout
  1
Layout2
 70
     1
 71
     2
 10
0.0
 20
0.0
 11
0.0
 21
0.0
 12
0.0
 22
0.0
 32
0.0
 14
0.0
 24
0.0
 34
0.0
 15
0.0
 25
0.0
 35
0.0
146
0.0
 13
0.0
 23
0.0
 33
0.0
 16
1.0
 26
0.0
 36
0.0
 17
0.0
 27
1.0
 37
0.0
 76
     0
330
23
  0
LAYOUT
  5
22
102
{ACAD_REACTORS
330
1A
102
}
330
1A
100
AcDbPlotSettings
  1

  2
none_device
  4
ANSI_A_(11.00_x_8.50_Inches)
  6

 40
6.35
 41
19.05
 42
6.35000508
 43
19.05000254
 44
279.4
 45
215.9
 46
130.7742280698
 47
85.1465504835
 48
0.0
 49
0.0
140
0.0
141
0.0
142
0.089635394
143
1.0
 70
  1696
 72
     0
 73
     0
 74
     0
  7

 75
     0
147
0.0179189148
148
-1300.4909072572
149
0.0
100
AcDbLayout
  1
Model
 70
     1
 71
     0
 10
0.0
 20
0.0
 11
420.0
 21
297.0
 12
0.0
 22
0.0
 32
0.0
 14
-26.9780196228
 24
-45.2915557839
 34
0.0
 15
29.2407026813
 25
48.5887701194
 35
0.0
146
0.0
 13
0.0
 23
0.0
 33
0.0
 16
1.0
 26
0.0
 36
0.0
 17
0.0
 27
1.0
 37
0.0
 76
     0
330
1F
331
29
  0
MLINESTYLE
  5
18
102
{ACAD_REACTORS
330
17
102
}
330
17
100
AcDbMlineStyle
  2
Standard
 70
     0
  3

 62
   256
 51
90.0
 52
90.0
 71
     2
 49
0.5
 62
   256
  6
BYLAYER
 49
-0.5
 62
   256
  6
BYLAYER
  0
ACDBPLACEHOLDER
  5
F
102
{ACAD_REACTORS
330
E
102
}
330
E
  0
SCALE
  5
48
102
{ACAD_REACTORS
330
47
102
}
330
47
100
AcDbScale
 70
     0
300
1:1
140
1.0
141
1.0
290
     1
  0
SCALE
  5
49
102
{ACAD_REACTORS
330
47
102
}
330
47
100
AcDbScale
 70
     0
300
1:2
140
1.0
141
2.0
290
     0
  0
SCALE
  5
4A
102
{ACAD_REACTORS
330
47
102
}
330
47
100
AcDbScale
 70
     0
300
1:4
140
1.0
141
4.0
290
     0
  0
SCALE
  5
4B
102
{ACAD_REACTORS
330
47
102
}
330
47
100
AcDbScale
 70
     0
300
1:5
140
1.0
141
5.0
290
     0
  0
SCALE
  5
4C
102
{ACAD_REACTORS
330
47
102
}
330
47
100
AcDbScale
 70
     0
300
1:8
140
1.0
141
8.0
290
     0
  0
SCALE
  5
4D
102
{ACAD_REACTORS
330
47
102
}
330
47
100
AcDbScale
 70
     0
300
1:10
140
1.0
141
10.0
290
     0
  0
SCALE
  5
4E
102
{ACAD_REACTORS
330
47
102
}
330
47
100
AcDbScale
 70
     0
300
1:16
140
1.0
141
16.0
290
     0
  0
SCALE
  5
4F
102
{ACAD_REACTORS
330
47
102
}
330
47
100
AcDbScale
 70
     0
300
1:20
140
1.0
141
20.0
290
     0
  0
SCALE
  5
50
102
{ACAD_REACTORS
330
47
102
}
330
47
100
AcDbScale
 70
     0
300
1:30
140
1.0
141
30.0
290
     0
  0
SCALE
  5
51
102
{ACAD_REACTORS
330
47
102
}
330
47
100
AcDbScale
 70
     0
300
1:40
140
1.0
141
40.0
290
     0
  0
SCALE
  5
52
102
{ACAD_REACTORS
330
47
102
}
330
47
100
AcDbScale
 70
     0
300
1:50
140
1.0
141
50.0
290
     0
  0
SCALE
  5
53
102
{ACAD_REACTORS
330
47
102
}
330
47
100
AcDbScale
 70
     0
300
1:100
140
1.0
141
100.0
290
     0
  0
SCALE
  5
54
102
{ACAD_REACTORS
330
47
102
}
330
47
100
AcDbScale
 70
     0
300
2:1
140
2.0
141
1.0
290
     0
  0
SCALE
  5
55
102
{ACAD_REACTORS
330
47
102
}
330
47
100
AcDbScale
 70
     0
300
4:1
140
4.0
141
1.0
290
     0
  0
SCALE
  5
56
102
{ACAD_REACTORS
330
47
102
}
330
47
100
AcDbScale
 70
     0
300
8:1
140
8.0
141
1.0
290
     0
  0
SCALE
  5
57
102
{ACAD_REACTORS
330
47
102
}
330
47
100
AcDbScale
 70
     0
300
10:1
140
10.0
141
1.0
290
     0
  0
SCALE
  5
58
102
{ACAD_REACTORS
330
47
102
}
330
47
100
AcDbScale
 70
     0
300
100:1
140
100.0
141
1.0
290
     0
  0
SCALE
  5
59
102
{ACAD_REACTORS
330
47
102
}
330
47
100
AcDbScale
 70
     0
300
1/128" = 1'-0"
140
0.0078125
141
12.0
290
     0
  0
SCALE
  5
5A
102
{ACAD_REACTORS
330
47
102
}
330
47
100
AcDbScale
 70
     0
300
1/64" = 1'-0"
140
0.015625
141
12.0
290
     0
  0
SCALE
  5
5B
102
{ACAD_REACTORS
330
47
102
}
330
47
100
AcDbScale
 70
     0
300
1/32" = 1'-0"
140
0.03125
141
12.0
290
     0
  0
SCALE
  5
5C
102
{ACAD_REACTORS
330
47
102
}
330
47
100
AcDbScale
 70
     0
300
1/16" = 1'-0"
140
0.0625
141
12.0
290
     0
  0
SCALE
  5
5D
102
{ACAD_REACTORS
330
47
102
}
330
47
100
AcDbScale
 70
     0
300
3/32" = 1'-0"
140
0.09375
141
12.0
290
     0
  0
SCALE
  5
5E
102
{ACAD_REACTORS
330
47
102
}
330
47
100
AcDbScale
 70
     0
300
1/8" = 1'-0"
140
0.125
141
12.0
290
     0
  0
SCALE
  5
5F
102
{ACAD_REACTORS
330
47
102
}
330
47
100
AcDbScale
 70
     0
300
3/16" = 1'-0"
140
0.1875
141
12.0
290
     0
  0
SCALE
  5
60
102
{ACAD_REACTORS
330
47
102
}
330
47
100
AcDbScale
 70
     0
300
1/4" = 1'-0"
140
0.25
141
12.0
290
     0
  0
SCALE
  5
61
102
{ACAD_REACTORS
330
47
102
}
330
47
100
AcDbScale
 70
     0
300
3/8" = 1'-0"
140
0.375
141
12.0
290
     0
  0
SCALE
  5
62
102
{ACAD_REACTORS
330
47
102
}
330
47
100
AcDbScale
 70
     0
300
1/2" = 1'-0"
140
0.5
141
12.0
290
     0
  0
SCALE
  5
63
102
{ACAD_REACTORS
330
47
102
}
330
47
100
AcDbScale
 70
     0
300
3/4" = 1'-0"
140
0.75
141
12.0
290
     0
  0
SCALE
  5
64
102
{ACAD_REACTORS
330
47
102
}
330
47
100
AcDbScale
 70
     0
300
1" = 1'-0"
140
1.0
141
12.0
290
     0
  0
SCALE
  5
65
102
{ACAD_REACTORS
330
47
102
}
330
47
100
AcDbScale
 70
     0
300
1-1/2" = 1'-0"
140
1.5
141
12.0
290
     0
  0
SCALE
  5
66
102
{ACAD_REACTORS
330
47
102
}
330
47
100
AcDbScale
 70
     0
300
3" = 1'-0"
140
3.0
141
12.0
290
     0
  0
SCALE
  5
67
102
{ACAD_REACTORS
330
47
102
}
330
47
100
AcDbScale
 70
     0
300
6" = 1'-0"
140
6.0
141
12.0
290
     0
  0
SCALE
  5
68
102
{ACAD_REACTORS
330
47
102
}
330
47
100
AcDbScale
 70
     0
300
1'-0" = 1'-0"
140
12.0
141
12.0
290
     0
  0
ENDSEC
  0
EOF
